<svg width="72" height="95" viewBox="0 0 72 95" fill="none" xmlns="http://www.w3.org/2000/svg">
<path d="M36.0615 17.3954C29.3075 17.387 22.6873 19.2601 16.9565 22.801C11.2258 26.3419 6.61552 31.4078 3.65208 37.4205C0.688632 43.4331 -0.508559 50.1501 0.197186 56.8046C0.902931 63.4591 3.48317 69.7829 7.64332 75.0541L8.76349 76.4292C9.32357 77.0806 9.90801 77.7319 10.5168 78.335C17.4821 85.6953 26.2728 91.1186 36.0128 94.0645C45.7459 91.1189 54.5288 85.6952 61.4844 78.335C62.0932 77.7319 62.6777 77.0806 63.2377 76.4292L64.3823 75.0541C68.5326 69.7803 71.1046 63.4578 71.8053 56.8067C72.506 50.1556 71.3072 43.4432 68.3455 37.434C65.3837 31.4249 60.7781 26.3605 55.0532 22.8178C49.3283 19.275 42.7141 17.3962 35.9641 17.3954H36.0615ZM36.0615 66.7792C33.3355 66.7792 30.6707 65.9784 28.4041 64.478C26.1375 62.9776 24.3709 60.845 23.3277 58.3499C22.2845 55.8548 22.0116 53.1093 22.5434 50.4606C23.0752 47.8118 24.3879 45.3788 26.3155 43.4691C28.2431 41.5595 30.6989 40.259 33.3726 39.7321C36.0462 39.2053 38.8175 39.4757 41.336 40.5092C43.8545 41.5427 46.0071 43.2928 47.5216 45.5383C49.0361 47.7838 49.8444 50.4238 49.8444 53.1245C49.8444 56.7459 48.3923 60.2191 45.8075 62.7798C43.2227 65.3406 39.717 66.7792 36.0615 66.7792Z" fill="#FF7E36"/>
<path d="M47.7994 16.6475C49.0567 16.3499 50.1611 15.608 50.9056 14.561C51.65 13.514 51.9833 12.2339 51.8428 10.9608C51.7023 9.68776 51.0978 8.50921 50.1427 7.64627C49.1875 6.78333 47.9474 6.29532 46.6549 6.27379C45.864 6.27851 45.0835 6.45127 44.3658 6.78042C43.9879 4.87044 42.9518 3.14989 41.4349 1.91307C39.918 0.676248 38.0144 0 36.0498 0C34.0852 0 32.1816 0.676248 30.6647 1.91307C29.1477 3.14989 28.1117 4.87044 27.7338 6.78042C27.0161 6.45127 26.2355 6.27851 25.4447 6.27379C24.1207 6.24477 22.834 6.70931 21.8393 7.57546C20.8446 8.44161 20.2144 9.64621 20.0735 10.9508C19.9326 12.2553 20.2914 13.5647 21.0786 14.6197C21.8659 15.6747 23.0243 16.3984 24.3245 16.6475C31.9231 14.0106 40.2008 14.0106 47.7994 16.6475Z" fill="#00B493"/>
</svg>
