<svg width="47" height="47" viewBox="0 0 47 47" fill="none" xmlns="http://www.w3.org/2000/svg">
<rect width="47" height="47" rx="10" fill="#FFFDFD"/>
<path d="M23.3558 13.5C20.9548 13.4971 18.6013 14.1453 16.5641 15.3706C14.5268 16.5958 12.8879 18.3489 11.8344 20.4295C10.7809 22.5101 10.3553 24.8344 10.6062 27.1372C10.8571 29.4399 11.7744 31.6282 13.2533 33.4522L13.6515 33.9281C13.8506 34.1535 14.0584 34.3789 14.2748 34.5876C16.7509 37.1345 19.876 39.0112 23.3385 40.0306C26.7986 39.0113 29.9209 37.1345 32.3935 34.5876C32.61 34.3789 32.8177 34.1535 33.0169 33.9281L33.4237 33.4522C34.8991 31.6273 35.8135 29.4395 36.0626 27.1379C36.3116 24.8363 35.8854 22.5136 34.8326 20.4342C33.7797 18.3548 32.1425 16.6023 30.1072 15.3764C28.0721 14.1504 25.7207 13.5003 23.3211 13.5H23.3558ZM23.3558 30.5888C22.3867 30.5888 21.4394 30.3117 20.6336 29.7925C19.8279 29.2733 19.1999 28.5353 18.829 27.6719C18.4582 26.8085 18.3611 25.8585 18.5502 24.9419C18.7393 24.0253 19.2059 23.1834 19.8912 22.5226C20.5764 21.8617 21.4494 21.4118 22.3999 21.2294C23.3504 21.0471 24.3355 21.1407 25.2309 21.4983C26.1261 21.8559 26.8914 22.4615 27.4298 23.2386C27.9682 24.0156 28.2556 24.9292 28.2556 25.8637C28.2556 27.1169 27.7393 28.3187 26.8205 29.2049C25.9016 30.091 24.6553 30.5888 23.3558 30.5888Z" fill="#FF7E36"/>
<path d="M27.5282 13.2412C27.9751 13.1382 28.3677 12.8815 28.6325 12.5192C28.8971 12.1569 29.0155 11.7139 28.9656 11.2734C28.9157 10.8328 28.7008 10.425 28.3612 10.1264C28.0217 9.82778 27.5808 9.6589 27.1213 9.65145C26.8402 9.65309 26.5627 9.71287 26.3076 9.82677C26.1732 9.16584 25.8049 8.57046 25.2657 8.14247C24.7264 7.71448 24.0497 7.48047 23.3513 7.48047C22.6528 7.48047 21.9761 7.71448 21.4369 8.14247C20.8977 8.57046 20.5293 9.16584 20.395 9.82677C20.1399 9.71287 19.8624 9.65309 19.5812 9.65145C19.1106 9.64141 18.6531 9.80217 18.2995 10.1019C17.9459 10.4016 17.7219 10.8185 17.6718 11.2699C17.6217 11.7213 17.7492 12.1744 18.0291 12.5395C18.309 12.9046 18.7208 13.155 19.183 13.2412C21.8843 12.3287 24.8269 12.3287 27.5282 13.2412Z" fill="#00B493"/>
</svg>
