<svg width="23" height="24" viewBox="0 0 23 24" fill="none" xmlns="http://www.w3.org/2000/svg">
<path d="M18.2266 5.25376C18.2034 5.21362 18.1765 5.17515 18.146 5.13887C18.1345 5.12522 18.1225 5.11198 18.1102 5.09918C17.9563 4.9395 17.7537 4.862 17.5525 4.86665L6.70866 4.86662C6.28525 4.86662 5.942 5.22479 5.94199 5.66661C5.94199 6.10844 6.28524 6.46662 6.70866 6.46662L15.7185 6.46665L4.88861 17.7674C4.58921 18.0799 4.58921 18.5864 4.88861 18.8988C5.18802 19.2112 5.67344 19.2112 5.97284 18.8988L16.8031 7.59763V17C16.8031 17.4418 17.1464 17.8 17.5698 17.8C17.9932 17.8 18.3365 17.4418 18.3365 17V5.66665C18.3365 5.51558 18.2963 5.37429 18.2266 5.25376Z" fill="#212124"/>
</svg>
