<svg width="24" height="24" viewBox="0 0 24 24" fill="none" xmlns="http://www.w3.org/2000/svg">
<path d="M11.9996 12.5752C11.8663 12.5752 11.7413 12.5542 11.6246 12.5122C11.508 12.4708 11.3996 12.4002 11.2996 12.3002L6.69965 7.70018C6.51632 7.51685 6.42065 7.28751 6.41265 7.01218C6.40398 6.73751 6.49965 6.50018 6.69965 6.30018C6.88298 6.11685 7.11632 6.02518 7.39965 6.02518C7.68298 6.02518 7.91632 6.11685 8.09965 6.30018L11.9996 10.1752L15.8996 6.30018C16.083 6.11685 16.312 6.02085 16.5866 6.01218C16.862 6.00418 17.0996 6.10018 17.2996 6.30018C17.483 6.48351 17.5746 6.71685 17.5746 7.00018C17.5746 7.28351 17.483 7.51685 17.2996 7.70018L12.6996 12.3002C12.5996 12.4002 12.4913 12.4708 12.3746 12.5122C12.258 12.5542 12.133 12.5752 11.9996 12.5752ZM11.9996 18.5752C11.8663 18.5752 11.7413 18.5542 11.6246 18.5122C11.508 18.4708 11.3996 18.4002 11.2996 18.3002L6.69965 13.7002C6.51632 13.5168 6.42065 13.2875 6.41265 13.0122C6.40398 12.7375 6.49965 12.5002 6.69965 12.3002C6.88298 12.1168 7.11632 12.0252 7.39965 12.0252C7.68298 12.0252 7.91632 12.1168 8.09965 12.3002L11.9996 16.1752L15.8996 12.3002C16.083 12.1168 16.312 12.0208 16.5866 12.0122C16.862 12.0042 17.0996 12.1002 17.2996 12.3002C17.483 12.4835 17.5746 12.7168 17.5746 13.0002C17.5746 13.2835 17.483 13.5168 17.2996 13.7002L12.6996 18.3002C12.5996 18.4002 12.4913 18.4708 12.3746 18.5122C12.258 18.5542 12.133 18.5752 11.9996 18.5752Z" fill="#9F9F9F"/>
</svg>
