<svg width="445" height="45" viewBox="0 0 445 45" fill="none" xmlns="http://www.w3.org/2000/svg">
<mask id="path-1-inside-1_1302_5319" fill="white">
<path d="M13.3421 1.14275C17.1301 1.14275 20.0554 1.98336 22.1185 3.66458C24.2153 5.31414 25.3821 7.72484 25.6189 10.897C25.6528 11.3095 25.6697 11.8645 25.6697 12.5624C25.6697 13.2285 25.6697 13.9265 25.6697 14.656C25.6697 15.3539 25.6697 16.0359 25.6697 16.702C25.6697 17.3681 25.6528 17.9074 25.6189 18.3198C25.5513 20.8892 24.8241 22.9352 23.4375 24.4578C22.0846 25.9487 20.1569 26.9639 17.6542 27.5031V34.6879H24.097C25.044 34.6879 25.8218 34.7673 26.4306 34.9258C27.0394 35.1162 27.5128 35.3541 27.8511 35.6396C28.1893 35.9568 28.4091 36.3057 28.5106 36.6864C28.6459 37.0988 28.7135 37.5428 28.7135 38.0187C28.7135 38.3993 28.6459 38.78 28.5106 39.1606C28.4091 39.5731 28.1893 39.9219 27.8511 40.2074C27.5128 40.5247 27.0394 40.7784 26.4306 40.9687C25.8218 41.1591 25.044 41.2542 24.097 41.2542H4.61648C3.66945 41.2542 2.89164 41.1591 2.28288 40.9687C1.67411 40.7784 1.20068 40.5247 0.862419 40.2074C0.524155 39.9219 0.287533 39.5731 0.152191 39.1606C0.0507299 38.78 0 38.3993 0 38.0187C0 37.5428 0.0507299 37.0988 0.152191 36.6864C0.287533 36.3057 0.524155 35.9568 0.862419 35.6396C1.20068 35.3541 1.67411 35.1162 2.28288 34.9258C2.89164 34.7673 3.66945 34.6879 4.61648 34.6879H9.43588V27.5507C6.79789 27.0748 4.78552 26.0598 3.39895 24.5054C2.01237 22.951 1.23438 20.8892 1.06534 18.3198C1.03146 17.9074 0.997764 17.3681 0.963883 16.702C0.963883 16.0041 0.963883 15.3063 0.963883 14.6084C0.963883 13.8789 0.963883 13.1809 0.963883 12.5148C0.997764 11.8487 1.03146 11.3095 1.06534 10.897C1.23438 7.72484 2.31676 5.31414 4.3121 3.66458C6.34132 1.98336 9.35127 1.14275 13.3421 1.14275ZM31.1486 5.13962C31.1486 3.55361 31.5544 2.47504 32.3661 1.90406C33.2117 1.30135 34.1755 1 35.2577 1C35.7989 1 36.3062 1.06344 36.7796 1.19033C37.2869 1.31722 37.7267 1.53925 38.0986 1.85647C38.4706 2.17369 38.775 2.60198 39.0118 3.14118C39.2486 3.68039 39.3669 4.34653 39.3669 5.13962V16.5593H41.9542C42.9012 16.5593 43.679 16.6702 44.2878 16.8923C44.8965 17.0827 45.3699 17.3364 45.7082 17.6536C46.0465 17.9709 46.2662 18.3356 46.3677 18.748C46.5031 19.1287 46.5706 19.5093 46.5706 19.89C46.5706 20.3658 46.5031 20.8098 46.3677 21.2223C46.2662 21.6347 46.0465 21.9994 45.7082 22.3167C45.3699 22.6021 44.8965 22.8401 44.2878 23.0304C43.679 23.2207 42.9012 23.3159 41.9542 23.3159H39.3669V37.638C39.3669 38.4627 39.2486 39.1448 39.0118 39.684C38.775 40.2232 38.4706 40.6515 38.0986 40.9687C37.7267 41.286 37.2869 41.5079 36.7796 41.6349C36.3062 41.7618 35.7989 41.8252 35.2577 41.8252C34.7165 41.8252 34.1924 41.7618 33.6851 41.6349C33.2117 41.5079 32.7719 41.286 32.3661 40.9687C31.9941 40.6515 31.6897 40.2232 31.4529 39.684C31.25 39.1448 31.1486 38.4627 31.1486 37.638V5.13962ZM17.4006 10.7067C17.4006 10.0405 17.2315 9.50134 16.8933 9.08891C16.5889 8.67648 16.2169 8.37518 15.7772 8.18485C15.3375 7.96275 14.8809 7.82 14.4075 7.75662C13.9677 7.69323 13.6126 7.66146 13.3421 7.66146C13.0716 7.66146 12.7165 7.70904 12.2768 7.8042C11.8371 7.86759 11.3975 8.01033 10.9578 8.23244C10.5181 8.45454 10.1293 8.78761 9.79099 9.23166C9.48661 9.64409 9.31757 10.1833 9.28369 10.8494C9.24981 11.2935 9.21611 11.8645 9.18223 12.5624C9.18223 13.2285 9.18223 13.9265 9.18223 14.656C9.18223 15.3539 9.18223 16.0359 9.18223 16.702C9.21611 17.3681 9.24981 17.9074 9.28369 18.3198C9.28369 19.0493 9.43588 19.6203 9.74026 20.0327C10.0446 20.4134 10.4166 20.7147 10.8563 20.9368C11.2961 21.1589 11.7356 21.3016 12.1753 21.365C12.6488 21.3968 13.0378 21.4126 13.3421 21.4126C13.6126 21.4126 13.9677 21.3968 14.4075 21.365C14.8472 21.3016 15.2867 21.1589 15.7265 20.9368C16.1662 20.7147 16.5382 20.4134 16.8425 20.0327C17.1808 19.6203 17.3667 19.0493 17.4006 18.3198C17.4345 17.8757 17.4513 17.3206 17.4513 16.6544C17.4513 15.9565 17.4513 15.2428 17.4513 14.5132C17.4513 13.7519 17.4513 13.0382 17.4513 12.3721C17.4513 11.7059 17.4345 11.1507 17.4006 10.7067ZM50.9942 22.1739C49.8103 22.1739 48.9479 21.9836 48.4069 21.6029C47.8996 21.1905 47.6459 20.5561 47.6459 19.6997C47.6459 19.0017 47.8996 18.4307 48.4069 17.9867C48.9479 17.5109 49.8103 17.273 50.9942 17.273H88.8899C90.0735 17.273 90.9191 17.5109 91.4264 17.9867C91.9674 18.4307 92.2381 19.0017 92.2381 19.6997C92.2381 20.5561 91.9674 21.1905 91.4264 21.6029C90.9191 21.9836 90.0735 22.1739 88.8899 22.1739H50.9942ZM59.4662 35.7347V37.638H85.4402C86.387 37.638 87.148 37.7014 87.7231 37.8283C88.298 37.9553 88.7377 38.1296 89.0421 38.3517C89.3465 38.5738 89.5323 38.8434 89.6001 39.1606C89.7016 39.4779 89.7523 39.8268 89.7523 40.2074C89.7523 40.6515 89.7016 41.0321 89.6001 41.3494C89.5323 41.6667 89.3465 41.9362 89.0421 42.1583C88.7377 42.3804 88.298 42.5389 87.7231 42.6341C87.148 42.7293 86.387 42.7768 85.4402 42.7768H55.357C54.41 42.7768 53.6658 42.6817 53.1248 42.4914C52.5836 42.3328 52.161 42.0949 51.8566 41.7776C51.5859 41.4921 51.4168 41.1433 51.3493 40.7308C51.2815 40.3502 51.2478 39.9377 51.2478 39.4937V33.2605C51.2478 32.9432 51.2815 32.6419 51.3493 32.3564C51.4507 32.0392 51.6366 31.7696 51.9073 31.5475C52.1778 31.3254 52.5668 31.1511 53.0741 31.0241C53.5814 30.8972 54.2578 30.8338 55.1033 30.8338H80.4179V29.1684H54.6468C53.2263 29.1684 52.2793 28.9463 51.8058 28.5023C51.3322 28.0265 51.0956 27.3921 51.0956 26.599C51.0956 25.9647 51.3322 25.3937 51.8058 24.8861C52.2793 24.3469 53.2263 24.0772 54.6468 24.0772H84.8314C85.6431 24.0772 86.3026 24.1565 86.8099 24.3151C87.3172 24.4736 87.706 24.6799 87.9767 24.9337C88.2472 25.1874 88.4163 25.4729 88.484 25.7901C88.5855 26.0756 88.6362 26.3769 88.6362 26.6942V33.3556C88.6362 34.117 88.3994 34.7037 87.926 35.1162C87.4524 35.5286 86.4041 35.7347 84.7807 35.7347H59.4662ZM50.4869 12.6575C50.4869 11.7377 50.7574 11.0715 51.2985 10.6591C51.8395 10.2151 52.9388 9.99296 54.596 9.99296H57.2847V6.7574H54.8497C53.1924 6.7574 52.0932 6.5353 51.5522 6.09126C51.011 5.61544 50.7405 4.98107 50.7405 4.18798C50.7405 3.26812 51.011 2.60198 51.5522 2.18955C52.0932 1.74544 53.1924 1.5234 54.8497 1.5234H85.0343C86.6914 1.5234 87.7906 1.74544 88.3318 2.18955C88.8728 2.60198 89.1435 3.26812 89.1435 4.18798C89.1435 4.98107 88.8728 5.61544 88.3318 6.09126C87.7906 6.5353 86.6914 6.7574 85.0343 6.7574H82.5993V9.99296H85.288C86.9451 9.99296 88.0443 10.2151 88.5855 10.6591C89.1265 11.0715 89.3972 11.7377 89.3972 12.6575C89.3972 13.4506 89.1265 14.085 88.5855 14.5608C88.0443 15.0049 86.9451 15.227 85.288 15.227H54.596C52.9388 15.227 51.8395 15.0049 51.2985 14.5608C50.7574 14.085 50.4869 13.4506 50.4869 12.6575ZM65.5031 9.99296H74.3809V6.7574H65.5031V9.99296ZM114.265 1.47582C115.212 1.47582 115.956 1.58684 116.497 1.80889C117.038 1.99922 117.444 2.26885 117.715 2.61778C118.019 2.96666 118.205 3.36329 118.273 3.80733C118.34 4.21976 118.374 4.6638 118.374 5.13962V37.3049C118.374 37.7807 118.34 38.209 118.273 38.5896C118.205 39.0021 118.019 39.3509 117.715 39.6364C117.444 39.9537 117.038 40.1916 116.497 40.3502C115.956 40.5405 115.212 40.6357 114.265 40.6357H101.176C100.23 40.6357 99.4855 40.5405 98.9443 40.3502C98.4033 40.1916 97.9804 39.9537 97.676 39.6364C97.4055 39.3509 97.2365 39.0021 97.1687 38.5896C97.1012 38.209 97.0673 37.7807 97.0673 37.3049V5.13962C97.0673 4.6638 97.1012 4.21976 97.1687 3.80733C97.2365 3.36329 97.4055 2.96666 97.676 2.61778C97.9804 2.26885 98.4033 1.99922 98.9443 1.80889C99.4855 1.58684 100.23 1.47582 101.176 1.47582H114.265ZM125.426 5.13962C125.426 3.55361 125.832 2.47504 126.643 1.90406C127.489 1.30135 128.453 1 129.535 1C130.077 1 130.584 1.06344 131.057 1.19033C131.564 1.31722 132.004 1.53925 132.376 1.85647C132.747 2.17369 133.052 2.60198 133.289 3.14118C133.526 3.68039 133.644 4.34653 133.644 5.13962V16.5593H136.84C137.788 16.5593 138.565 16.6544 139.174 16.8447C139.783 17.0351 140.255 17.2888 140.594 17.6061C140.933 17.8915 141.152 18.2404 141.254 18.6529C141.39 19.0335 141.457 19.4142 141.457 19.7948C141.457 20.2706 141.39 20.7147 141.254 21.1271C141.152 21.5078 140.933 21.8566 140.594 22.1739C140.255 22.4594 139.783 22.6973 139.174 22.8876C138.565 23.0462 137.788 23.1255 136.84 23.1255H133.644V37.638C133.644 38.4627 133.526 39.1448 133.289 39.684C133.052 40.2232 132.747 40.6515 132.376 40.9687C132.004 41.286 131.564 41.5079 131.057 41.6349C130.584 41.7618 130.077 41.8252 129.535 41.8252C128.993 41.8252 128.47 41.7618 127.962 41.6349C127.489 41.5079 127.049 41.286 126.643 40.9687C126.272 40.6515 125.968 40.2232 125.73 39.684C125.527 39.1448 125.426 38.4627 125.426 37.638V5.13962ZM110.359 8.04211H105.083V34.0694H110.359V8.04211ZM158.055 1.57098C158.968 1.57098 159.678 1.66615 160.185 1.85647C160.693 2.01507 161.082 2.25298 161.352 2.5702C161.624 2.85569 161.792 3.22054 161.859 3.66458C161.928 4.10862 161.961 4.61622 161.961 5.1872V9.65989H167.034V5.13962C167.034 3.55361 167.356 2.47504 167.998 1.90406C168.641 1.30135 169.503 1 170.585 1C171.634 1 172.48 1.30135 173.122 1.90406C173.799 2.47504 174.136 3.55361 174.136 5.13962V19.4142C174.136 21.0637 173.816 22.1739 173.172 22.7449C172.564 23.3159 171.719 23.6014 170.636 23.6014C169.554 23.6014 168.675 23.3159 167.998 22.7449C167.356 22.1739 167.034 21.0637 167.034 19.4142V16.4165H161.504C161.234 17.7488 160.761 19.0653 160.084 20.3658C159.408 21.6663 158.428 22.8876 157.141 24.0296C156.297 24.7591 155.467 25.1398 154.656 25.1716C153.878 25.1716 153.117 24.9812 152.373 24.6006C151.967 24.4103 151.63 24.1406 151.358 23.7917C151.088 23.4428 150.902 23.0622 150.8 22.6497C150.699 22.2057 150.699 21.7615 150.8 21.3174C150.902 20.8416 151.123 20.3976 151.46 19.9851C151.9 19.4459 152.289 18.9383 152.626 18.4625C152.965 17.9867 153.253 17.4951 153.489 16.9875H146.64C145.694 16.9875 144.934 16.9241 144.357 16.7972C143.783 16.6386 143.343 16.4323 143.038 16.1786C142.734 15.8931 142.531 15.56 142.43 15.1794C142.363 14.7987 142.328 14.3705 142.328 13.8947C142.328 13.514 142.379 13.1492 142.48 12.8003C142.582 12.4196 142.785 12.0866 143.089 11.8011C143.428 11.5156 143.884 11.2935 144.459 11.1349C145.035 10.9764 145.796 10.897 146.742 10.897H154.25V7.75662H147.198C146.253 7.75662 145.492 7.67726 144.915 7.51871C144.341 7.36016 143.901 7.15386 143.596 6.90015C143.292 6.61466 143.089 6.28158 142.988 5.90093C142.921 5.52027 142.886 5.09204 142.886 4.61622C142.886 4.23556 142.937 3.87071 143.038 3.52184C143.14 3.14118 143.343 2.80811 143.647 2.52262C143.986 2.23713 144.443 2.01507 145.017 1.85647C145.593 1.66615 146.354 1.57098 147.3 1.57098H158.055ZM169.469 28.2168C169.469 29.327 169.824 30.3104 170.534 31.1669C171.279 32.0233 172.208 32.7529 173.325 33.3556C174.475 33.9584 175.76 34.45 177.18 34.8307C178.6 35.2113 180.021 35.481 181.441 35.6396C182.76 35.7981 183.742 36.1947 184.384 36.8291C185.027 37.4953 185.264 38.4311 185.094 39.6364C184.993 40.2708 184.79 40.7784 184.485 41.1591C184.215 41.5397 183.876 41.841 183.471 42.0631C183.065 42.2852 182.608 42.428 182.101 42.4914C181.594 42.5547 181.086 42.5707 180.579 42.5389C177.738 42.3168 175.017 41.6507 172.411 40.5405C169.808 39.4303 167.541 38.098 165.613 36.5436C164.668 37.3049 163.568 38.0187 162.316 38.6848C161.098 39.3827 159.798 40.0013 158.41 40.5405C157.058 41.0797 155.654 41.5239 154.199 41.8728C152.746 42.2217 151.307 42.4438 149.887 42.5389C149.38 42.5707 148.872 42.5547 148.365 42.4914C147.858 42.428 147.401 42.2852 146.995 42.0631C146.59 41.841 146.234 41.5397 145.93 41.1591C145.66 40.7784 145.473 40.2708 145.372 39.6364C145.203 38.4311 145.441 37.4953 146.082 36.8291C146.725 36.1947 147.706 35.7981 149.025 35.6396C150.479 35.481 151.916 35.2271 153.337 34.8783C154.757 34.561 156.025 34.1011 157.141 33.4984C158.292 32.8956 159.221 32.1661 159.932 31.3096C160.642 30.4214 161.015 29.3746 161.048 28.1692V27.5507C161.048 26.6624 161.421 25.9647 162.164 25.4571C162.908 24.9179 163.939 24.6482 165.258 24.6482C166.577 24.6482 167.61 24.9179 168.353 25.4571C169.098 25.9647 169.469 26.6624 169.469 27.5507V28.2168ZM177.941 5.13962C177.941 3.55361 178.263 2.47504 178.905 1.90406C179.548 1.30135 180.41 1 181.492 1C182.541 1 183.387 1.30135 184.029 1.90406C184.706 2.47504 185.043 3.55361 185.043 5.13962V21.0795C185.043 22.7291 184.723 23.8393 184.079 24.4103C183.471 24.9812 182.626 25.2667 181.543 25.2667C180.461 25.2667 179.582 24.9812 178.905 24.4103C178.263 23.8393 177.941 22.7291 177.941 21.0795V5.13962Z"/>
</mask>
<path d="M13.3421 1.14275C17.1301 1.14275 20.0554 1.98336 22.1185 3.66458C24.2153 5.31414 25.3821 7.72484 25.6189 10.897C25.6528 11.3095 25.6697 11.8645 25.6697 12.5624C25.6697 13.2285 25.6697 13.9265 25.6697 14.656C25.6697 15.3539 25.6697 16.0359 25.6697 16.702C25.6697 17.3681 25.6528 17.9074 25.6189 18.3198C25.5513 20.8892 24.8241 22.9352 23.4375 24.4578C22.0846 25.9487 20.1569 26.9639 17.6542 27.5031V34.6879H24.097C25.044 34.6879 25.8218 34.7673 26.4306 34.9258C27.0394 35.1162 27.5128 35.3541 27.8511 35.6396C28.1893 35.9568 28.4091 36.3057 28.5106 36.6864C28.6459 37.0988 28.7135 37.5428 28.7135 38.0187C28.7135 38.3993 28.6459 38.78 28.5106 39.1606C28.4091 39.5731 28.1893 39.9219 27.8511 40.2074C27.5128 40.5247 27.0394 40.7784 26.4306 40.9687C25.8218 41.1591 25.044 41.2542 24.097 41.2542H4.61648C3.66945 41.2542 2.89164 41.1591 2.28288 40.9687C1.67411 40.7784 1.20068 40.5247 0.862419 40.2074C0.524155 39.9219 0.287533 39.5731 0.152191 39.1606C0.0507299 38.78 0 38.3993 0 38.0187C0 37.5428 0.0507299 37.0988 0.152191 36.6864C0.287533 36.3057 0.524155 35.9568 0.862419 35.6396C1.20068 35.3541 1.67411 35.1162 2.28288 34.9258C2.89164 34.7673 3.66945 34.6879 4.61648 34.6879H9.43588V27.5507C6.79789 27.0748 4.78552 26.0598 3.39895 24.5054C2.01237 22.951 1.23438 20.8892 1.06534 18.3198C1.03146 17.9074 0.997764 17.3681 0.963883 16.702C0.963883 16.0041 0.963883 15.3063 0.963883 14.6084C0.963883 13.8789 0.963883 13.1809 0.963883 12.5148C0.997764 11.8487 1.03146 11.3095 1.06534 10.897C1.23438 7.72484 2.31676 5.31414 4.3121 3.66458C6.34132 1.98336 9.35127 1.14275 13.3421 1.14275ZM31.1486 5.13962C31.1486 3.55361 31.5544 2.47504 32.3661 1.90406C33.2117 1.30135 34.1755 1 35.2577 1C35.7989 1 36.3062 1.06344 36.7796 1.19033C37.2869 1.31722 37.7267 1.53925 38.0986 1.85647C38.4706 2.17369 38.775 2.60198 39.0118 3.14118C39.2486 3.68039 39.3669 4.34653 39.3669 5.13962V16.5593H41.9542C42.9012 16.5593 43.679 16.6702 44.2878 16.8923C44.8965 17.0827 45.3699 17.3364 45.7082 17.6536C46.0465 17.9709 46.2662 18.3356 46.3677 18.748C46.5031 19.1287 46.5706 19.5093 46.5706 19.89C46.5706 20.3658 46.5031 20.8098 46.3677 21.2223C46.2662 21.6347 46.0465 21.9994 45.7082 22.3167C45.3699 22.6021 44.8965 22.8401 44.2878 23.0304C43.679 23.2207 42.9012 23.3159 41.9542 23.3159H39.3669V37.638C39.3669 38.4627 39.2486 39.1448 39.0118 39.684C38.775 40.2232 38.4706 40.6515 38.0986 40.9687C37.7267 41.286 37.2869 41.5079 36.7796 41.6349C36.3062 41.7618 35.7989 41.8252 35.2577 41.8252C34.7165 41.8252 34.1924 41.7618 33.6851 41.6349C33.2117 41.5079 32.7719 41.286 32.3661 40.9687C31.9941 40.6515 31.6897 40.2232 31.4529 39.684C31.25 39.1448 31.1486 38.4627 31.1486 37.638V5.13962ZM17.4006 10.7067C17.4006 10.0405 17.2315 9.50134 16.8933 9.08891C16.5889 8.67648 16.2169 8.37518 15.7772 8.18485C15.3375 7.96275 14.8809 7.82 14.4075 7.75662C13.9677 7.69323 13.6126 7.66146 13.3421 7.66146C13.0716 7.66146 12.7165 7.70904 12.2768 7.8042C11.8371 7.86759 11.3975 8.01033 10.9578 8.23244C10.5181 8.45454 10.1293 8.78761 9.79099 9.23166C9.48661 9.64409 9.31757 10.1833 9.28369 10.8494C9.24981 11.2935 9.21611 11.8645 9.18223 12.5624C9.18223 13.2285 9.18223 13.9265 9.18223 14.656C9.18223 15.3539 9.18223 16.0359 9.18223 16.702C9.21611 17.3681 9.24981 17.9074 9.28369 18.3198C9.28369 19.0493 9.43588 19.6203 9.74026 20.0327C10.0446 20.4134 10.4166 20.7147 10.8563 20.9368C11.2961 21.1589 11.7356 21.3016 12.1753 21.365C12.6488 21.3968 13.0378 21.4126 13.3421 21.4126C13.6126 21.4126 13.9677 21.3968 14.4075 21.365C14.8472 21.3016 15.2867 21.1589 15.7265 20.9368C16.1662 20.7147 16.5382 20.4134 16.8425 20.0327C17.1808 19.6203 17.3667 19.0493 17.4006 18.3198C17.4345 17.8757 17.4513 17.3206 17.4513 16.6544C17.4513 15.9565 17.4513 15.2428 17.4513 14.5132C17.4513 13.7519 17.4513 13.0382 17.4513 12.3721C17.4513 11.7059 17.4345 11.1507 17.4006 10.7067ZM50.9942 22.1739C49.8103 22.1739 48.9479 21.9836 48.4069 21.6029C47.8996 21.1905 47.6459 20.5561 47.6459 19.6997C47.6459 19.0017 47.8996 18.4307 48.4069 17.9867C48.9479 17.5109 49.8103 17.273 50.9942 17.273H88.8899C90.0735 17.273 90.9191 17.5109 91.4264 17.9867C91.9674 18.4307 92.2381 19.0017 92.2381 19.6997C92.2381 20.5561 91.9674 21.1905 91.4264 21.6029C90.9191 21.9836 90.0735 22.1739 88.8899 22.1739H50.9942ZM59.4662 35.7347V37.638H85.4402C86.387 37.638 87.148 37.7014 87.7231 37.8283C88.298 37.9553 88.7377 38.1296 89.0421 38.3517C89.3465 38.5738 89.5323 38.8434 89.6001 39.1606C89.7016 39.4779 89.7523 39.8268 89.7523 40.2074C89.7523 40.6515 89.7016 41.0321 89.6001 41.3494C89.5323 41.6667 89.3465 41.9362 89.0421 42.1583C88.7377 42.3804 88.298 42.5389 87.7231 42.6341C87.148 42.7293 86.387 42.7768 85.4402 42.7768H55.357C54.41 42.7768 53.6658 42.6817 53.1248 42.4914C52.5836 42.3328 52.161 42.0949 51.8566 41.7776C51.5859 41.4921 51.4168 41.1433 51.3493 40.7308C51.2815 40.3502 51.2478 39.9377 51.2478 39.4937V33.2605C51.2478 32.9432 51.2815 32.6419 51.3493 32.3564C51.4507 32.0392 51.6366 31.7696 51.9073 31.5475C52.1778 31.3254 52.5668 31.1511 53.0741 31.0241C53.5814 30.8972 54.2578 30.8338 55.1033 30.8338H80.4179V29.1684H54.6468C53.2263 29.1684 52.2793 28.9463 51.8058 28.5023C51.3322 28.0265 51.0956 27.3921 51.0956 26.599C51.0956 25.9647 51.3322 25.3937 51.8058 24.8861C52.2793 24.3469 53.2263 24.0772 54.6468 24.0772H84.8314C85.6431 24.0772 86.3026 24.1565 86.8099 24.3151C87.3172 24.4736 87.706 24.6799 87.9767 24.9337C88.2472 25.1874 88.4163 25.4729 88.484 25.7901C88.5855 26.0756 88.6362 26.3769 88.6362 26.6942V33.3556C88.6362 34.117 88.3994 34.7037 87.926 35.1162C87.4524 35.5286 86.4041 35.7347 84.7807 35.7347H59.4662ZM50.4869 12.6575C50.4869 11.7377 50.7574 11.0715 51.2985 10.6591C51.8395 10.2151 52.9388 9.99296 54.596 9.99296H57.2847V6.7574H54.8497C53.1924 6.7574 52.0932 6.5353 51.5522 6.09126C51.011 5.61544 50.7405 4.98107 50.7405 4.18798C50.7405 3.26812 51.011 2.60198 51.5522 2.18955C52.0932 1.74544 53.1924 1.5234 54.8497 1.5234H85.0343C86.6914 1.5234 87.7906 1.74544 88.3318 2.18955C88.8728 2.60198 89.1435 3.26812 89.1435 4.18798C89.1435 4.98107 88.8728 5.61544 88.3318 6.09126C87.7906 6.5353 86.6914 6.7574 85.0343 6.7574H82.5993V9.99296H85.288C86.9451 9.99296 88.0443 10.2151 88.5855 10.6591C89.1265 11.0715 89.3972 11.7377 89.3972 12.6575C89.3972 13.4506 89.1265 14.085 88.5855 14.5608C88.0443 15.0049 86.9451 15.227 85.288 15.227H54.596C52.9388 15.227 51.8395 15.0049 51.2985 14.5608C50.7574 14.085 50.4869 13.4506 50.4869 12.6575ZM65.5031 9.99296H74.3809V6.7574H65.5031V9.99296ZM114.265 1.47582C115.212 1.47582 115.956 1.58684 116.497 1.80889C117.038 1.99922 117.444 2.26885 117.715 2.61778C118.019 2.96666 118.205 3.36329 118.273 3.80733C118.34 4.21976 118.374 4.6638 118.374 5.13962V37.3049C118.374 37.7807 118.34 38.209 118.273 38.5896C118.205 39.0021 118.019 39.3509 117.715 39.6364C117.444 39.9537 117.038 40.1916 116.497 40.3502C115.956 40.5405 115.212 40.6357 114.265 40.6357H101.176C100.23 40.6357 99.4855 40.5405 98.9443 40.3502C98.4033 40.1916 97.9804 39.9537 97.676 39.6364C97.4055 39.3509 97.2365 39.0021 97.1687 38.5896C97.1012 38.209 97.0673 37.7807 97.0673 37.3049V5.13962C97.0673 4.6638 97.1012 4.21976 97.1687 3.80733C97.2365 3.36329 97.4055 2.96666 97.676 2.61778C97.9804 2.26885 98.4033 1.99922 98.9443 1.80889C99.4855 1.58684 100.23 1.47582 101.176 1.47582H114.265ZM125.426 5.13962C125.426 3.55361 125.832 2.47504 126.643 1.90406C127.489 1.30135 128.453 1 129.535 1C130.077 1 130.584 1.06344 131.057 1.19033C131.564 1.31722 132.004 1.53925 132.376 1.85647C132.747 2.17369 133.052 2.60198 133.289 3.14118C133.526 3.68039 133.644 4.34653 133.644 5.13962V16.5593H136.84C137.788 16.5593 138.565 16.6544 139.174 16.8447C139.783 17.0351 140.255 17.2888 140.594 17.6061C140.933 17.8915 141.152 18.2404 141.254 18.6529C141.39 19.0335 141.457 19.4142 141.457 19.7948C141.457 20.2706 141.39 20.7147 141.254 21.1271C141.152 21.5078 140.933 21.8566 140.594 22.1739C140.255 22.4594 139.783 22.6973 139.174 22.8876C138.565 23.0462 137.788 23.1255 136.84 23.1255H133.644V37.638C133.644 38.4627 133.526 39.1448 133.289 39.684C133.052 40.2232 132.747 40.6515 132.376 40.9687C132.004 41.286 131.564 41.5079 131.057 41.6349C130.584 41.7618 130.077 41.8252 129.535 41.8252C128.993 41.8252 128.47 41.7618 127.962 41.6349C127.489 41.5079 127.049 41.286 126.643 40.9687C126.272 40.6515 125.968 40.2232 125.73 39.684C125.527 39.1448 125.426 38.4627 125.426 37.638V5.13962ZM110.359 8.04211H105.083V34.0694H110.359V8.04211ZM158.055 1.57098C158.968 1.57098 159.678 1.66615 160.185 1.85647C160.693 2.01507 161.082 2.25298 161.352 2.5702C161.624 2.85569 161.792 3.22054 161.859 3.66458C161.928 4.10862 161.961 4.61622 161.961 5.1872V9.65989H167.034V5.13962C167.034 3.55361 167.356 2.47504 167.998 1.90406C168.641 1.30135 169.503 1 170.585 1C171.634 1 172.48 1.30135 173.122 1.90406C173.799 2.47504 174.136 3.55361 174.136 5.13962V19.4142C174.136 21.0637 173.816 22.1739 173.172 22.7449C172.564 23.3159 171.719 23.6014 170.636 23.6014C169.554 23.6014 168.675 23.3159 167.998 22.7449C167.356 22.1739 167.034 21.0637 167.034 19.4142V16.4165H161.504C161.234 17.7488 160.761 19.0653 160.084 20.3658C159.408 21.6663 158.428 22.8876 157.141 24.0296C156.297 24.7591 155.467 25.1398 154.656 25.1716C153.878 25.1716 153.117 24.9812 152.373 24.6006C151.967 24.4103 151.63 24.1406 151.358 23.7917C151.088 23.4428 150.902 23.0622 150.8 22.6497C150.699 22.2057 150.699 21.7615 150.8 21.3174C150.902 20.8416 151.123 20.3976 151.46 19.9851C151.9 19.4459 152.289 18.9383 152.626 18.4625C152.965 17.9867 153.253 17.4951 153.489 16.9875H146.64C145.694 16.9875 144.934 16.9241 144.357 16.7972C143.783 16.6386 143.343 16.4323 143.038 16.1786C142.734 15.8931 142.531 15.56 142.43 15.1794C142.363 14.7987 142.328 14.3705 142.328 13.8947C142.328 13.514 142.379 13.1492 142.48 12.8003C142.582 12.4196 142.785 12.0866 143.089 11.8011C143.428 11.5156 143.884 11.2935 144.459 11.1349C145.035 10.9764 145.796 10.897 146.742 10.897H154.25V7.75662H147.198C146.253 7.75662 145.492 7.67726 144.915 7.51871C144.341 7.36016 143.901 7.15386 143.596 6.90015C143.292 6.61466 143.089 6.28158 142.988 5.90093C142.921 5.52027 142.886 5.09204 142.886 4.61622C142.886 4.23556 142.937 3.87071 143.038 3.52184C143.14 3.14118 143.343 2.80811 143.647 2.52262C143.986 2.23713 144.443 2.01507 145.017 1.85647C145.593 1.66615 146.354 1.57098 147.3 1.57098H158.055ZM169.469 28.2168C169.469 29.327 169.824 30.3104 170.534 31.1669C171.279 32.0233 172.208 32.7529 173.325 33.3556C174.475 33.9584 175.76 34.45 177.18 34.8307C178.6 35.2113 180.021 35.481 181.441 35.6396C182.76 35.7981 183.742 36.1947 184.384 36.8291C185.027 37.4953 185.264 38.4311 185.094 39.6364C184.993 40.2708 184.79 40.7784 184.485 41.1591C184.215 41.5397 183.876 41.841 183.471 42.0631C183.065 42.2852 182.608 42.428 182.101 42.4914C181.594 42.5547 181.086 42.5707 180.579 42.5389C177.738 42.3168 175.017 41.6507 172.411 40.5405C169.808 39.4303 167.541 38.098 165.613 36.5436C164.668 37.3049 163.568 38.0187 162.316 38.6848C161.098 39.3827 159.798 40.0013 158.41 40.5405C157.058 41.0797 155.654 41.5239 154.199 41.8728C152.746 42.2217 151.307 42.4438 149.887 42.5389C149.38 42.5707 148.872 42.5547 148.365 42.4914C147.858 42.428 147.401 42.2852 146.995 42.0631C146.59 41.841 146.234 41.5397 145.93 41.1591C145.66 40.7784 145.473 40.2708 145.372 39.6364C145.203 38.4311 145.441 37.4953 146.082 36.8291C146.725 36.1947 147.706 35.7981 149.025 35.6396C150.479 35.481 151.916 35.2271 153.337 34.8783C154.757 34.561 156.025 34.1011 157.141 33.4984C158.292 32.8956 159.221 32.1661 159.932 31.3096C160.642 30.4214 161.015 29.3746 161.048 28.1692V27.5507C161.048 26.6624 161.421 25.9647 162.164 25.4571C162.908 24.9179 163.939 24.6482 165.258 24.6482C166.577 24.6482 167.61 24.9179 168.353 25.4571C169.098 25.9647 169.469 26.6624 169.469 27.5507V28.2168ZM177.941 5.13962C177.941 3.55361 178.263 2.47504 178.905 1.90406C179.548 1.30135 180.41 1 181.492 1C182.541 1 183.387 1.30135 184.029 1.90406C184.706 2.47504 185.043 3.55361 185.043 5.13962V21.0795C185.043 22.7291 184.723 23.8393 184.079 24.4103C183.471 24.9812 182.626 25.2667 181.543 25.2667C180.461 25.2667 179.582 24.9812 178.905 24.4103C178.263 23.8393 177.941 22.7291 177.941 21.0795V5.13962Z" fill="#FF7E36" stroke="#FF7E36" stroke-width="3" mask="url(#path-1-inside-1_1302_5319)"/>
<path d="M232.54 6.69936V11.7394H243.868V6.69936H232.54ZM232.54 15.5794V20.6674H244.06V15.5794H232.54ZM241.852 0.267359V26.2834H248.236V0.267359H241.852ZM212.86 3.48336V23.8834H233.884V3.48336H212.86ZM227.596 8.52336V18.8914H219.148V8.52336H227.596ZM233.164 27.4354C223.756 27.4354 217.948 30.6514 217.948 36.0754C217.948 41.5474 223.756 44.7154 233.164 44.7154C242.572 44.7154 248.38 41.5474 248.38 36.0754C248.38 30.6514 242.572 27.4354 233.164 27.4354ZM233.164 32.3314C238.972 32.3314 242.044 33.5314 242.044 36.0754C242.044 38.6194 238.972 39.8674 233.164 39.8674C227.404 39.8674 224.332 38.6194 224.332 36.0754C224.332 33.5314 227.404 32.3314 233.164 32.3314ZM272.856 10.0594V15.1954H280.248V10.0594H272.856ZM272.856 23.7874V28.9714H280.248V23.7874H272.856ZM287.304 0.267359V44.7154H293.4V0.267359H287.304ZM278.424 0.939359V42.6994H284.376V0.939359H278.424ZM265.176 3.38736C259.32 3.38736 255.576 9.48336 255.576 19.5154C255.576 29.5954 259.32 35.6914 265.176 35.6914C271.08 35.6914 274.872 29.5954 274.872 19.5154C274.872 9.48336 271.08 3.38736 265.176 3.38736ZM265.176 9.38736C267.672 9.38736 269.112 12.7474 269.112 19.5154C269.112 26.3314 267.672 29.6434 265.176 29.6434C262.728 29.6434 261.288 26.3314 261.288 19.5154C261.288 12.7474 262.728 9.38736 265.176 9.38736ZM313.653 3.19536C306.693 3.19536 301.365 7.75536 301.365 14.1394C301.365 20.5714 306.693 25.1314 313.653 25.1314C320.661 25.1314 325.893 20.5714 325.893 14.1394C325.893 7.75536 320.661 3.19536 313.653 3.19536ZM313.653 8.66736C317.061 8.66736 319.653 10.6834 319.653 14.1394C319.653 17.6434 317.061 19.6594 313.653 19.6594C310.245 19.6594 307.653 17.6434 307.653 14.1394C307.653 10.6834 310.245 8.66736 313.653 8.66736ZM330.069 0.219357V44.8114H336.453V0.219357H330.069ZM300.309 35.7874C307.989 35.7874 318.453 35.6914 328.101 33.7714L327.621 29.1634C318.261 30.5554 307.365 30.6514 299.541 30.6514L300.309 35.7874ZM379.032 11.7394V16.8754H389.4V11.7394H379.032ZM386.04 0.315358V32.7154H392.424V0.315358H386.04ZM363.096 38.8594V43.9474H393.432V38.8594H363.096ZM363.096 29.9794V41.8834H369.48V29.9794H363.096ZM365.496 6.12336V8.90736C365.496 14.5234 362.328 20.3314 354.984 22.7314L358.2 27.8194C366.744 24.9874 370.68 17.2594 370.68 8.90736V6.12336H365.496ZM366.84 6.12336V8.90736C366.84 16.8274 370.632 24.2194 378.888 26.9554L382.008 21.9634C375 19.6114 371.976 14.0914 371.976 8.90736V6.12336H366.84ZM356.712 3.29136V8.33136H380.616V3.29136H356.712ZM428.036 0.267359V25.8994H434.468V0.267359H428.036ZM432.596 10.7794V15.9634H440.276V10.7794H432.596ZM419.876 26.7154C410.708 26.7154 404.804 30.1234 404.804 35.7394C404.804 41.4034 410.708 44.7634 419.876 44.7634C428.996 44.7634 434.9 41.4034 434.9 35.7394C434.9 30.1234 428.996 26.7154 419.876 26.7154ZM419.876 31.8034C425.492 31.8034 428.612 33.0514 428.612 35.7394C428.612 38.3794 425.492 39.6754 419.876 39.6754C414.212 39.6754 411.092 38.3794 411.092 35.7394C411.092 33.0514 414.212 31.8034 419.876 31.8034ZM400.916 18.5074V23.5954H404.612C414.644 23.5954 419.78 23.4034 425.204 22.2034L424.58 17.1154C419.252 18.2674 414.404 18.5074 404.612 18.5074H400.916ZM400.916 3.24336V21.9634H407.252V8.33136H420.788V3.24336H400.916Z" fill="#FF7E36"/>
</svg>
