<svg width="143" height="76" viewBox="0 0 143 76" fill="none" xmlns="http://www.w3.org/2000/svg">
<g filter="url(#filter0_d_1326_5249)">
<rect x="10" y="6" width="123" height="44" rx="10" fill="white"/>
</g>
<g filter="url(#filter1_d_1326_5249)">
<path d="M63.5 62L57.0048 48.5L69.9952 48.5L63.5 62Z" fill="white"/>
</g>
<path d="M63.8974 25.922C63.8974 26.626 63.7581 27.242 63.4794 27.77C63.2154 28.2833 62.8341 28.7013 62.3354 29.024C61.8367 29.3467 61.2647 29.5813 60.6194 29.728V29.816C61.8807 29.9627 62.8194 30.3587 63.4354 31.004C64.0661 31.6347 64.3814 32.4707 64.3814 33.512C64.3814 34.4213 64.1614 35.2353 63.7214 35.954C63.2961 36.658 62.6287 37.2153 61.7194 37.626C60.8247 38.022 59.6734 38.22 58.2654 38.22C57.4294 38.22 56.6521 38.154 55.9334 38.022C55.2147 37.89 54.5327 37.67 53.8874 37.362V35.25C54.5474 35.5873 55.2514 35.844 55.9994 36.02C56.7621 36.196 57.4881 36.284 58.1774 36.284C59.5121 36.284 60.4727 36.0347 61.0594 35.536C61.6461 35.0227 61.9394 34.3113 61.9394 33.402C61.9394 32.8153 61.7854 32.3387 61.4774 31.972C61.1694 31.5907 60.7001 31.312 60.0694 31.136C59.4387 30.9453 58.6541 30.85 57.7154 30.85H56.2854V28.936H57.7374C58.6321 28.936 59.3581 28.826 59.9154 28.606C60.4727 28.3713 60.8834 28.0487 61.1474 27.638C61.4114 27.2273 61.5434 26.758 61.5434 26.23C61.5434 25.526 61.3087 24.9833 60.8394 24.602C60.3847 24.206 59.7247 24.008 58.8594 24.008C58.3314 24.008 57.8401 24.0667 57.3854 24.184C56.9454 24.3013 56.5421 24.4553 56.1754 24.646C55.8087 24.8367 55.4494 25.0493 55.0974 25.284L53.9534 23.678C54.3494 23.3847 54.7894 23.1133 55.2734 22.864C55.7721 22.6147 56.3221 22.424 56.9234 22.292C57.5394 22.1453 58.2067 22.072 58.9254 22.072C60.5534 22.072 61.7854 22.4313 62.6214 23.15C63.4721 23.854 63.8974 24.778 63.8974 25.922ZM66.6093 31.312C66.6093 30.4027 66.6679 29.508 66.7853 28.628C66.9173 27.748 67.1373 26.9193 67.4453 26.142C67.7679 25.35 68.2079 24.6533 68.7652 24.052C69.3226 23.436 70.0266 22.9593 70.8773 22.622C71.7426 22.27 72.7839 22.094 74.0013 22.094C74.3093 22.094 74.6539 22.1087 75.0353 22.138C75.4313 22.1527 75.7539 22.1967 76.0033 22.27V24.228C75.7246 24.14 75.4166 24.074 75.0793 24.03C74.7566 23.986 74.4339 23.964 74.1113 23.964C73.0993 23.964 72.2633 24.118 71.6033 24.426C70.9433 24.734 70.4226 25.1593 70.0413 25.702C69.6599 26.2447 69.3813 26.8753 69.2053 27.594C69.0293 28.298 68.9193 29.068 68.8753 29.904H69.0073C69.2273 29.552 69.4986 29.2367 69.8213 28.958C70.1439 28.6793 70.5399 28.4593 71.0093 28.298C71.4786 28.1367 72.0213 28.056 72.6373 28.056C73.5466 28.056 74.3386 28.2467 75.0133 28.628C75.7026 29.0093 76.2306 29.5593 76.5973 30.278C76.9786 30.9967 77.1693 31.8693 77.1693 32.896C77.1693 33.996 76.9566 34.9493 76.5312 35.756C76.1206 36.548 75.5339 37.1567 74.7713 37.582C74.0233 38.0073 73.1213 38.22 72.0653 38.22C71.3026 38.22 70.5913 38.0807 69.9313 37.802C69.2713 37.5233 68.6919 37.098 68.1933 36.526C67.6946 35.954 67.3059 35.2353 67.0273 34.37C66.7486 33.49 66.6093 32.4707 66.6093 31.312ZM72.0433 36.284C72.8793 36.284 73.5613 36.0127 74.0893 35.47C74.6173 34.9127 74.8813 34.0547 74.8813 32.896C74.8813 31.972 74.6466 31.2387 74.1773 30.696C73.7226 30.1533 73.0333 29.882 72.1093 29.882C71.4786 29.882 70.9286 30.014 70.4593 30.278C69.9899 30.542 69.6233 30.8793 69.3593 31.29C69.0953 31.7007 68.9633 32.1187 68.9633 32.544C68.9633 32.9987 69.0293 33.446 69.1613 33.886C69.2933 34.326 69.4839 34.7293 69.7333 35.096C69.9973 35.4627 70.3199 35.756 70.7013 35.976C71.0826 36.1813 71.5299 36.284 72.0433 36.284ZM79.6171 36.702C79.6171 36.13 79.7638 35.7267 80.0571 35.492C80.3504 35.2573 80.7024 35.14 81.1131 35.14C81.5384 35.14 81.8978 35.2573 82.1911 35.492C82.4844 35.7267 82.6311 36.13 82.6311 36.702C82.6311 37.274 82.4844 37.6847 82.1911 37.934C81.8978 38.1833 81.5384 38.308 81.1131 38.308C80.7024 38.308 80.3504 38.1833 80.0571 37.934C79.7638 37.6847 79.6171 37.274 79.6171 36.702ZM90.3407 28.254C91.3821 28.254 92.2914 28.4373 93.0687 28.804C93.8461 29.1707 94.4474 29.6987 94.8727 30.388C95.3127 31.0773 95.5327 31.9207 95.5327 32.918C95.5327 34.018 95.2981 34.964 94.8287 35.756C94.3594 36.548 93.6774 37.1567 92.7827 37.582C91.9027 38.0073 90.8247 38.22 89.5487 38.22C88.7421 38.22 87.9794 38.1467 87.2607 38C86.5421 37.8533 85.9334 37.6407 85.4347 37.362V35.228C85.9627 35.536 86.6007 35.7853 87.3487 35.976C88.1114 36.1667 88.8374 36.262 89.5267 36.262C90.2747 36.262 90.9127 36.152 91.4407 35.932C91.9834 35.6973 92.4014 35.3527 92.6947 34.898C93.0027 34.4287 93.1567 33.842 93.1567 33.138C93.1567 32.1847 92.8561 31.4587 92.2547 30.96C91.6681 30.4467 90.7367 30.19 89.4607 30.19C89.0501 30.19 88.5881 30.2267 88.0747 30.3C87.5761 30.3733 87.1727 30.4467 86.8647 30.52L85.7867 29.882L86.3807 22.292H94.4547V24.36H88.4047L88.0527 28.474C88.3021 28.43 88.6174 28.386 88.9987 28.342C89.3801 28.2833 89.8274 28.254 90.3407 28.254ZM101.435 29.024C100.716 29.024 100.085 28.8773 99.5426 28.584C99.0146 28.2907 98.5966 27.8873 98.2886 27.374C97.9806 26.846 97.8266 26.2373 97.8266 25.548C97.8266 24.8733 97.9732 24.272 98.2666 23.744C98.5746 23.216 98.9926 22.8053 99.5206 22.512C100.063 22.2187 100.701 22.072 101.435 22.072C102.139 22.072 102.762 22.2187 103.305 22.512C103.847 22.8053 104.265 23.216 104.559 23.744C104.867 24.2573 105.021 24.8587 105.021 25.548C105.021 26.2373 104.867 26.846 104.559 27.374C104.265 27.8873 103.847 28.2907 103.305 28.584C102.762 28.8773 102.139 29.024 101.435 29.024ZM101.457 27.506C102.087 27.506 102.564 27.33 102.887 26.978C103.224 26.6113 103.393 26.1347 103.393 25.548C103.393 25.152 103.312 24.8073 103.151 24.514C103.004 24.206 102.784 23.9713 102.491 23.81C102.212 23.6487 101.867 23.568 101.457 23.568C100.811 23.568 100.32 23.7513 99.9826 24.118C99.6452 24.47 99.4766 24.9467 99.4766 25.548C99.4766 26.1347 99.6452 26.6113 99.9826 26.978C100.32 27.33 100.811 27.506 101.457 27.506ZM114.937 24.118C114.159 24.118 113.463 24.2573 112.847 24.536C112.231 24.8 111.703 25.196 111.263 25.724C110.837 26.252 110.507 26.89 110.273 27.638C110.053 28.386 109.943 29.2293 109.943 30.168C109.943 31.4 110.126 32.4707 110.493 33.38C110.859 34.2747 111.409 34.964 112.143 35.448C112.876 35.932 113.8 36.174 114.915 36.174C115.589 36.174 116.235 36.1153 116.851 35.998C117.481 35.866 118.119 35.6973 118.765 35.492V37.538C118.149 37.7727 117.518 37.9413 116.873 38.044C116.227 38.1613 115.479 38.22 114.629 38.22C113.03 38.22 111.695 37.89 110.625 37.23C109.569 36.57 108.777 35.6313 108.249 34.414C107.721 33.1967 107.457 31.774 107.457 30.146C107.457 28.958 107.618 27.8727 107.941 26.89C108.278 25.8927 108.762 25.0347 109.393 24.316C110.023 23.5973 110.801 23.0473 111.725 22.666C112.663 22.27 113.741 22.072 114.959 22.072C115.751 22.072 116.528 22.16 117.291 22.336C118.053 22.4973 118.743 22.732 119.359 23.04L118.479 25.02C117.965 24.7853 117.408 24.58 116.807 24.404C116.22 24.2133 115.597 24.118 114.937 24.118Z" fill="#5A97F2"/>
<path d="M32.3317 19.1211C30.3967 19.1186 28.4999 19.67 26.8581 20.7123C25.2162 21.7546 23.8954 23.2459 23.0463 25.0159C22.1973 26.7858 21.8543 28.763 22.0565 30.7219C22.2587 32.6808 22.9979 34.5424 24.1898 36.094L24.5107 36.4988C24.6712 36.6906 24.8387 36.8823 25.0131 37.0598C27.0086 39.2264 29.5272 40.8229 32.3177 41.6901C35.1063 40.823 37.6226 39.2264 39.6154 37.0598C39.7898 36.8823 39.9572 36.6906 40.1177 36.4988L40.4456 36.094C41.6347 34.5416 42.3716 32.6805 42.5723 30.7226C42.773 28.7646 42.4296 26.7888 41.5811 25.0198C40.7325 23.251 39.413 21.7602 37.7728 20.7173C36.1326 19.6744 34.2376 19.1213 32.3037 19.1211H32.3317ZM32.3317 33.6581C31.5506 33.6581 30.7872 33.4224 30.1378 32.9808C29.4884 32.5391 28.9823 31.9113 28.6834 31.1768C28.3845 30.4423 28.3063 29.6342 28.4587 28.8545C28.6111 28.0747 28.9872 27.3585 29.5394 26.7964C30.0917 26.2342 30.7953 25.8515 31.5613 25.6963C32.3273 25.5413 33.1212 25.6208 33.8428 25.9251C34.5643 26.2293 35.1811 26.7445 35.615 27.4055C36.0489 28.0665 36.2805 28.8436 36.2805 29.6386C36.2805 30.7047 35.8645 31.7271 35.1239 32.4809C34.3834 33.2347 33.3789 33.6581 32.3317 33.6581Z" fill="#FF7E36"/>
<path d="M35.6938 18.9005C36.054 18.8129 36.3704 18.5945 36.5837 18.2863C36.797 17.9781 36.8925 17.6013 36.8522 17.2265C36.812 16.8518 36.6388 16.5048 36.3652 16.2508C36.0915 15.9968 35.7362 15.8531 35.3659 15.8468C35.1393 15.8482 34.9156 15.8991 34.7101 15.9959C34.6018 15.4337 34.305 14.9272 33.8704 14.5631C33.4357 14.1991 32.8904 14 32.3275 14C31.7646 14 31.2192 14.1991 30.7847 14.5631C30.3501 14.9272 30.0532 15.4337 29.945 15.9959C29.7394 15.8991 29.5157 15.8482 29.2891 15.8468C28.9098 15.8383 28.5412 15.975 28.2562 16.23C27.9712 16.485 27.7907 16.8395 27.7503 17.2236C27.7099 17.6076 27.8127 17.993 28.0383 18.3036C28.2638 18.6142 28.5957 18.8272 28.9682 18.9005C31.1452 18.1243 33.5167 18.1243 35.6938 18.9005Z" fill="#00B493"/>
<defs>
<filter id="filter0_d_1326_5249" x="0" y="0" width="143" height="64" filterUnits="userSpaceOnUse" color-interpolation-filters="sRGB">
<feFlood flood-opacity="0" result="BackgroundImageFix"/>
<feColorMatrix in="SourceAlpha" type="matrix" values="0 0 0 0 0 0 0 0 0 0 0 0 0 0 0 0 0 0 127 0" result="hardAlpha"/>
<feOffset dy="4"/>
<feGaussianBlur stdDeviation="5"/>
<feComposite in2="hardAlpha" operator="out"/>
<feColorMatrix type="matrix" values="0 0 0 0 0 0 0 0 0 0 0 0 0 0 0 0 0 0 0.15 0"/>
<feBlend mode="normal" in2="BackgroundImageFix" result="effect1_dropShadow_1326_5249"/>
<feBlend mode="normal" in="SourceGraphic" in2="effect1_dropShadow_1326_5249" result="shape"/>
</filter>
<filter id="filter1_d_1326_5249" x="47.0049" y="42.5" width="32.9902" height="33.5" filterUnits="userSpaceOnUse" color-interpolation-filters="sRGB">
<feFlood flood-opacity="0" result="BackgroundImageFix"/>
<feColorMatrix in="SourceAlpha" type="matrix" values="0 0 0 0 0 0 0 0 0 0 0 0 0 0 0 0 0 0 127 0" result="hardAlpha"/>
<feOffset dy="4"/>
<feGaussianBlur stdDeviation="5"/>
<feComposite in2="hardAlpha" operator="out"/>
<feColorMatrix type="matrix" values="0 0 0 0 0 0 0 0 0 0 0 0 0 0 0 0 0 0 0.15 0"/>
<feBlend mode="normal" in2="BackgroundImageFix" result="effect1_dropShadow_1326_5249"/>
<feBlend mode="normal" in="SourceGraphic" in2="effect1_dropShadow_1326_5249" result="shape"/>
</filter>
</defs>
</svg>
