<svg width="130" height="75" viewBox="0 0 130 75" fill="none" xmlns="http://www.w3.org/2000/svg">
<g filter="url(#filter0_d_1326_5251)">
<rect x="10" y="6" width="110" height="44" rx="10" fill="white"/>
</g>
<g filter="url(#filter1_d_1326_5251)">
<path d="M91 61L84.9378 48.25L97.0622 48.25L91 61Z" fill="white"/>
</g>
<path d="M62.0141 22.072C62.9381 22.072 63.7595 22.2187 64.4781 22.512C65.1968 22.7907 65.7615 23.2087 66.1721 23.766C66.5975 24.3233 66.8101 25.02 66.8101 25.856C66.8101 26.4867 66.6781 27.0367 66.4141 27.506C66.1501 27.9753 65.7981 28.3933 65.3581 28.76C64.9181 29.112 64.4268 29.42 63.8841 29.684C64.5001 29.992 65.0648 30.344 65.5781 30.74C66.1061 31.1213 66.5241 31.5687 66.8321 32.082C67.1548 32.5953 67.3161 33.2113 67.3161 33.93C67.3161 34.81 67.0961 35.5727 66.6561 36.218C66.2308 36.8487 65.6221 37.34 64.8301 37.692C64.0381 38.044 63.1141 38.22 62.0581 38.22C60.9288 38.22 59.9608 38.0513 59.1541 37.714C58.3621 37.3767 57.7608 36.9 57.3501 36.284C56.9395 35.6533 56.7341 34.8907 56.7341 33.996C56.7341 33.2773 56.8808 32.654 57.1741 32.126C57.4675 31.598 57.8561 31.1433 58.3401 30.762C58.8241 30.3807 59.3521 30.058 59.9241 29.794C59.4255 29.5007 58.9708 29.1707 58.5601 28.804C58.1495 28.4227 57.8268 27.99 57.5921 27.506C57.3575 27.022 57.2401 26.4647 57.2401 25.834C57.2401 25.0127 57.4528 24.3307 57.8781 23.788C58.3035 23.2307 58.8755 22.8053 59.5941 22.512C60.3275 22.2187 61.1341 22.072 62.0141 22.072ZM58.9781 33.952C58.9781 34.6707 59.2275 35.2647 59.7261 35.734C60.2248 36.1887 60.9875 36.416 62.0141 36.416C62.6888 36.416 63.2461 36.3133 63.6861 36.108C64.1408 35.888 64.4855 35.5947 64.7201 35.228C64.9548 34.8467 65.0721 34.414 65.0721 33.93C65.0721 33.446 64.9401 33.0207 64.6761 32.654C64.4268 32.2873 64.0748 31.9647 63.6201 31.686C63.1801 31.3927 62.6668 31.1287 62.0801 30.894L61.7501 30.762C61.1488 31.0113 60.6428 31.29 60.2321 31.598C59.8215 31.906 59.5061 32.2507 59.2861 32.632C59.0808 33.0133 58.9781 33.4533 58.9781 33.952ZM61.9921 23.898C61.2735 23.898 60.6721 24.074 60.1881 24.426C59.7188 24.778 59.4841 25.2913 59.4841 25.966C59.4841 26.45 59.6015 26.8607 59.8361 27.198C60.0708 27.5353 60.3861 27.8287 60.7821 28.078C61.1781 28.3127 61.6108 28.54 62.0801 28.76C62.5495 28.5547 62.9675 28.3347 63.3341 28.1C63.7008 27.8507 63.9941 27.5573 64.2141 27.22C64.4341 26.868 64.5441 26.45 64.5441 25.966C64.5441 25.2913 64.3095 24.778 63.8401 24.426C63.3708 24.074 62.7548 23.898 61.9921 23.898ZM74.604 22.072C75.528 22.072 76.3493 22.2187 77.068 22.512C77.7867 22.7907 78.3513 23.2087 78.762 23.766C79.1873 24.3233 79.4 25.02 79.4 25.856C79.4 26.4867 79.268 27.0367 79.004 27.506C78.74 27.9753 78.388 28.3933 77.948 28.76C77.508 29.112 77.0167 29.42 76.474 29.684C77.09 29.992 77.6547 30.344 78.168 30.74C78.696 31.1213 79.114 31.5687 79.422 32.082C79.7447 32.5953 79.906 33.2113 79.906 33.93C79.906 34.81 79.686 35.5727 79.246 36.218C78.8207 36.8487 78.212 37.34 77.42 37.692C76.628 38.044 75.704 38.22 74.648 38.22C73.5187 38.22 72.5507 38.0513 71.744 37.714C70.952 37.3767 70.3507 36.9 69.94 36.284C69.5293 35.6533 69.324 34.8907 69.324 33.996C69.324 33.2773 69.4707 32.654 69.764 32.126C70.0573 31.598 70.446 31.1433 70.93 30.762C71.414 30.3807 71.942 30.058 72.514 29.794C72.0153 29.5007 71.5607 29.1707 71.15 28.804C70.7393 28.4227 70.4167 27.99 70.182 27.506C69.9473 27.022 69.83 26.4647 69.83 25.834C69.83 25.0127 70.0427 24.3307 70.468 23.788C70.8933 23.2307 71.4653 22.8053 72.184 22.512C72.9173 22.2187 73.724 22.072 74.604 22.072ZM71.568 33.952C71.568 34.6707 71.8173 35.2647 72.316 35.734C72.8147 36.1887 73.5773 36.416 74.604 36.416C75.2787 36.416 75.836 36.3133 76.276 36.108C76.7307 35.888 77.0753 35.5947 77.31 35.228C77.5447 34.8467 77.662 34.414 77.662 33.93C77.662 33.446 77.53 33.0207 77.266 32.654C77.0167 32.2873 76.6647 31.9647 76.21 31.686C75.77 31.3927 75.2567 31.1287 74.67 30.894L74.34 30.762C73.7387 31.0113 73.2327 31.29 72.822 31.598C72.4113 31.906 72.096 32.2507 71.876 32.632C71.6707 33.0133 71.568 33.4533 71.568 33.952ZM74.582 23.898C73.8633 23.898 73.262 24.074 72.778 24.426C72.3087 24.778 72.074 25.2913 72.074 25.966C72.074 26.45 72.1913 26.8607 72.426 27.198C72.6607 27.5353 72.976 27.8287 73.372 28.078C73.768 28.3127 74.2007 28.54 74.67 28.76C75.1393 28.5547 75.5573 28.3347 75.924 28.1C76.2907 27.8507 76.584 27.5573 76.804 27.22C77.024 26.868 77.134 26.45 77.134 25.966C77.134 25.2913 76.8993 24.778 76.43 24.426C75.9607 24.074 75.3447 23.898 74.582 23.898ZM85.6318 29.024C84.9132 29.024 84.2825 28.8773 83.7398 28.584C83.2118 28.2907 82.7938 27.8873 82.4858 27.374C82.1778 26.846 82.0238 26.2373 82.0238 25.548C82.0238 24.8733 82.1705 24.272 82.4638 23.744C82.7718 23.216 83.1898 22.8053 83.7178 22.512C84.2605 22.2187 84.8985 22.072 85.6318 22.072C86.3358 22.072 86.9592 22.2187 87.5018 22.512C88.0445 22.8053 88.4625 23.216 88.7558 23.744C89.0638 24.2573 89.2178 24.8587 89.2178 25.548C89.2178 26.2373 89.0638 26.846 88.7558 27.374C88.4625 27.8873 88.0445 28.2907 87.5018 28.584C86.9592 28.8773 86.3358 29.024 85.6318 29.024ZM85.6538 27.506C86.2845 27.506 86.7612 27.33 87.0838 26.978C87.4212 26.6113 87.5898 26.1347 87.5898 25.548C87.5898 25.152 87.5092 24.8073 87.3478 24.514C87.2012 24.206 86.9812 23.9713 86.6878 23.81C86.4092 23.6487 86.0645 23.568 85.6538 23.568C85.0085 23.568 84.5172 23.7513 84.1798 24.118C83.8425 24.47 83.6738 24.9467 83.6738 25.548C83.6738 26.1347 83.8425 26.6113 84.1798 26.978C84.5172 27.33 85.0085 27.506 85.6538 27.506ZM99.134 24.118C98.3567 24.118 97.66 24.2573 97.044 24.536C96.428 24.8 95.9 25.196 95.46 25.724C95.0347 26.252 94.7047 26.89 94.47 27.638C94.25 28.386 94.14 29.2293 94.14 30.168C94.14 31.4 94.3233 32.4707 94.69 33.38C95.0567 34.2747 95.6067 34.964 96.34 35.448C97.0733 35.932 97.9973 36.174 99.112 36.174C99.7867 36.174 100.432 36.1153 101.048 35.998C101.679 35.866 102.317 35.6973 102.962 35.492V37.538C102.346 37.7727 101.715 37.9413 101.07 38.044C100.425 38.1613 99.6767 38.22 98.826 38.22C97.2273 38.22 95.8927 37.89 94.822 37.23C93.766 36.57 92.974 35.6313 92.446 34.414C91.918 33.1967 91.654 31.774 91.654 30.146C91.654 28.958 91.8153 27.8727 92.138 26.89C92.4753 25.8927 92.9593 25.0347 93.59 24.316C94.2207 23.5973 94.998 23.0473 95.922 22.666C96.8607 22.27 97.9387 22.072 99.156 22.072C99.948 22.072 100.725 22.16 101.488 22.336C102.251 22.4973 102.94 22.732 103.556 23.04L102.676 25.02C102.163 24.7853 101.605 24.58 101.004 24.404C100.417 24.2133 99.794 24.118 99.134 24.118Z" fill="#CA5828"/>
<path d="M34.3863 19.2774C32.4514 19.2749 30.5546 19.8262 28.9128 20.8686C27.2709 21.9109 25.95 23.4022 25.101 25.1721C24.252 26.942 23.909 28.9193 24.1112 30.8782C24.3134 32.8371 25.0526 34.6986 26.2445 36.2503L26.5654 36.655C26.7259 36.8468 26.8933 37.0385 27.0678 37.2161C29.0633 39.3827 31.5819 40.9792 34.3724 41.8463C37.161 40.9792 39.6773 39.3827 41.67 37.2161C41.8445 37.0385 42.0119 36.8468 42.1724 36.655L42.5003 36.2503C43.6894 34.6978 44.4263 32.8367 44.627 30.8788C44.8277 28.9209 44.4843 26.945 43.6357 25.1761C42.7872 23.4072 41.4677 21.9164 39.8275 20.8735C38.1873 19.8306 36.2923 19.2776 34.3584 19.2774H34.3863ZM34.3863 33.8144C33.6053 33.8144 32.8419 33.5787 32.1925 33.137C31.5431 32.6954 31.037 32.0675 30.7381 31.3331C30.4392 30.5986 30.361 29.7904 30.5134 29.0107C30.6658 28.231 31.0419 27.5148 31.5941 26.9527C32.1464 26.3905 32.85 26.0077 33.616 25.8526C34.382 25.6975 35.1759 25.7771 35.8975 26.0813C36.619 26.3855 37.2358 26.9007 37.6697 27.5618C38.1036 28.2227 38.3352 28.9999 38.3352 29.7949C38.3352 30.8609 37.9191 31.8833 37.1786 32.6371C36.438 33.3909 35.4336 33.8144 34.3863 33.8144Z" fill="#FF7E36"/>
<path d="M37.75 19.0568C38.1102 18.9691 38.4266 18.7508 38.6399 18.4426C38.8532 18.1344 38.9486 17.7575 38.9084 17.3828C38.8682 17.008 38.695 16.6611 38.4213 16.4071C38.1477 16.1531 37.7923 16.0094 37.422 16.0031C37.1955 16.0044 36.9718 16.0553 36.7662 16.1522C36.6579 15.59 36.3611 15.0835 35.9265 14.7194C35.4919 14.3553 34.9465 14.1562 34.3837 14.1562C33.8208 14.1562 33.2754 14.3553 32.8409 14.7194C32.4062 15.0835 32.1094 15.59 32.0011 16.1522C31.7955 16.0553 31.5719 16.0044 31.3453 16.0031C30.966 15.9945 30.5973 16.1313 30.3123 16.3862C30.0273 16.6412 29.8468 16.9958 29.8064 17.3798C29.7661 17.7638 29.8689 18.1493 30.0944 18.4598C30.32 18.7704 30.6519 18.9834 31.0244 19.0568C33.2014 18.2805 35.5729 18.2805 37.75 19.0568Z" fill="#00B493"/>
<defs>
<filter id="filter0_d_1326_5251" x="0" y="0" width="130" height="64" filterUnits="userSpaceOnUse" color-interpolation-filters="sRGB">
<feFlood flood-opacity="0" result="BackgroundImageFix"/>
<feColorMatrix in="SourceAlpha" type="matrix" values="0 0 0 0 0 0 0 0 0 0 0 0 0 0 0 0 0 0 127 0" result="hardAlpha"/>
<feOffset dy="4"/>
<feGaussianBlur stdDeviation="5"/>
<feComposite in2="hardAlpha" operator="out"/>
<feColorMatrix type="matrix" values="0 0 0 0 0 0 0 0 0 0 0 0 0 0 0 0 0 0 0.15 0"/>
<feBlend mode="normal" in2="BackgroundImageFix" result="effect1_dropShadow_1326_5251"/>
<feBlend mode="normal" in="SourceGraphic" in2="effect1_dropShadow_1326_5251" result="shape"/>
</filter>
<filter id="filter1_d_1326_5251" x="74.9375" y="42.25" width="32.125" height="32.75" filterUnits="userSpaceOnUse" color-interpolation-filters="sRGB">
<feFlood flood-opacity="0" result="BackgroundImageFix"/>
<feColorMatrix in="SourceAlpha" type="matrix" values="0 0 0 0 0 0 0 0 0 0 0 0 0 0 0 0 0 0 127 0" result="hardAlpha"/>
<feOffset dy="4"/>
<feGaussianBlur stdDeviation="5"/>
<feComposite in2="hardAlpha" operator="out"/>
<feColorMatrix type="matrix" values="0 0 0 0 0 0 0 0 0 0 0 0 0 0 0 0 0 0 0.15 0"/>
<feBlend mode="normal" in2="BackgroundImageFix" result="effect1_dropShadow_1326_5251"/>
<feBlend mode="normal" in="SourceGraphic" in2="effect1_dropShadow_1326_5251" result="shape"/>
</filter>
</defs>
</svg>
