<svg width="176" height="93" viewBox="0 0 176 93" fill="none" xmlns="http://www.w3.org/2000/svg">
<g filter="url(#filter0_d_1326_5264)">
<rect x="24" y="18" width="128" height="45" rx="10" fill="white"/>
</g>
<g filter="url(#filter1_d_1326_5264)">
<path d="M51.5 76L44.1388 61.75L58.8612 61.75L51.5 76Z" fill="white"/>
</g>
<path d="M74.1454 41.254C75.1867 41.254 76.0961 41.4373 76.8734 41.804C77.6507 42.1707 78.2521 42.6987 78.6774 43.388C79.1174 44.0773 79.3374 44.9207 79.3374 45.918C79.3374 47.018 79.1027 47.964 78.6334 48.756C78.1641 49.548 77.4821 50.1567 76.5874 50.582C75.7074 51.0073 74.6294 51.22 73.3534 51.22C72.5467 51.22 71.7841 51.1467 71.0654 51C70.3467 50.8533 69.7381 50.6407 69.2394 50.362V48.228C69.7674 48.536 70.4054 48.7853 71.1534 48.976C71.9161 49.1667 72.6421 49.262 73.3314 49.262C74.0794 49.262 74.7174 49.152 75.2454 48.932C75.7881 48.6973 76.2061 48.3527 76.4994 47.898C76.8074 47.4287 76.9614 46.842 76.9614 46.138C76.9614 45.1847 76.6607 44.4587 76.0594 43.96C75.4727 43.4467 74.5414 43.19 73.2654 43.19C72.8547 43.19 72.3927 43.2267 71.8794 43.3C71.3807 43.3733 70.9774 43.4467 70.6694 43.52L69.5914 42.882L70.1854 35.292H78.2594V37.36H72.2094L71.8574 41.474C72.1067 41.43 72.4221 41.386 72.8034 41.342C73.1847 41.2833 73.6321 41.254 74.1454 41.254ZM92.1253 43.124C92.1253 44.4 92.0226 45.5367 91.8173 46.534C91.6266 47.5313 91.3186 48.382 90.8933 49.086C90.4826 49.7753 89.9326 50.3033 89.2433 50.67C88.5686 51.0367 87.7546 51.22 86.8013 51.22C85.5986 51.22 84.6086 50.8973 83.8313 50.252C83.0539 49.6067 82.4746 48.6827 82.0933 47.48C81.7119 46.2627 81.5213 44.8107 81.5213 43.124C81.5213 41.4227 81.6899 39.9707 82.0273 38.768C82.3793 37.5653 82.9439 36.6487 83.7213 36.018C84.4986 35.3727 85.5253 35.05 86.8013 35.05C88.0039 35.05 88.9939 35.3727 89.7713 36.018C90.5633 36.6487 91.1499 37.5653 91.5312 38.768C91.9273 39.9707 92.1253 41.4227 92.1253 43.124ZM83.8533 43.124C83.8533 44.488 83.9486 45.6247 84.1393 46.534C84.3299 47.4433 84.6379 48.1253 85.0633 48.58C85.5033 49.0347 86.0826 49.262 86.8013 49.262C87.5199 49.262 88.0919 49.042 88.5173 48.602C88.9573 48.1473 89.2726 47.4653 89.4633 46.556C89.6686 45.632 89.7713 44.488 89.7713 43.124C89.7713 41.76 89.6686 40.6307 89.4633 39.736C89.2726 38.8267 88.9573 38.1447 88.5173 37.69C88.0919 37.2353 87.5199 37.008 86.8013 37.008C86.0826 37.008 85.5033 37.2353 85.0633 37.69C84.6379 38.1447 84.3299 38.8267 84.1393 39.736C83.9486 40.6307 83.8533 41.76 83.8533 43.124ZM94.6171 49.702C94.6171 49.13 94.7638 48.7267 95.0571 48.492C95.3504 48.2573 95.7024 48.14 96.1131 48.14C96.5384 48.14 96.8978 48.2573 97.1911 48.492C97.4844 48.7267 97.6311 49.13 97.6311 49.702C97.6311 50.274 97.4844 50.6847 97.1911 50.934C96.8978 51.1833 96.5384 51.308 96.1131 51.308C95.7024 51.308 95.3504 51.1833 95.0571 50.934C94.7638 50.6847 94.6171 50.274 94.6171 49.702ZM105.341 41.254C106.382 41.254 107.291 41.4373 108.069 41.804C108.846 42.1707 109.447 42.6987 109.873 43.388C110.313 44.0773 110.533 44.9207 110.533 45.918C110.533 47.018 110.298 47.964 109.829 48.756C109.359 49.548 108.677 50.1567 107.783 50.582C106.903 51.0073 105.825 51.22 104.549 51.22C103.742 51.22 102.979 51.1467 102.261 51C101.542 50.8533 100.933 50.6407 100.435 50.362V48.228C100.963 48.536 101.601 48.7853 102.349 48.976C103.111 49.1667 103.837 49.262 104.527 49.262C105.275 49.262 105.913 49.152 106.441 48.932C106.983 48.6973 107.401 48.3527 107.695 47.898C108.003 47.4287 108.157 46.842 108.157 46.138C108.157 45.1847 107.856 44.4587 107.255 43.96C106.668 43.4467 105.737 43.19 104.461 43.19C104.05 43.19 103.588 43.2267 103.075 43.3C102.576 43.3733 102.173 43.4467 101.865 43.52L100.787 42.882L101.381 35.292H109.455V37.36H103.405L103.053 41.474C103.302 41.43 103.617 41.386 103.999 41.342C104.38 41.2833 104.827 41.254 105.341 41.254ZM116.435 42.024C115.716 42.024 115.085 41.8773 114.543 41.584C114.015 41.2907 113.597 40.8873 113.289 40.374C112.981 39.846 112.827 39.2373 112.827 38.548C112.827 37.8733 112.973 37.272 113.267 36.744C113.575 36.216 113.993 35.8053 114.521 35.512C115.063 35.2187 115.701 35.072 116.435 35.072C117.139 35.072 117.762 35.2187 118.305 35.512C118.847 35.8053 119.265 36.216 119.559 36.744C119.867 37.2573 120.021 37.8587 120.021 38.548C120.021 39.2373 119.867 39.846 119.559 40.374C119.265 40.8873 118.847 41.2907 118.305 41.584C117.762 41.8773 117.139 42.024 116.435 42.024ZM116.457 40.506C117.087 40.506 117.564 40.33 117.887 39.978C118.224 39.6113 118.393 39.1347 118.393 38.548C118.393 38.152 118.312 37.8073 118.151 37.514C118.004 37.206 117.784 36.9713 117.491 36.81C117.212 36.6487 116.867 36.568 116.457 36.568C115.811 36.568 115.32 36.7513 114.983 37.118C114.645 37.47 114.477 37.9467 114.477 38.548C114.477 39.1347 114.645 39.6113 114.983 39.978C115.32 40.33 115.811 40.506 116.457 40.506ZM129.937 37.118C129.159 37.118 128.463 37.2573 127.847 37.536C127.231 37.8 126.703 38.196 126.263 38.724C125.837 39.252 125.507 39.89 125.273 40.638C125.053 41.386 124.943 42.2293 124.943 43.168C124.943 44.4 125.126 45.4707 125.493 46.38C125.859 47.2747 126.409 47.964 127.143 48.448C127.876 48.932 128.8 49.174 129.915 49.174C130.589 49.174 131.235 49.1153 131.851 48.998C132.481 48.866 133.119 48.6973 133.765 48.492V50.538C133.149 50.7727 132.518 50.9413 131.873 51.044C131.227 51.1613 130.479 51.22 129.629 51.22C128.03 51.22 126.695 50.89 125.625 50.23C124.569 49.57 123.777 48.6313 123.249 47.414C122.721 46.1967 122.457 44.774 122.457 43.146C122.457 41.958 122.618 40.8727 122.941 39.89C123.278 38.8927 123.762 38.0347 124.393 37.316C125.023 36.5973 125.801 36.0473 126.725 35.666C127.663 35.27 128.741 35.072 129.959 35.072C130.751 35.072 131.528 35.16 132.291 35.336C133.053 35.4973 133.743 35.732 134.359 36.04L133.479 38.02C132.965 37.7853 132.408 37.58 131.807 37.404C131.22 37.2133 130.597 37.118 129.937 37.118Z" fill="#82C795"/>
<path d="M47.7203 31.1211C45.7853 31.1186 43.8886 31.67 42.2467 32.7123C40.6049 33.7546 39.284 35.2459 38.435 37.0159C37.586 38.7858 37.243 40.763 37.4452 42.7219C37.6474 44.6808 38.3866 46.5424 39.5785 48.094L39.8994 48.4988C40.0599 48.6906 40.2273 48.8823 40.4017 49.0598C42.3973 51.2264 44.9159 52.8229 47.7064 53.6901C50.495 52.823 53.0113 51.2264 55.004 49.0598C55.1785 48.8823 55.3459 48.6906 55.5064 48.4988L55.8343 48.094C57.0234 46.5416 57.7603 44.6805 57.961 42.7226C58.1617 40.7646 57.8183 38.7888 56.9697 37.0198C56.1212 35.251 54.8017 33.7602 53.1615 32.7173C51.5213 31.6744 49.6263 31.1213 47.6924 31.1211H47.7203ZM47.7203 45.6581C46.9393 45.6581 46.1758 45.4224 45.5265 44.9808C44.8771 44.5391 44.371 43.9113 44.0721 43.1768C43.7732 42.4423 43.695 41.6342 43.8474 40.8545C43.9998 40.0747 44.3758 39.3585 44.9281 38.7964C45.4804 38.2342 46.1839 37.8515 46.95 37.6963C47.716 37.5413 48.5099 37.6208 49.2315 37.9251C49.953 38.2293 50.5698 38.7445 51.0037 39.4055C51.4376 40.0665 51.6692 40.8436 51.6692 41.6386C51.6692 42.7047 51.2531 43.7271 50.5126 44.4809C49.772 45.2347 48.7676 45.6581 47.7203 45.6581Z" fill="#FF7E36"/>
<path d="M51.0839 30.9005C51.4441 30.8129 51.7605 30.5945 51.9739 30.2863C52.1871 29.9781 52.2826 29.6013 52.2424 29.2265C52.2021 28.8518 52.0289 28.5048 51.7553 28.2508C51.4817 27.9968 51.1263 27.8531 50.756 27.8468C50.5294 27.8482 50.3058 27.8991 50.1002 27.9959C49.9919 27.4337 49.6951 26.9272 49.2605 26.5631C48.8259 26.1991 48.2805 26 47.7177 26C47.1548 26 46.6094 26.1991 46.1748 26.5631C45.7402 26.9272 45.4433 27.4337 45.3351 27.9959C45.1295 27.8991 44.9059 27.8482 44.6793 27.8468C44.3 27.8383 43.9313 27.975 43.6463 28.23C43.3613 28.485 43.1808 28.8395 43.1404 29.2236C43.1001 29.6076 43.2028 29.993 43.4284 30.3036C43.6539 30.6142 43.9858 30.8272 44.3584 30.9005C46.5354 30.1243 48.9069 30.1243 51.0839 30.9005Z" fill="#00B493"/>
<defs>
<filter id="filter0_d_1326_5264" x="0" y="0" width="176" height="93" filterUnits="userSpaceOnUse" color-interpolation-filters="sRGB">
<feFlood flood-opacity="0" result="BackgroundImageFix"/>
<feColorMatrix in="SourceAlpha" type="matrix" values="0 0 0 0 0 0 0 0 0 0 0 0 0 0 0 0 0 0 127 0" result="hardAlpha"/>
<feOffset dy="6"/>
<feGaussianBlur stdDeviation="12"/>
<feComposite in2="hardAlpha" operator="out"/>
<feColorMatrix type="matrix" values="0 0 0 0 0 0 0 0 0 0 0 0 0 0 0 0 0 0 0.19 0"/>
<feBlend mode="normal" in2="BackgroundImageFix" result="effect1_dropShadow_1326_5264"/>
<feBlend mode="normal" in="SourceGraphic" in2="effect1_dropShadow_1326_5264" result="shape"/>
</filter>
<filter id="filter1_d_1326_5264" x="34.1387" y="55.75" width="34.7227" height="34.25" filterUnits="userSpaceOnUse" color-interpolation-filters="sRGB">
<feFlood flood-opacity="0" result="BackgroundImageFix"/>
<feColorMatrix in="SourceAlpha" type="matrix" values="0 0 0 0 0 0 0 0 0 0 0 0 0 0 0 0 0 0 127 0" result="hardAlpha"/>
<feOffset dy="4"/>
<feGaussianBlur stdDeviation="5"/>
<feComposite in2="hardAlpha" operator="out"/>
<feColorMatrix type="matrix" values="0 0 0 0 0 0 0 0 0 0 0 0 0 0 0 0 0 0 0.15 0"/>
<feBlend mode="normal" in2="BackgroundImageFix" result="effect1_dropShadow_1326_5264"/>
<feBlend mode="normal" in="SourceGraphic" in2="effect1_dropShadow_1326_5264" result="shape"/>
</filter>
</defs>
</svg>
