<svg width="24" height="24" viewBox="0 0 24 24" fill="none" xmlns="http://www.w3.org/2000/svg">
<path fill-rule="evenodd" clip-rule="evenodd" d="M11.9997 1.25C9.34874 1.25 7.19971 3.39903 7.19971 6.05V6.0835H6.07252C5.07509 6.0835 4.23013 6.8184 4.09184 7.8062L2.31851 19.4729C2.15007 20.676 3.08435 21.7501 4.29919 21.7501H19.7002C20.915 21.7501 21.8493 20.676 21.6809 19.4729L19.9075 7.8062C19.7692 6.81841 18.9243 6.0835 17.9268 6.0835H16.7997V6.05C16.7997 3.39903 14.6507 1.25 11.9997 1.25ZM15.1997 7.6835V9.04999C15.1997 9.49182 15.5579 9.84999 15.9997 9.84999C16.4415 9.84999 16.7997 9.49182 16.7997 9.04999V7.6835H17.9268C18.1263 7.6835 18.2953 7.83048 18.323 8.02804L20.0963 19.6947C20.13 19.9353 19.9432 20.1501 19.7002 20.1501H4.29919C4.05622 20.1501 3.86937 19.9353 3.90305 19.6947L5.67639 8.02803C5.70405 7.83048 5.87304 7.6835 6.07252 7.6835H7.19971V9.04999C7.19971 9.49182 7.55788 9.84999 7.99971 9.84999C8.44153 9.84999 8.79971 9.49182 8.79971 9.04999V7.6835H15.1997ZM15.1997 6.0835V6.05C15.1997 4.28269 13.767 2.85 11.9997 2.85C10.2324 2.85 8.79971 4.28269 8.79971 6.05V6.0835H15.1997Z" fill="#212124"/>
</svg>
