<svg width="24" height="24" viewBox="0 0 24 24" fill="none" xmlns="http://www.w3.org/2000/svg">
<path fill-rule="evenodd" clip-rule="evenodd" d="M7.19922 13.0002C7.19922 10.3492 9.34825 8.2002 11.9992 8.2002C14.6502 8.2002 16.7992 10.3492 16.7992 13.0002C16.7992 15.6512 14.6502 17.8002 11.9992 17.8002C9.34825 17.8002 7.19922 15.6512 7.19922 13.0002ZM11.9992 9.8002C10.2319 9.8002 8.79922 11.2329 8.79922 13.0002C8.79922 14.7675 10.2319 16.2002 11.9992 16.2002C13.7665 16.2002 15.1992 14.7675 15.1992 13.0002C15.1992 11.2329 13.7665 9.8002 11.9992 9.8002Z" fill="#212124"/>
<path d="M10.9992 5.2002C10.5574 5.2002 10.1992 5.55837 10.1992 6.0002C10.1992 6.44202 10.5574 6.8002 10.9992 6.8002H12.9992C13.441 6.8002 13.7992 6.44202 13.7992 6.0002C13.7992 5.55837 13.441 5.2002 12.9992 5.2002H10.9992Z" fill="#212124"/>
<path fill-rule="evenodd" clip-rule="evenodd" d="M7.83046 2.48455C8.12606 2.28749 8.45923 2.2002 8.79922 2.2002H15.3992C15.9936 2.2002 16.8198 2.50263 17.0617 3.35513L17.7536 5.2002H19.9992C21.541 5.2002 22.7992 6.45837 22.7992 8.0002V18.0002C22.7992 19.542 21.541 20.8002 19.9992 20.8002H3.99922C2.45739 20.8002 1.19922 19.542 1.19922 18.0002V8.0002C1.19922 6.45837 2.45739 5.2002 3.99922 5.2002H6.44482L7.15016 3.3193C7.15998 3.2931 7.17117 3.26744 7.18368 3.24242C7.33113 2.94752 7.53987 2.67828 7.83046 2.48455ZM8.63108 3.92696L7.74828 6.28109C7.63119 6.59334 7.33269 6.8002 6.99922 6.8002H3.99922C3.34105 6.8002 2.79922 7.34202 2.79922 8.0002V18.0002C2.79922 18.6584 3.34105 19.2002 3.99922 19.2002H19.9992C20.6574 19.2002 21.1992 18.6584 21.1992 18.0002V8.0002C21.1992 7.34202 20.6574 6.8002 19.9992 6.8002H17.1992C16.8657 6.8002 16.5672 6.59334 16.4502 6.28109L15.5502 3.88109C15.5433 3.86287 15.5372 3.84441 15.5317 3.82575C15.5225 3.82138 15.5093 3.81617 15.4916 3.81152C15.465 3.80456 15.4334 3.8002 15.3992 3.8002H8.79922C8.7411 3.8002 8.72349 3.81211 8.71843 3.81553C8.71002 3.82114 8.6757 3.84662 8.63108 3.92696Z" fill="#212124"/>
</svg>
