<svg width="24" height="24" viewBox="0 0 24 24" fill="none" xmlns="http://www.w3.org/2000/svg">
<path fill-rule="evenodd" clip-rule="evenodd" d="M16.5649 2.43427C16.2525 2.12185 15.746 2.12185 15.4335 2.43427L2.43353 15.4343C2.2835 15.5843 2.19922 15.7878 2.19922 16V21C2.19922 21.4418 2.55739 21.7999 2.99922 21.7999H7.99922C8.21139 21.7999 8.41488 21.7157 8.5649 21.5656L17.5649 12.5656L21.5649 8.56564C21.8773 8.25322 21.8773 7.74669 21.5649 7.43427L16.5649 2.43427ZM16.9992 10.8686L19.8678 7.99995L15.9992 4.13132L3.79922 16.3313V20.2H7.66785L15.8678 12L13.4335 9.56564C13.1211 9.25322 13.1211 8.74669 13.4335 8.43427C13.746 8.12185 14.2525 8.12185 14.5649 8.43427L16.9992 10.8686Z" fill="#212124"/>
</svg>
