<svg width="19" height="18" viewBox="0 0 19 18" fill="none" xmlns="http://www.w3.org/2000/svg">
<path fill-rule="evenodd" clip-rule="evenodd" d="M12.534 1.82576C12.2997 1.59145 11.9198 1.59145 11.6855 1.82576L1.9355 11.5758C1.82298 11.6883 1.75977 11.8409 1.75977 12V15.75C1.75977 16.0814 2.02839 16.35 2.35977 16.35H6.10977C6.2689 16.35 6.42151 16.2868 6.53403 16.1743L13.284 9.42429L16.284 6.42429C16.5183 6.18997 16.5183 5.81008 16.284 5.57576L12.534 1.82576ZM12.8598 8.1515L15.0112 6.00002L12.1098 3.09855L2.95977 12.2486V15.15H5.86124L12.0112 9.00002L10.1855 7.17429C9.95119 6.93997 9.95119 6.56007 10.1855 6.32576C10.4198 6.09145 10.7997 6.09145 11.034 6.32576L12.8598 8.1515Z" fill="#212124"/>
</svg>
