<svg width="42" height="41" viewBox="0 0 42 41" fill="none" xmlns="http://www.w3.org/2000/svg">
<path d="M20.9994 0.166748C18.2635 0.166748 15.5544 0.705618 13.0268 1.75259C10.4992 2.79956 8.20251 4.33414 6.26796 6.26869C2.36095 10.1757 0.166016 15.4747 0.166016 21.0001C0.166016 30.2084 6.14518 38.0209 14.416 40.7917C15.4577 40.9584 15.791 40.3126 15.791 39.7501V36.2292C10.0202 37.4792 8.79102 33.4376 8.79102 33.4376C7.83268 31.0209 6.47852 30.3751 6.47852 30.3751C4.58268 29.0834 6.62435 29.1251 6.62435 29.1251C8.70768 29.2709 9.81185 31.2709 9.81185 31.2709C11.6244 34.4376 14.6869 33.5001 15.8744 33.0001C16.0619 31.6459 16.6035 30.7292 17.1869 30.2084C12.5619 29.6876 7.70768 27.8959 7.70768 19.9584C7.70768 17.6459 8.49935 15.7917 9.85352 14.3126C9.64518 13.7917 8.91602 11.6251 10.0618 8.81258C10.0618 8.81258 11.8118 8.25008 15.791 10.9376C17.4369 10.4792 19.2285 10.2501 20.9994 10.2501C22.7702 10.2501 24.5619 10.4792 26.2077 10.9376C30.1869 8.25008 31.9369 8.81258 31.9369 8.81258C33.0827 11.6251 32.3535 13.7917 32.1452 14.3126C33.4994 15.7917 34.291 17.6459 34.291 19.9584C34.291 27.9167 29.416 29.6667 24.7702 30.1876C25.5202 30.8334 26.2077 32.1042 26.2077 34.0417V39.7501C26.2077 40.3126 26.541 40.9792 27.6035 40.7917C35.8744 38.0001 41.8327 30.2084 41.8327 21.0001C41.8327 18.2642 41.2938 15.5551 40.2468 13.0275C39.1999 10.4999 37.6653 8.20324 35.7307 6.26869C33.7962 4.33414 31.4995 2.79956 28.9719 1.75259C26.4443 0.705618 23.7352 0.166748 20.9994 0.166748Z" fill="white" fill-opacity="0.6"/>
</svg>
