<svg width="22" height="22" viewBox="0 0 22 22" fill="none" xmlns="http://www.w3.org/2000/svg">
<path d="M12.2031 14.3925C12.0365 14.3052 11.846 14.3676 11.727 14.5421C11.7057 14.5734 11.6763 14.6223 11.6403 14.6823C11.4754 14.9571 11.1707 15.4646 10.8581 15.5772C10.632 15.652 10.4058 15.4774 10.5843 14.4798C10.7629 13.4821 11.4532 9.61623 11.4771 9.46658C11.5009 9.31693 11.4413 9.24211 11.4056 9.2047C11.358 9.15481 11.2747 9.10493 11.1319 9.14234C11.1081 9.15481 10.5963 9.31693 10.0844 9.47905L9.10842 9.80329C8.89417 9.86564 8.78704 10.0527 8.83465 10.2522C8.85846 10.352 8.91797 10.4518 9.00129 10.5016C9.08461 10.564 9.17983 10.5765 9.27505 10.5515C9.32266 10.5391 9.41789 10.5141 9.52501 10.4767C9.56072 10.4642 9.59643 10.4549 9.63214 10.4455C9.66784 10.4362 9.70355 10.4268 9.73926 10.4144C9.59643 11.2 9.0251 14.1805 9.0251 14.1805C8.90607 14.8913 8.87036 15.3777 8.94178 15.6894C9.0251 16.0511 9.22744 16.313 9.54881 16.4751C9.72736 16.5499 9.9178 16.5998 10.1201 16.6123C10.2749 16.6123 10.4296 16.5998 10.6082 16.5624C11.2747 16.4252 11.727 15.9139 11.9413 15.6146C12.1436 15.3403 12.2745 15.0659 12.3578 14.8789C12.4412 14.6918 12.3817 14.4923 12.2031 14.3925Z" fill="#212124"/>
<path d="M10.6537 8.19391C11.2701 8.19391 11.7697 7.67043 11.7697 7.02469C11.7697 6.37895 11.2701 5.85547 10.6537 5.85547C10.0373 5.85547 9.5376 6.37895 9.5376 7.02469C9.5376 7.67043 10.0373 8.19391 10.6537 8.19391Z" fill="#212124"/>
<path fill-rule="evenodd" clip-rule="evenodd" d="M1.85938 11C1.85938 5.93743 5.77688 1.83337 10.6094 1.83337C15.4419 1.83337 19.3594 5.93743 19.3594 11C19.3594 16.0627 15.4419 20.1667 10.6094 20.1667C5.77688 20.1667 1.85938 16.0627 1.85938 11ZM10.6094 3.32997C6.56586 3.32997 3.28795 6.76398 3.28795 11C3.28795 15.2361 6.56586 18.6701 10.6094 18.6701C14.6529 18.6701 17.9308 15.2361 17.9308 11C17.9308 6.76398 14.6529 3.32997 10.6094 3.32997Z" fill="#212124"/>
</svg>
