<svg width="23" height="24" viewBox="0 0 23 24" fill="none" xmlns="http://www.w3.org/2000/svg">
<path fill-rule="evenodd" clip-rule="evenodd" d="M0.958984 3.60005C0.958984 2.05365 2.16035 0.800049 3.64232 0.800049H17.059C18.5409 0.800049 19.7423 2.05365 19.7423 3.60005V9.60005C19.7423 10.0419 19.3991 10.4 18.9757 10.4C18.5522 10.4 18.209 10.0419 18.209 9.60005V3.60005C18.209 2.93731 17.6941 2.40005 17.059 2.40005H3.64232C3.00719 2.40005 2.49232 2.93731 2.49232 3.60005V19.6C2.49232 20.2628 3.00719 20.8 3.64232 20.8H9.39232C9.81574 20.8 10.159 21.1582 10.159 21.6C10.159 22.0419 9.81574 22.4 9.39232 22.4H3.64232C2.16035 22.4 0.958984 21.1464 0.958984 19.6V3.60005Z" fill="#212124"/>
<path fill-rule="evenodd" clip-rule="evenodd" d="M5.75065 6.60005C5.75065 6.15822 6.0939 5.80005 6.51732 5.80005H14.184C14.6074 5.80005 14.9507 6.15822 14.9507 6.60005C14.9507 7.04188 14.6074 7.40005 14.184 7.40005H6.51732C6.0939 7.40005 5.75065 7.04188 5.75065 6.60005Z" fill="#212124"/>
<path fill-rule="evenodd" clip-rule="evenodd" d="M5.75065 10.6C5.75065 10.1582 6.0939 9.80005 6.51732 9.80005H14.184C14.6074 9.80005 14.9507 10.1582 14.9507 10.6C14.9507 11.0419 14.6074 11.4 14.184 11.4H6.51732C6.0939 11.4 5.75065 11.0419 5.75065 10.6Z" fill="#212124"/>
<path fill-rule="evenodd" clip-rule="evenodd" d="M5.75065 14.6C5.75065 14.1582 6.0939 13.8 6.51732 13.8H11.309C11.7324 13.8 12.0757 14.1582 12.0757 14.6C12.0757 15.0419 11.7324 15.4 11.309 15.4H6.51732C6.0939 15.4 5.75065 15.0419 5.75065 14.6Z" fill="#212124"/>
<path fill-rule="evenodd" clip-rule="evenodd" d="M18.2206 13.0344C18.52 12.7219 19.0054 12.7219 19.3048 13.0344L21.4344 15.2566C21.7338 15.569 21.7338 16.0755 21.4344 16.388L15.8974 22.1657C15.7536 22.3158 15.5586 22.4 15.3553 22.4H13.2257C12.8022 22.4 12.459 22.0419 12.459 21.6V19.3778C12.459 19.1657 12.5398 18.9622 12.6835 18.8121L18.2206 13.0344ZM13.9923 19.7092V20.8H15.0377L19.8081 15.8223L18.7627 14.7314L13.9923 19.7092Z" fill="#212124"/>
</svg>
