<svg width="256" height="256" viewBox="0 0 256 256" fill="none" xmlns="http://www.w3.org/2000/svg">
<path d="M128 224C126.635 224.014 125.29 223.669 124.1 223C119.8 220.6 20 163.9 20 92C20 79.4071 23.9622 67.1333 31.3255 56.9174C38.6887 46.7014 49.0796 39.0612 61.0263 35.079C72.9731 31.0968 85.8699 30.9744 97.8901 34.7292C109.91 38.484 120.444 45.9256 128 56C135.556 45.9256 146.09 38.484 158.11 34.7292C170.13 30.9744 183.027 31.0968 194.974 35.079C206.92 39.0612 217.311 46.7014 224.675 56.9174C232.038 67.1333 236 79.4071 236 92C236 122.6 218.3 154 183.4 185.4C167.552 199.647 150.297 212.245 131.9 223C130.71 223.669 129.365 224.014 128 224ZM80 48C68.3305 48 57.1389 52.6357 48.8873 60.8873C40.6357 69.1389 36 80.3305 36 92C36 147.2 110 195.7 128 206.7C146 195.7 220 147.2 220 92C220.009 81.8283 216.494 71.9675 210.052 64.0954C203.611 56.2233 194.641 50.8261 184.668 48.8222C174.696 46.8183 164.337 48.3314 155.355 53.1041C146.372 57.8768 139.321 65.6142 135.4 75C134.797 76.4673 133.772 77.7223 132.454 78.6055C131.137 79.4887 129.586 79.9603 128 79.9603C126.414 79.9603 124.863 79.4887 123.546 78.6055C122.228 77.7223 121.203 76.4673 120.6 75C117.27 66.9827 111.633 60.1356 104.404 55.3283C97.1756 50.521 88.6813 47.9703 80 48Z" fill="#FF6F0F"/>
</svg>
