<svg width="23" height="24" viewBox="0 0 23 24" fill="none" xmlns="http://www.w3.org/2000/svg">
<path fill-rule="evenodd" clip-rule="evenodd" d="M2.68161 4.80739C4.89969 2.39754 8.5368 2.39754 10.7549 4.80739L10.7557 4.80827L11.4886 5.60702L12.2224 4.80739C14.4405 2.39754 18.0776 2.39754 20.2957 4.80739L20.2975 4.80935C22.5449 7.26774 22.1689 10.953 20.3524 13.4384L20.3512 13.44C18.5223 15.9292 16.4094 17.9359 14.7611 19.3169C13.9353 20.0088 13.2221 20.547 12.7135 20.9135C12.4591 21.0968 12.2556 21.2373 12.1144 21.3328C12.0439 21.3805 11.9889 21.417 11.9509 21.442L11.9068 21.4708L11.8946 21.4786L11.8911 21.4809L11.89 21.4816C11.89 21.4816 11.8893 21.4821 11.4886 20.8C11.0996 21.4894 11.0993 21.4892 11.0993 21.4892L11.0977 21.4882L11.094 21.4859L11.0813 21.478L11.0353 21.4491C10.9958 21.4241 10.9386 21.3875 10.8653 21.3396C10.7189 21.244 10.5081 21.1033 10.2456 20.9197C9.72094 20.5527 8.9882 20.0137 8.14864 19.3205C6.4739 17.9378 4.35296 15.9246 2.61396 13.423L2.613 13.4216C0.892164 10.935 0.420797 7.26368 2.68161 4.80739ZM11.4886 20.8L11.0993 21.4892C11.3436 21.6393 11.6483 21.6362 11.89 21.4816L11.4886 20.8ZM11.4812 19.8524C11.5839 19.7811 11.7049 19.6958 11.8423 19.5968C12.3252 19.2489 13.0082 18.7336 13.8011 18.0693C15.3898 16.7382 17.4036 14.8219 19.1336 12.4675C20.6289 10.421 20.7731 7.64872 19.1889 5.91478C17.5743 4.16154 14.943 4.16174 13.3286 5.91539L12.0424 7.31704C11.8978 7.47464 11.6977 7.56376 11.4886 7.56376C11.2795 7.56376 11.0795 7.47464 10.9349 7.31704L9.649 5.91571C8.03431 4.16167 5.40209 4.16151 3.78749 5.91571C2.21572 7.62338 2.4012 10.382 3.85565 12.4843C5.4839 14.8264 7.48976 16.7363 9.10006 18.0658C9.90311 18.7288 10.6025 19.2432 11.0993 19.5906C11.245 19.6925 11.3731 19.7799 11.4812 19.8524Z" fill="#212124"/>
</svg>
