<svg width="256" height="256" viewBox="0 0 256 256" fill="none" xmlns="http://www.w3.org/2000/svg">
<path d="M236 92C236 122.6 218.3 154 183.4 185.4C167.552 199.647 150.297 212.245 131.9 223C130.705 223.657 129.364 224.001 128 224.001C126.636 224.001 125.295 223.657 124.1 223C119.8 220.6 20 163.9 20 92C20 79.4071 23.9622 67.1333 31.3255 56.9174C38.6887 46.7014 49.0796 39.0612 61.0263 35.079C72.9731 31.0968 85.8699 30.9744 97.8901 34.7292C109.91 38.484 120.444 45.9256 128 56C135.556 45.9256 146.09 38.484 158.11 34.7292C170.13 30.9744 183.027 31.0968 194.974 35.079C206.92 39.0612 217.311 46.7014 224.675 56.9174C232.038 67.1333 236 79.4071 236 92Z" fill="#FF6F0F"/>
</svg>
