<svg width="72" height="18" viewBox="0 0 72 18" fill="none" xmlns="http://www.w3.org/2000/svg">
<path d="M7.13426 3.32862C5.7981 3.327 4.48836 3.68544 3.35461 4.36303C2.22087 5.0406 1.30879 6.01005 0.722515 7.16065C0.136236 8.31119 -0.100611 9.59655 0.0390104 10.87C0.178633 12.1434 0.689096 13.3535 1.51213 14.3622L1.73373 14.6253C1.84454 14.75 1.96016 14.8746 2.0806 14.99C3.45859 16.3985 5.1977 17.4363 7.12462 18.0001C9.05022 17.4364 10.7878 16.3985 12.1638 14.99C12.2843 14.8746 12.3999 14.75 12.5107 14.6253L12.7372 14.3622C13.5582 13.353 14.0671 12.1432 14.2057 10.8704C14.3443 9.59759 14.1071 8.31314 13.5212 7.1632C12.9353 6.01332 12.0241 5.0442 10.8915 4.36624C9.75892 3.6883 8.45037 3.32877 7.11498 3.32862H7.13426ZM7.13426 12.7787C6.59495 12.7787 6.06776 12.6255 5.61934 12.3384C5.17095 12.0513 4.82145 11.6431 4.61507 11.1657C4.40868 10.6882 4.35469 10.1628 4.4599 9.656C4.56511 9.1491 4.82481 8.68351 5.20616 8.31811C5.58751 7.95266 6.07334 7.70383 6.6023 7.60298C7.13125 7.50218 7.67949 7.5539 8.17776 7.75167C8.67598 7.94944 9.10188 8.28434 9.4015 8.71407C9.70112 9.14375 9.86104 9.64894 9.86104 10.1657C9.86104 10.8587 9.57375 11.5234 9.06238 12.0134C8.55101 12.5034 7.85743 12.7787 7.13426 12.7787Z" fill="#C5C5C5"/>
<path d="M9.45645 3.18568C9.70518 3.12872 9.92366 2.98675 10.071 2.7864C10.2182 2.58605 10.2841 2.34109 10.2564 2.09747C10.2286 1.85385 10.109 1.62833 9.92004 1.4632C9.73109 1.29806 9.48571 1.20468 9.23002 1.20055C9.07355 1.20146 8.91911 1.23452 8.77717 1.2975C8.70238 0.93201 8.49743 0.602766 8.19732 0.366086C7.8972 0.129407 7.52061 0 7.13196 0C6.74326 0 6.36666 0.129407 6.0666 0.366086C5.76649 0.602766 5.56148 0.93201 5.48676 1.2975C5.34476 1.23452 5.19033 1.20146 5.03388 1.20055C4.77195 1.195 4.51739 1.2839 4.32059 1.44964C4.1238 1.61539 3.99914 1.84591 3.97127 2.09555C3.9434 2.34518 4.01437 2.59575 4.17011 2.79764C4.32586 2.99953 4.55504 3.13801 4.81227 3.18568C6.31555 2.68108 7.95314 2.68108 9.45645 3.18568Z" fill="#C5C5C5"/>
<mask id="path-3-inside-1_935_5305" fill="white">
<path d="M20.7108 4.50926C21.8353 4.50926 22.7038 4.75644 23.3162 5.25079C23.9387 5.73583 24.2851 6.44469 24.3554 7.37745C24.3655 7.49872 24.3705 7.66192 24.3705 7.86714C24.3705 8.06301 24.3705 8.26824 24.3705 8.48275C24.3705 8.68797 24.3705 8.88849 24.3705 9.08437C24.3705 9.28025 24.3655 9.4388 24.3554 9.56007C24.3353 10.3156 24.1194 10.9172 23.7078 11.3649C23.3062 11.8033 22.7339 12.1018 21.9909 12.2604V14.373H23.9036C24.1847 14.373 24.4157 14.3964 24.5964 14.443C24.7771 14.499 24.9177 14.5689 25.0181 14.6529C25.1185 14.7461 25.1837 14.8487 25.2139 14.9607C25.254 15.0819 25.2741 15.2125 25.2741 15.3524C25.2741 15.4643 25.254 15.5763 25.2139 15.6882C25.1837 15.8095 25.1185 15.9121 25.0181 15.996C24.9177 16.0893 24.7771 16.1639 24.5964 16.2199C24.4157 16.2758 24.1847 16.3038 23.9036 16.3038H18.1204C17.8392 16.3038 17.6083 16.2758 17.4276 16.2199C17.2469 16.1639 17.1063 16.0893 17.0059 15.996C16.9055 15.9121 16.8352 15.8095 16.7951 15.6882C16.7649 15.5763 16.7499 15.4643 16.7499 15.3524C16.7499 15.2125 16.7649 15.0819 16.7951 14.9607C16.8352 14.8487 16.9055 14.7461 17.0059 14.6529C17.1063 14.5689 17.2469 14.499 17.4276 14.443C17.6083 14.3964 17.8392 14.373 18.1204 14.373H19.5511V12.2744C18.768 12.1344 18.1706 11.836 17.7589 11.3789C17.3473 10.9219 17.1163 10.3156 17.0661 9.56007C17.0561 9.4388 17.0461 9.28025 17.036 9.08437C17.036 8.87915 17.036 8.67398 17.036 8.46876C17.036 8.25424 17.036 8.04902 17.036 7.85315C17.0461 7.65727 17.0561 7.49872 17.0661 7.37745C17.1163 6.44469 17.4377 5.73583 18.03 5.25079C18.6324 4.75644 19.526 4.50926 20.7108 4.50926ZM25.997 5.68452C25.997 5.21816 26.1175 4.90101 26.3585 4.73312C26.6095 4.55589 26.8956 4.46729 27.2169 4.46729C27.3776 4.46729 27.5282 4.48594 27.6687 4.52325C27.8193 4.56056 27.9499 4.62585 28.0603 4.71913C28.1707 4.8124 28.2611 4.93834 28.3314 5.09689C28.4017 5.25544 28.4368 5.45131 28.4368 5.68452V9.0424H29.2049C29.486 9.0424 29.7169 9.07503 29.8977 9.14033C30.0784 9.1963 30.2189 9.2709 30.3194 9.36419C30.4198 9.45748 30.485 9.56472 30.5151 9.68599C30.5553 9.79792 30.5754 9.90985 30.5754 10.0218C30.5754 10.1617 30.5553 10.2923 30.5151 10.4135C30.485 10.5348 30.4198 10.642 30.3194 10.7353C30.2189 10.8193 30.0784 10.8892 29.8977 10.9452C29.7169 11.0012 29.486 11.0291 29.2049 11.0291H28.4368V15.2405C28.4368 15.483 28.4017 15.6836 28.3314 15.8421C28.2611 16.0007 28.1707 16.1266 28.0603 16.2199C27.9499 16.3132 27.8193 16.3784 27.6687 16.4157C27.5282 16.4531 27.3776 16.4717 27.2169 16.4717C27.0562 16.4717 26.9006 16.4531 26.75 16.4157C26.6095 16.3784 26.4789 16.3132 26.3585 16.2199C26.248 16.1266 26.1577 16.0007 26.0874 15.8421C26.0271 15.6836 25.997 15.483 25.997 15.2405V5.68452ZM21.9156 7.32148C21.9156 7.12561 21.8654 6.96706 21.765 6.84578C21.6746 6.72451 21.5642 6.63592 21.4337 6.57995C21.3031 6.51464 21.1676 6.47267 21.027 6.45403C20.8965 6.43539 20.7911 6.42605 20.7108 6.42605C20.6305 6.42605 20.5251 6.44004 20.3945 6.46802C20.264 6.48666 20.1335 6.52863 20.0029 6.59394C19.8724 6.65925 19.757 6.75719 19.6565 6.88776C19.5662 7.00903 19.516 7.16758 19.5059 7.36346C19.4959 7.49402 19.4859 7.66192 19.4758 7.86714C19.4758 8.06301 19.4758 8.26824 19.4758 8.48275C19.4758 8.68797 19.4758 8.88849 19.4758 9.08437C19.4859 9.28025 19.4959 9.4388 19.5059 9.56007C19.5059 9.77458 19.5511 9.94248 19.6415 10.0638C19.7318 10.1757 19.8423 10.2643 19.9728 10.3296C20.1034 10.3949 20.2338 10.4369 20.3644 10.4555C20.5049 10.4648 20.6204 10.4695 20.7108 10.4695C20.7911 10.4695 20.8965 10.4648 21.027 10.4555C21.1576 10.4369 21.2881 10.3949 21.4186 10.3296C21.5492 10.2643 21.6596 10.1757 21.75 10.0638C21.8504 9.94248 21.9056 9.77458 21.9156 9.56007C21.9257 9.4295 21.9307 9.26626 21.9307 9.07038C21.9307 8.86516 21.9307 8.65529 21.9307 8.44078C21.9307 8.21692 21.9307 8.00705 21.9307 7.81117C21.9307 7.6153 21.9257 7.45205 21.9156 7.32148ZM31.8886 10.6934C31.5372 10.6934 31.2811 10.6374 31.1205 10.5255C30.9699 10.4042 30.8946 10.2177 30.8946 9.96581C30.8946 9.76059 30.9699 9.5927 31.1205 9.46213C31.2811 9.32222 31.5372 9.25226 31.8886 9.25226H43.1388C43.4902 9.25226 43.7412 9.32222 43.8918 9.46213C44.0524 9.5927 44.1328 9.76059 44.1328 9.96581C44.1328 10.2177 44.0524 10.4042 43.8918 10.5255C43.7412 10.6374 43.4902 10.6934 43.1388 10.6934H31.8886ZM34.4037 14.6808V15.2405H42.1146C42.3957 15.2405 42.6216 15.2591 42.7924 15.2964C42.963 15.3338 43.0936 15.385 43.1839 15.4504C43.2743 15.5157 43.3295 15.5949 43.3496 15.6882C43.3797 15.7815 43.3948 15.8841 43.3948 15.996C43.3948 16.1266 43.3797 16.2385 43.3496 16.3318C43.3295 16.4251 43.2743 16.5043 43.1839 16.5696C43.0936 16.635 42.963 16.6816 42.7924 16.7096C42.6216 16.7375 42.3957 16.7515 42.1146 16.7515H33.1838C32.9027 16.7515 32.6817 16.7235 32.5211 16.6676C32.3605 16.621 32.235 16.551 32.1446 16.4577C32.0643 16.3738 32.0141 16.2712 31.994 16.1499C31.9739 16.038 31.9639 15.9167 31.9639 15.7861V13.9533C31.9639 13.86 31.9739 13.7714 31.994 13.6875C32.0241 13.5942 32.0793 13.5149 32.1597 13.4496C32.24 13.3843 32.3555 13.333 32.5061 13.2957C32.6567 13.2584 32.8575 13.2397 33.1085 13.2397H40.6237V12.7501H32.973C32.5513 12.7501 32.2701 12.6847 32.1296 12.5542C31.989 12.4143 31.9187 12.2277 31.9187 11.9945C31.9187 11.808 31.989 11.6401 32.1296 11.4909C32.2701 11.3323 32.5513 11.253 32.973 11.253H41.9339C42.1749 11.253 42.3707 11.2763 42.5213 11.323C42.6719 11.3696 42.7873 11.4302 42.8677 11.5048C42.948 11.5794 42.9982 11.6634 43.0183 11.7567C43.0484 11.8406 43.0635 11.9292 43.0635 12.0225V13.9813C43.0635 14.2051 42.9932 14.3777 42.8526 14.499C42.712 14.6202 42.4008 14.6808 41.9189 14.6808H34.4037ZM31.738 7.89512C31.738 7.62464 31.8183 7.42877 31.979 7.30749C32.1396 7.17692 32.4659 7.11162 32.9579 7.11162H33.7561V6.16022H33.0332C32.5412 6.16022 32.2149 6.09491 32.0543 5.96434C31.8936 5.82443 31.8133 5.6379 31.8133 5.40469C31.8133 5.13421 31.8936 4.93834 32.0543 4.81706C32.2149 4.68648 32.5412 4.62119 33.0332 4.62119H41.9942C42.4861 4.62119 42.8124 4.68648 42.9731 4.81706C43.1337 4.93834 43.2141 5.13421 43.2141 5.40469C43.2141 5.6379 43.1337 5.82443 42.9731 5.96434C42.8124 6.09491 42.4861 6.16022 41.9942 6.16022H41.2713V7.11162H42.0695C42.5614 7.11162 42.8877 7.17692 43.0484 7.30749C43.209 7.42877 43.2894 7.62464 43.2894 7.89512C43.2894 8.12832 43.209 8.31486 43.0484 8.45477C42.8877 8.58534 42.5614 8.65064 42.0695 8.65064H32.9579C32.4659 8.65064 32.1396 8.58534 31.979 8.45477C31.8183 8.31486 31.738 8.12832 31.738 7.89512ZM36.1959 7.11162H38.8315V6.16022H36.1959V7.11162ZM50.6719 4.6072C50.953 4.6072 51.1739 4.63984 51.3346 4.70513C51.4952 4.7611 51.6157 4.84038 51.696 4.94298C51.7864 5.04557 51.8416 5.1622 51.8617 5.29276C51.8818 5.41404 51.8918 5.5446 51.8918 5.68452V15.1425C51.8918 15.2825 51.8818 15.4084 51.8617 15.5203C51.8416 15.6416 51.7864 15.7442 51.696 15.8281C51.6157 15.9214 51.4952 15.9914 51.3346 16.038C51.1739 16.0939 50.953 16.1219 50.6719 16.1219H46.7863C46.5052 16.1219 46.2843 16.0939 46.1236 16.038C45.963 15.9914 45.8375 15.9214 45.7471 15.8281C45.6668 15.7442 45.6166 15.6416 45.5965 15.5203C45.5765 15.4084 45.5664 15.2825 45.5664 15.1425V5.68452C45.5664 5.5446 45.5765 5.41404 45.5965 5.29276C45.6166 5.1622 45.6668 5.04557 45.7471 4.94298C45.8375 4.84038 45.963 4.7611 46.1236 4.70513C46.2843 4.63984 46.5052 4.6072 46.7863 4.6072H50.6719ZM53.9853 5.68452C53.9853 5.21816 54.1057 4.90101 54.3467 4.73312C54.5979 4.55589 54.884 4.46729 55.2051 4.46729C55.366 4.46729 55.5166 4.48594 55.657 4.52325C55.8076 4.56056 55.9383 4.62585 56.0485 4.71913C56.1588 4.8124 56.2492 4.93834 56.3196 5.09689C56.3901 5.25544 56.425 5.45131 56.425 5.68452V9.0424H57.3739C57.6552 9.0424 57.8859 9.07038 58.0666 9.12634C58.2474 9.18231 58.3877 9.25691 58.4883 9.3502C58.5889 9.43415 58.654 9.53673 58.6841 9.65801C58.7245 9.76994 58.7444 9.88187 58.7444 9.9938C58.7444 10.1337 58.7245 10.2643 58.6841 10.3855C58.654 10.4975 58.5889 10.6001 58.4883 10.6934C58.3877 10.7773 58.2474 10.8473 58.0666 10.9032C57.8859 10.9498 57.6552 10.9732 57.3739 10.9732H56.425V15.2405C56.425 15.483 56.3901 15.6836 56.3196 15.8421C56.2492 16.0007 56.1588 16.1266 56.0485 16.2199C55.9383 16.3132 55.8076 16.3784 55.657 16.4157C55.5166 16.4531 55.366 16.4717 55.2051 16.4717C55.0443 16.4717 54.8889 16.4531 54.7383 16.4157C54.5979 16.3784 54.4672 16.3132 54.3467 16.2199C54.2364 16.1266 54.1461 16.0007 54.0756 15.8421C54.0154 15.6836 53.9853 15.483 53.9853 15.2405V5.68452ZM49.5122 6.53798H47.946V14.1911H49.5122V6.53798ZM63.6718 4.63518C63.9429 4.63518 64.1538 4.66316 64.3044 4.71913C64.455 4.76576 64.5706 4.83572 64.6507 4.92899C64.7314 5.01294 64.7814 5.12022 64.8014 5.25079C64.8218 5.38136 64.8315 5.53061 64.8315 5.69851V7.01368H66.3375V5.68452C66.3375 5.21816 66.4333 4.90101 66.6237 4.73312C66.8146 4.55589 67.0706 4.46729 67.3918 4.46729C67.7032 4.46729 67.9544 4.55589 68.1448 4.73312C68.3459 4.90101 68.446 5.21816 68.446 5.68452V9.88187C68.446 10.3669 68.3508 10.6934 68.1598 10.8612C67.9791 11.0291 67.7285 11.1131 67.4068 11.1131C67.0857 11.1131 66.8248 11.0291 66.6237 10.8612C66.4333 10.6934 66.3375 10.3669 66.3375 9.88187V9.00042H64.6959C64.6158 9.39218 64.4754 9.77928 64.2742 10.1617C64.0736 10.5441 63.7826 10.9032 63.4007 11.239C63.1501 11.4535 62.9037 11.5655 62.6628 11.5748C62.432 11.5748 62.2061 11.5188 61.985 11.4069C61.8646 11.3509 61.7645 11.2716 61.6838 11.1691C61.6037 11.0665 61.5483 10.9545 61.5182 10.8333C61.488 10.7027 61.488 10.5721 61.5182 10.4415C61.5483 10.3016 61.6139 10.171 61.714 10.0498C61.8447 9.89121 61.9603 9.74195 62.0604 9.60204C62.1609 9.46213 62.2465 9.31757 62.3164 9.16832H60.2832C60.0024 9.16832 59.7765 9.14968 59.6055 9.11235C59.435 9.06573 59.3043 9.00507 59.2139 8.93047C59.1236 8.84652 59.0633 8.74858 59.0332 8.63665C59.0133 8.52472 59.0031 8.3988 59.0031 8.25889C59.0031 8.14696 59.0181 8.03968 59.0483 7.93709C59.0784 7.82516 59.1386 7.72723 59.229 7.64328C59.3296 7.55933 59.4651 7.49402 59.6356 7.4474C59.8067 7.40078 60.0326 7.37745 60.3133 7.37745H62.5423V6.45403H60.4489C60.1681 6.45403 59.9422 6.4307 59.7712 6.38408C59.6006 6.33745 59.4699 6.27679 59.3796 6.20219C59.2892 6.11824 59.229 6.0203 59.1989 5.90838C59.179 5.79645 59.1687 5.67053 59.1687 5.53061C59.1687 5.41868 59.1838 5.3114 59.2139 5.20882C59.244 5.09689 59.3043 4.99895 59.3946 4.915C59.4952 4.83106 59.6308 4.76576 59.8013 4.71913C59.9723 4.66316 60.1982 4.63518 60.479 4.63518H63.6718ZM67.0604 12.4702C67.0604 12.7967 67.1658 13.0858 67.3767 13.3377C67.5978 13.5895 67.8737 13.804 68.205 13.9813C68.5466 14.1585 68.9279 14.3031 69.3496 14.415C69.7713 14.5269 70.193 14.6062 70.6147 14.6529C71.0063 14.6995 71.2978 14.8161 71.4882 15.0026C71.6791 15.1985 71.7496 15.4737 71.699 15.8281C71.6689 16.0146 71.6087 16.1639 71.5183 16.2758C71.4382 16.3878 71.3376 16.4764 71.2171 16.5417C71.0966 16.607 70.9611 16.6489 70.8105 16.6676C70.6599 16.6862 70.5093 16.6909 70.3587 16.6816C69.5153 16.6163 68.7074 16.4204 67.9339 16.0939C67.161 15.7675 66.4881 15.3757 65.9158 14.9187C65.6351 15.1425 65.3086 15.3524 64.9369 15.5483C64.5754 15.7535 64.1893 15.9354 63.7772 16.0939C63.376 16.2525 62.9591 16.3831 62.5272 16.4857C62.0958 16.5883 61.6688 16.6536 61.2471 16.6816C61.0965 16.6909 60.9459 16.6862 60.7953 16.6676C60.6447 16.6489 60.5091 16.607 60.3886 16.5417C60.2682 16.4764 60.1627 16.3878 60.0724 16.2758C59.9922 16.1639 59.9368 16.0146 59.9067 15.8281C59.8567 15.4737 59.9271 15.1985 60.1176 15.0026C60.3085 14.8161 60.5995 14.6995 60.9911 14.6529C61.423 14.6062 61.8495 14.5316 62.2712 14.429C62.6929 14.3357 63.0694 14.2005 63.4007 14.0233C63.7423 13.846 64.0182 13.6315 64.2291 13.3797C64.4399 13.1185 64.5507 12.8107 64.5604 12.4562V12.2744C64.5604 12.0132 64.6712 11.808 64.8917 11.6587C65.1128 11.5002 65.4188 11.4209 65.8104 11.4209C66.202 11.4209 66.5086 11.5002 66.7291 11.6587C66.9502 11.808 67.0604 12.0132 67.0604 12.2744V12.4702ZM69.5755 5.68452C69.5755 5.21816 69.6713 4.90101 69.8617 4.73312C70.0526 4.55589 70.3086 4.46729 70.6297 4.46729C70.9412 4.46729 71.1924 4.55589 71.3828 4.73312C71.5839 4.90101 71.684 5.21816 71.684 5.68452V10.3716C71.684 10.8566 71.5888 11.183 71.3978 11.3509C71.2171 11.5188 70.9665 11.6028 70.6448 11.6028C70.3237 11.6028 70.0628 11.5188 69.8617 11.3509C69.6713 11.183 69.5755 10.8566 69.5755 10.3716V5.68452Z"/>
</mask>
<path d="M20.7108 4.50926C21.8353 4.50926 22.7038 4.75644 23.3162 5.25079C23.9387 5.73583 24.2851 6.44469 24.3554 7.37745C24.3655 7.49872 24.3705 7.66192 24.3705 7.86714C24.3705 8.06301 24.3705 8.26824 24.3705 8.48275C24.3705 8.68797 24.3705 8.88849 24.3705 9.08437C24.3705 9.28025 24.3655 9.4388 24.3554 9.56007C24.3353 10.3156 24.1194 10.9172 23.7078 11.3649C23.3062 11.8033 22.7339 12.1018 21.9909 12.2604V14.373H23.9036C24.1847 14.373 24.4157 14.3964 24.5964 14.443C24.7771 14.499 24.9177 14.5689 25.0181 14.6529C25.1185 14.7461 25.1837 14.8487 25.2139 14.9607C25.254 15.0819 25.2741 15.2125 25.2741 15.3524C25.2741 15.4643 25.254 15.5763 25.2139 15.6882C25.1837 15.8095 25.1185 15.9121 25.0181 15.996C24.9177 16.0893 24.7771 16.1639 24.5964 16.2199C24.4157 16.2758 24.1847 16.3038 23.9036 16.3038H18.1204C17.8392 16.3038 17.6083 16.2758 17.4276 16.2199C17.2469 16.1639 17.1063 16.0893 17.0059 15.996C16.9055 15.9121 16.8352 15.8095 16.7951 15.6882C16.7649 15.5763 16.7499 15.4643 16.7499 15.3524C16.7499 15.2125 16.7649 15.0819 16.7951 14.9607C16.8352 14.8487 16.9055 14.7461 17.0059 14.6529C17.1063 14.5689 17.2469 14.499 17.4276 14.443C17.6083 14.3964 17.8392 14.373 18.1204 14.373H19.5511V12.2744C18.768 12.1344 18.1706 11.836 17.7589 11.3789C17.3473 10.9219 17.1163 10.3156 17.0661 9.56007C17.0561 9.4388 17.0461 9.28025 17.036 9.08437C17.036 8.87915 17.036 8.67398 17.036 8.46876C17.036 8.25424 17.036 8.04902 17.036 7.85315C17.0461 7.65727 17.0561 7.49872 17.0661 7.37745C17.1163 6.44469 17.4377 5.73583 18.03 5.25079C18.6324 4.75644 19.526 4.50926 20.7108 4.50926ZM25.997 5.68452C25.997 5.21816 26.1175 4.90101 26.3585 4.73312C26.6095 4.55589 26.8956 4.46729 27.2169 4.46729C27.3776 4.46729 27.5282 4.48594 27.6687 4.52325C27.8193 4.56056 27.9499 4.62585 28.0603 4.71913C28.1707 4.8124 28.2611 4.93834 28.3314 5.09689C28.4017 5.25544 28.4368 5.45131 28.4368 5.68452V9.0424H29.2049C29.486 9.0424 29.7169 9.07503 29.8977 9.14033C30.0784 9.1963 30.2189 9.2709 30.3194 9.36419C30.4198 9.45748 30.485 9.56472 30.5151 9.68599C30.5553 9.79792 30.5754 9.90985 30.5754 10.0218C30.5754 10.1617 30.5553 10.2923 30.5151 10.4135C30.485 10.5348 30.4198 10.642 30.3194 10.7353C30.2189 10.8193 30.0784 10.8892 29.8977 10.9452C29.7169 11.0012 29.486 11.0291 29.2049 11.0291H28.4368V15.2405C28.4368 15.483 28.4017 15.6836 28.3314 15.8421C28.2611 16.0007 28.1707 16.1266 28.0603 16.2199C27.9499 16.3132 27.8193 16.3784 27.6687 16.4157C27.5282 16.4531 27.3776 16.4717 27.2169 16.4717C27.0562 16.4717 26.9006 16.4531 26.75 16.4157C26.6095 16.3784 26.4789 16.3132 26.3585 16.2199C26.248 16.1266 26.1577 16.0007 26.0874 15.8421C26.0271 15.6836 25.997 15.483 25.997 15.2405V5.68452ZM21.9156 7.32148C21.9156 7.12561 21.8654 6.96706 21.765 6.84578C21.6746 6.72451 21.5642 6.63592 21.4337 6.57995C21.3031 6.51464 21.1676 6.47267 21.027 6.45403C20.8965 6.43539 20.7911 6.42605 20.7108 6.42605C20.6305 6.42605 20.5251 6.44004 20.3945 6.46802C20.264 6.48666 20.1335 6.52863 20.0029 6.59394C19.8724 6.65925 19.757 6.75719 19.6565 6.88776C19.5662 7.00903 19.516 7.16758 19.5059 7.36346C19.4959 7.49402 19.4859 7.66192 19.4758 7.86714C19.4758 8.06301 19.4758 8.26824 19.4758 8.48275C19.4758 8.68797 19.4758 8.88849 19.4758 9.08437C19.4859 9.28025 19.4959 9.4388 19.5059 9.56007C19.5059 9.77458 19.5511 9.94248 19.6415 10.0638C19.7318 10.1757 19.8423 10.2643 19.9728 10.3296C20.1034 10.3949 20.2338 10.4369 20.3644 10.4555C20.5049 10.4648 20.6204 10.4695 20.7108 10.4695C20.7911 10.4695 20.8965 10.4648 21.027 10.4555C21.1576 10.4369 21.2881 10.3949 21.4186 10.3296C21.5492 10.2643 21.6596 10.1757 21.75 10.0638C21.8504 9.94248 21.9056 9.77458 21.9156 9.56007C21.9257 9.4295 21.9307 9.26626 21.9307 9.07038C21.9307 8.86516 21.9307 8.65529 21.9307 8.44078C21.9307 8.21692 21.9307 8.00705 21.9307 7.81117C21.9307 7.6153 21.9257 7.45205 21.9156 7.32148ZM31.8886 10.6934C31.5372 10.6934 31.2811 10.6374 31.1205 10.5255C30.9699 10.4042 30.8946 10.2177 30.8946 9.96581C30.8946 9.76059 30.9699 9.5927 31.1205 9.46213C31.2811 9.32222 31.5372 9.25226 31.8886 9.25226H43.1388C43.4902 9.25226 43.7412 9.32222 43.8918 9.46213C44.0524 9.5927 44.1328 9.76059 44.1328 9.96581C44.1328 10.2177 44.0524 10.4042 43.8918 10.5255C43.7412 10.6374 43.4902 10.6934 43.1388 10.6934H31.8886ZM34.4037 14.6808V15.2405H42.1146C42.3957 15.2405 42.6216 15.2591 42.7924 15.2964C42.963 15.3338 43.0936 15.385 43.1839 15.4504C43.2743 15.5157 43.3295 15.5949 43.3496 15.6882C43.3797 15.7815 43.3948 15.8841 43.3948 15.996C43.3948 16.1266 43.3797 16.2385 43.3496 16.3318C43.3295 16.4251 43.2743 16.5043 43.1839 16.5696C43.0936 16.635 42.963 16.6816 42.7924 16.7096C42.6216 16.7375 42.3957 16.7515 42.1146 16.7515H33.1838C32.9027 16.7515 32.6817 16.7235 32.5211 16.6676C32.3605 16.621 32.235 16.551 32.1446 16.4577C32.0643 16.3738 32.0141 16.2712 31.994 16.1499C31.9739 16.038 31.9639 15.9167 31.9639 15.7861V13.9533C31.9639 13.86 31.9739 13.7714 31.994 13.6875C32.0241 13.5942 32.0793 13.5149 32.1597 13.4496C32.24 13.3843 32.3555 13.333 32.5061 13.2957C32.6567 13.2584 32.8575 13.2397 33.1085 13.2397H40.6237V12.7501H32.973C32.5513 12.7501 32.2701 12.6847 32.1296 12.5542C31.989 12.4143 31.9187 12.2277 31.9187 11.9945C31.9187 11.808 31.989 11.6401 32.1296 11.4909C32.2701 11.3323 32.5513 11.253 32.973 11.253H41.9339C42.1749 11.253 42.3707 11.2763 42.5213 11.323C42.6719 11.3696 42.7873 11.4302 42.8677 11.5048C42.948 11.5794 42.9982 11.6634 43.0183 11.7567C43.0484 11.8406 43.0635 11.9292 43.0635 12.0225V13.9813C43.0635 14.2051 42.9932 14.3777 42.8526 14.499C42.712 14.6202 42.4008 14.6808 41.9189 14.6808H34.4037ZM31.738 7.89512C31.738 7.62464 31.8183 7.42877 31.979 7.30749C32.1396 7.17692 32.4659 7.11162 32.9579 7.11162H33.7561V6.16022H33.0332C32.5412 6.16022 32.2149 6.09491 32.0543 5.96434C31.8936 5.82443 31.8133 5.6379 31.8133 5.40469C31.8133 5.13421 31.8936 4.93834 32.0543 4.81706C32.2149 4.68648 32.5412 4.62119 33.0332 4.62119H41.9942C42.4861 4.62119 42.8124 4.68648 42.9731 4.81706C43.1337 4.93834 43.2141 5.13421 43.2141 5.40469C43.2141 5.6379 43.1337 5.82443 42.9731 5.96434C42.8124 6.09491 42.4861 6.16022 41.9942 6.16022H41.2713V7.11162H42.0695C42.5614 7.11162 42.8877 7.17692 43.0484 7.30749C43.209 7.42877 43.2894 7.62464 43.2894 7.89512C43.2894 8.12832 43.209 8.31486 43.0484 8.45477C42.8877 8.58534 42.5614 8.65064 42.0695 8.65064H32.9579C32.4659 8.65064 32.1396 8.58534 31.979 8.45477C31.8183 8.31486 31.738 8.12832 31.738 7.89512ZM36.1959 7.11162H38.8315V6.16022H36.1959V7.11162ZM50.6719 4.6072C50.953 4.6072 51.1739 4.63984 51.3346 4.70513C51.4952 4.7611 51.6157 4.84038 51.696 4.94298C51.7864 5.04557 51.8416 5.1622 51.8617 5.29276C51.8818 5.41404 51.8918 5.5446 51.8918 5.68452V15.1425C51.8918 15.2825 51.8818 15.4084 51.8617 15.5203C51.8416 15.6416 51.7864 15.7442 51.696 15.8281C51.6157 15.9214 51.4952 15.9914 51.3346 16.038C51.1739 16.0939 50.953 16.1219 50.6719 16.1219H46.7863C46.5052 16.1219 46.2843 16.0939 46.1236 16.038C45.963 15.9914 45.8375 15.9214 45.7471 15.8281C45.6668 15.7442 45.6166 15.6416 45.5965 15.5203C45.5765 15.4084 45.5664 15.2825 45.5664 15.1425V5.68452C45.5664 5.5446 45.5765 5.41404 45.5965 5.29276C45.6166 5.1622 45.6668 5.04557 45.7471 4.94298C45.8375 4.84038 45.963 4.7611 46.1236 4.70513C46.2843 4.63984 46.5052 4.6072 46.7863 4.6072H50.6719ZM53.9853 5.68452C53.9853 5.21816 54.1057 4.90101 54.3467 4.73312C54.5979 4.55589 54.884 4.46729 55.2051 4.46729C55.366 4.46729 55.5166 4.48594 55.657 4.52325C55.8076 4.56056 55.9383 4.62585 56.0485 4.71913C56.1588 4.8124 56.2492 4.93834 56.3196 5.09689C56.3901 5.25544 56.425 5.45131 56.425 5.68452V9.0424H57.3739C57.6552 9.0424 57.8859 9.07038 58.0666 9.12634C58.2474 9.18231 58.3877 9.25691 58.4883 9.3502C58.5889 9.43415 58.654 9.53673 58.6841 9.65801C58.7245 9.76994 58.7444 9.88187 58.7444 9.9938C58.7444 10.1337 58.7245 10.2643 58.6841 10.3855C58.654 10.4975 58.5889 10.6001 58.4883 10.6934C58.3877 10.7773 58.2474 10.8473 58.0666 10.9032C57.8859 10.9498 57.6552 10.9732 57.3739 10.9732H56.425V15.2405C56.425 15.483 56.3901 15.6836 56.3196 15.8421C56.2492 16.0007 56.1588 16.1266 56.0485 16.2199C55.9383 16.3132 55.8076 16.3784 55.657 16.4157C55.5166 16.4531 55.366 16.4717 55.2051 16.4717C55.0443 16.4717 54.8889 16.4531 54.7383 16.4157C54.5979 16.3784 54.4672 16.3132 54.3467 16.2199C54.2364 16.1266 54.1461 16.0007 54.0756 15.8421C54.0154 15.6836 53.9853 15.483 53.9853 15.2405V5.68452ZM49.5122 6.53798H47.946V14.1911H49.5122V6.53798ZM63.6718 4.63518C63.9429 4.63518 64.1538 4.66316 64.3044 4.71913C64.455 4.76576 64.5706 4.83572 64.6507 4.92899C64.7314 5.01294 64.7814 5.12022 64.8014 5.25079C64.8218 5.38136 64.8315 5.53061 64.8315 5.69851V7.01368H66.3375V5.68452C66.3375 5.21816 66.4333 4.90101 66.6237 4.73312C66.8146 4.55589 67.0706 4.46729 67.3918 4.46729C67.7032 4.46729 67.9544 4.55589 68.1448 4.73312C68.3459 4.90101 68.446 5.21816 68.446 5.68452V9.88187C68.446 10.3669 68.3508 10.6934 68.1598 10.8612C67.9791 11.0291 67.7285 11.1131 67.4068 11.1131C67.0857 11.1131 66.8248 11.0291 66.6237 10.8612C66.4333 10.6934 66.3375 10.3669 66.3375 9.88187V9.00042H64.6959C64.6158 9.39218 64.4754 9.77928 64.2742 10.1617C64.0736 10.5441 63.7826 10.9032 63.4007 11.239C63.1501 11.4535 62.9037 11.5655 62.6628 11.5748C62.432 11.5748 62.2061 11.5188 61.985 11.4069C61.8646 11.3509 61.7645 11.2716 61.6838 11.1691C61.6037 11.0665 61.5483 10.9545 61.5182 10.8333C61.488 10.7027 61.488 10.5721 61.5182 10.4415C61.5483 10.3016 61.6139 10.171 61.714 10.0498C61.8447 9.89121 61.9603 9.74195 62.0604 9.60204C62.1609 9.46213 62.2465 9.31757 62.3164 9.16832H60.2832C60.0024 9.16832 59.7765 9.14968 59.6055 9.11235C59.435 9.06573 59.3043 9.00507 59.2139 8.93047C59.1236 8.84652 59.0633 8.74858 59.0332 8.63665C59.0133 8.52472 59.0031 8.3988 59.0031 8.25889C59.0031 8.14696 59.0181 8.03968 59.0483 7.93709C59.0784 7.82516 59.1386 7.72723 59.229 7.64328C59.3296 7.55933 59.4651 7.49402 59.6356 7.4474C59.8067 7.40078 60.0326 7.37745 60.3133 7.37745H62.5423V6.45403H60.4489C60.1681 6.45403 59.9422 6.4307 59.7712 6.38408C59.6006 6.33745 59.4699 6.27679 59.3796 6.20219C59.2892 6.11824 59.229 6.0203 59.1989 5.90838C59.179 5.79645 59.1687 5.67053 59.1687 5.53061C59.1687 5.41868 59.1838 5.3114 59.2139 5.20882C59.244 5.09689 59.3043 4.99895 59.3946 4.915C59.4952 4.83106 59.6308 4.76576 59.8013 4.71913C59.9723 4.66316 60.1982 4.63518 60.479 4.63518H63.6718ZM67.0604 12.4702C67.0604 12.7967 67.1658 13.0858 67.3767 13.3377C67.5978 13.5895 67.8737 13.804 68.205 13.9813C68.5466 14.1585 68.9279 14.3031 69.3496 14.415C69.7713 14.5269 70.193 14.6062 70.6147 14.6529C71.0063 14.6995 71.2978 14.8161 71.4882 15.0026C71.6791 15.1985 71.7496 15.4737 71.699 15.8281C71.6689 16.0146 71.6087 16.1639 71.5183 16.2758C71.4382 16.3878 71.3376 16.4764 71.2171 16.5417C71.0966 16.607 70.9611 16.6489 70.8105 16.6676C70.6599 16.6862 70.5093 16.6909 70.3587 16.6816C69.5153 16.6163 68.7074 16.4204 67.9339 16.0939C67.161 15.7675 66.4881 15.3757 65.9158 14.9187C65.6351 15.1425 65.3086 15.3524 64.9369 15.5483C64.5754 15.7535 64.1893 15.9354 63.7772 16.0939C63.376 16.2525 62.9591 16.3831 62.5272 16.4857C62.0958 16.5883 61.6688 16.6536 61.2471 16.6816C61.0965 16.6909 60.9459 16.6862 60.7953 16.6676C60.6447 16.6489 60.5091 16.607 60.3886 16.5417C60.2682 16.4764 60.1627 16.3878 60.0724 16.2758C59.9922 16.1639 59.9368 16.0146 59.9067 15.8281C59.8567 15.4737 59.9271 15.1985 60.1176 15.0026C60.3085 14.8161 60.5995 14.6995 60.9911 14.6529C61.423 14.6062 61.8495 14.5316 62.2712 14.429C62.6929 14.3357 63.0694 14.2005 63.4007 14.0233C63.7423 13.846 64.0182 13.6315 64.2291 13.3797C64.4399 13.1185 64.5507 12.8107 64.5604 12.4562V12.2744C64.5604 12.0132 64.6712 11.808 64.8917 11.6587C65.1128 11.5002 65.4188 11.4209 65.8104 11.4209C66.202 11.4209 66.5086 11.5002 66.7291 11.6587C66.9502 11.808 67.0604 12.0132 67.0604 12.2744V12.4702ZM69.5755 5.68452C69.5755 5.21816 69.6713 4.90101 69.8617 4.73312C70.0526 4.55589 70.3086 4.46729 70.6297 4.46729C70.9412 4.46729 71.1924 4.55589 71.3828 4.73312C71.5839 4.90101 71.684 5.21816 71.684 5.68452V10.3716C71.684 10.8566 71.5888 11.183 71.3978 11.3509C71.2171 11.5188 70.9665 11.6028 70.6448 11.6028C70.3237 11.6028 70.0628 11.5188 69.8617 11.3509C69.6713 11.183 69.5755 10.8566 69.5755 10.3716V5.68452Z" fill="#C5C5C5" stroke="#C5C5C5" stroke-width="3" mask="url(#path-3-inside-1_935_5305)"/>
</svg>
