<svg width="122" height="32" viewBox="0 0 122 32" fill="none" xmlns="http://www.w3.org/2000/svg">
<path d="M11.6817 5.4502C9.49384 5.44755 7.34927 6.03447 5.49286 7.14396C3.63646 8.25341 2.14302 9.8408 1.18305 11.7248C0.223074 13.6087 -0.164741 15.7134 0.0638759 17.7985C0.292494 19.8836 1.12833 21.8651 2.47596 23.5167L2.83882 23.9475C3.02026 24.1517 3.20958 24.3557 3.40679 24.5447C5.66311 26.8509 8.51075 28.5502 11.6659 29.4733C14.8189 28.5503 17.664 26.8509 19.9171 24.5447C20.1144 24.3557 20.3037 24.1517 20.4851 23.9475L20.8559 23.5167C22.2003 21.8642 23.0335 19.8832 23.2605 17.7992C23.4874 15.7151 23.0991 13.6119 22.1397 11.729C21.1803 9.84615 19.6884 8.2593 17.8338 7.14922C15.9793 6.03914 13.8367 5.45045 11.6501 5.4502H11.6817ZM11.6817 20.9238C10.7986 20.9238 9.93537 20.6729 9.20113 20.2028C8.46693 19.7327 7.89466 19.0644 7.55673 18.2827C7.2188 17.5009 7.13039 16.6406 7.30266 15.8107C7.47494 14.9807 7.90017 14.2183 8.52459 13.62C9.14901 13.0216 9.94452 12.6142 10.8106 12.4491C11.6767 12.284 12.5744 12.3687 13.3903 12.6925C14.2061 13.0164 14.9035 13.5647 15.3941 14.2684C15.8847 14.9719 16.1465 15.7991 16.1465 16.6453C16.1465 17.7801 15.6761 18.8684 14.8388 19.6707C14.0015 20.4731 12.8658 20.9238 11.6817 20.9238Z" fill="#FF7E36"/>
<path d="M15.484 5.21624C15.8913 5.12298 16.2491 4.89052 16.4903 4.56247C16.7314 4.23441 16.8393 3.83332 16.7938 3.43441C16.7484 3.03551 16.5525 2.66623 16.2431 2.39585C15.9337 2.12546 15.5319 1.97254 15.1133 1.96579C14.8571 1.96728 14.6042 2.02141 14.3718 2.12454C14.2493 1.52608 13.9137 0.986973 13.4223 0.599431C12.9309 0.211892 12.3143 0 11.6779 0C11.0414 0 10.4248 0.211892 9.93349 0.599431C9.44208 0.986973 9.1064 1.52608 8.98405 2.12454C8.75155 2.02141 8.49868 1.96728 8.24251 1.96579C7.81362 1.9567 7.3968 2.10226 7.07457 2.37366C6.75234 2.64505 6.54821 3.0225 6.50257 3.43126C6.45694 3.84002 6.57315 4.2503 6.82817 4.58087C7.0832 4.91144 7.45845 5.13819 7.87964 5.21624C10.3411 4.39001 13.0225 4.39001 15.484 5.21624Z" fill="#00B493"/>
<mask id="path-3-inside-1_45_5274" fill="white">
<path d="M33.9119 7.38318C35.7532 7.38318 37.1753 7.78791 38.1781 8.59737C39.1974 9.39158 39.7646 10.5523 39.8797 12.0796C39.8961 12.2781 39.9043 12.5454 39.9043 12.8814C39.9043 13.2021 39.9043 13.5381 39.9043 13.8894C39.9043 14.2254 39.9043 14.5538 39.9043 14.8745C39.9043 15.1952 39.8961 15.4548 39.8797 15.6534C39.8468 16.8905 39.4933 17.8756 38.8193 18.6087C38.1617 19.3265 37.2246 19.8153 36.008 20.0749V23.5342H39.1399C39.6002 23.5342 39.9783 23.5724 40.2742 23.6487C40.5702 23.7404 40.8003 23.8549 40.9647 23.9924C41.1291 24.1451 41.236 24.3131 41.2853 24.4964C41.3511 24.6949 41.3839 24.9087 41.3839 25.1378C41.3839 25.3211 41.3511 25.5044 41.2853 25.6876C41.236 25.8862 41.1291 26.0542 40.9647 26.1916C40.8003 26.3444 40.5702 26.4666 40.2742 26.5582C39.9783 26.6498 39.6002 26.6956 39.1399 26.6956H29.6704C29.21 26.6956 28.832 26.6498 28.536 26.5582C28.2401 26.4666 28.01 26.3444 27.8456 26.1916C27.6811 26.0542 27.5661 25.8862 27.5003 25.6876C27.451 25.5044 27.4263 25.3211 27.4263 25.1378C27.4263 24.9087 27.451 24.6949 27.5003 24.4964C27.5661 24.3131 27.6811 24.1451 27.8456 23.9924C28.01 23.8549 28.2401 23.7404 28.536 23.6487C28.832 23.5724 29.21 23.5342 29.6704 23.5342H32.0131V20.0978C30.7308 19.8687 29.7526 19.38 29.0786 18.6316C28.4045 17.8832 28.0264 16.8905 27.9442 15.6534C27.9277 15.4548 27.9113 15.1952 27.8949 14.8745C27.8949 14.5385 27.8949 14.2025 27.8949 13.8665C27.8949 13.5152 27.8949 13.1792 27.8949 12.8585C27.9113 12.5378 27.9277 12.2781 27.9442 12.0796C28.0264 10.5523 28.5525 9.39158 29.5224 8.59737C30.5088 7.78791 31.972 7.38318 33.9119 7.38318ZM42.5676 9.30755C42.5676 8.54394 42.7649 8.02464 43.1595 7.74973C43.5705 7.45954 44.039 7.31445 44.5651 7.31445C44.8282 7.31445 45.0748 7.345 45.3049 7.40609C45.5515 7.46718 45.7652 7.57409 45.946 7.72682C46.1269 7.87955 46.2748 8.08576 46.3899 8.34537C46.505 8.60498 46.5626 8.92571 46.5626 9.30755V14.8058H47.8202C48.2806 14.8058 48.6587 14.8592 48.9546 14.9661C49.2505 15.0578 49.4806 15.1799 49.6451 15.3327C49.8095 15.4854 49.9163 15.661 49.9656 15.8596C50.0314 16.0429 50.0643 16.2261 50.0643 16.4094C50.0643 16.6385 50.0314 16.8523 49.9656 17.0509C49.9163 17.2494 49.8095 17.425 49.6451 17.5778C49.4806 17.7152 49.2505 17.8298 48.9546 17.9214C48.6587 18.0131 48.2806 18.0589 47.8202 18.0589H46.5626V24.9545C46.5626 25.3516 46.505 25.68 46.3899 25.9396C46.2748 26.1993 46.1269 26.4054 45.946 26.5582C45.7652 26.7109 45.5515 26.8178 45.3049 26.8789C45.0748 26.94 44.8282 26.9706 44.5651 26.9706C44.302 26.9706 44.0472 26.94 43.8006 26.8789C43.5705 26.8178 43.3567 26.7109 43.1595 26.5582C42.9787 26.4054 42.8307 26.1993 42.7156 25.9396C42.6169 25.68 42.5676 25.3516 42.5676 24.9545V9.30755ZM35.8847 11.9879C35.8847 11.6672 35.8026 11.4076 35.6381 11.209C35.4902 11.0104 35.3094 10.8654 35.0956 10.7737C34.8819 10.6668 34.6599 10.5981 34.4298 10.5676C34.216 10.537 34.0434 10.5217 33.9119 10.5217C33.7804 10.5217 33.6078 10.5447 33.3941 10.5905C33.1803 10.621 32.9667 10.6897 32.7529 10.7967C32.5392 10.9036 32.3502 11.064 32.1857 11.2777C32.0378 11.4763 31.9556 11.7359 31.9391 12.0567C31.9227 12.2705 31.9063 12.5454 31.8898 12.8814C31.8898 13.2021 31.8898 13.5381 31.8898 13.8894C31.8898 14.2254 31.8898 14.5538 31.8898 14.8745C31.9063 15.1952 31.9227 15.4548 31.9391 15.6534C31.9391 16.0047 32.0131 16.2796 32.1611 16.4781C32.309 16.6614 32.4898 16.8065 32.7036 16.9134C32.9173 17.0203 33.131 17.0891 33.3448 17.1196C33.5749 17.1349 33.764 17.1425 33.9119 17.1425C34.0434 17.1425 34.216 17.1349 34.4298 17.1196C34.6435 17.0891 34.8572 17.0203 35.071 16.9134C35.2847 16.8065 35.4655 16.6614 35.6135 16.4781C35.7779 16.2796 35.8683 16.0047 35.8847 15.6534C35.9012 15.4396 35.9094 15.1723 35.9094 14.8516C35.9094 14.5156 35.9094 14.1719 35.9094 13.8207C35.9094 13.4541 35.9094 13.1105 35.9094 12.7898C35.9094 12.469 35.9012 12.2017 35.8847 11.9879ZM52.2146 17.5091C51.6391 17.5091 51.2199 17.4174 50.9569 17.2341C50.7103 17.0356 50.587 16.7301 50.587 16.3178C50.587 15.9817 50.7103 15.7068 50.9569 15.493C51.2199 15.2639 51.6391 15.1494 52.2146 15.1494H70.6356C71.211 15.1494 71.622 15.2639 71.8686 15.493C72.1316 15.7068 72.2632 15.9817 72.2632 16.3178C72.2632 16.7301 72.1316 17.0356 71.8686 17.2341C71.622 17.4174 71.211 17.5091 70.6356 17.5091H52.2146ZM56.3328 24.0382V24.9545H68.9587C69.419 24.9545 69.7889 24.9851 70.0684 25.0462C70.3479 25.1073 70.5617 25.1912 70.7096 25.2982C70.8576 25.4051 70.9479 25.5349 70.9809 25.6876C71.0302 25.8404 71.0549 26.0084 71.0549 26.1916C71.0549 26.4054 71.0302 26.5887 70.9809 26.7415C70.9479 26.8942 70.8576 27.024 70.7096 27.1309C70.5617 27.2379 70.3479 27.3142 70.0684 27.36C69.7889 27.4058 69.419 27.4287 68.9587 27.4287H54.3353C53.875 27.4287 53.5133 27.3829 53.2503 27.2913C52.9872 27.2149 52.7817 27.1004 52.6338 26.9476C52.5022 26.8102 52.42 26.6422 52.3872 26.4436C52.3542 26.2604 52.3379 26.0618 52.3379 25.848V22.8469C52.3379 22.6941 52.3542 22.5491 52.3872 22.4116C52.4365 22.2589 52.5269 22.1291 52.6584 22.0222C52.7899 21.9152 52.979 21.8313 53.2256 21.7702C53.4722 21.709 53.801 21.6785 54.212 21.6785H66.5174V20.8767H53.9901C53.2996 20.8767 52.8392 20.7698 52.6091 20.556C52.3789 20.3269 52.2639 20.0215 52.2639 19.6396C52.2639 19.3342 52.3789 19.0593 52.6091 18.8149C52.8392 18.5553 53.2996 18.4254 53.9901 18.4254H68.6628C69.0574 18.4254 69.378 18.4636 69.6246 18.54C69.8712 18.6163 70.0602 18.7156 70.1917 18.8378C70.3232 18.9599 70.4054 19.0974 70.4383 19.2502C70.4877 19.3876 70.5123 19.5327 70.5123 19.6854V22.8927C70.5123 23.2593 70.3972 23.5418 70.1671 23.7404C69.9369 23.9389 69.4273 24.0382 68.6382 24.0382H56.3328ZM51.968 12.9272C51.968 12.4843 52.0994 12.1636 52.3625 11.965C52.6255 11.7512 53.1598 11.6443 53.9654 11.6443H55.2724V10.0865H54.0887C53.2831 10.0865 52.7488 9.97953 52.4858 9.76574C52.2227 9.53665 52.0913 9.23122 52.0913 8.84937C52.0913 8.40649 52.2227 8.08576 52.4858 7.88718C52.7488 7.67336 53.2831 7.56645 54.0887 7.56645H68.7615C69.567 7.56645 70.1013 7.67336 70.3644 7.88718C70.6273 8.08576 70.7589 8.40649 70.7589 8.84937C70.7589 9.23122 70.6273 9.53665 70.3644 9.76574C70.1013 9.97953 69.567 10.0865 68.7615 10.0865H67.5778V11.6443H68.8848C69.6903 11.6443 70.2246 11.7512 70.4877 11.965C70.7506 12.1636 70.8822 12.4843 70.8822 12.9272C70.8822 13.3091 70.7506 13.6145 70.4877 13.8436C70.2246 14.0574 69.6903 14.1643 68.8848 14.1643H53.9654C53.1598 14.1643 52.6255 14.0574 52.3625 13.8436C52.0994 13.6145 51.968 13.3091 51.968 12.9272ZM59.2673 11.6443H63.5828V10.0865H59.2673V11.6443ZM82.9704 7.54355C83.4308 7.54355 83.7925 7.597 84.0555 7.70391C84.3185 7.79555 84.5158 7.92537 84.6473 8.09337C84.7953 8.26134 84.8857 8.4523 84.9186 8.6661C84.9515 8.86467 84.9679 9.07846 84.9679 9.30755V24.7942C84.9679 25.0233 84.9515 25.2295 84.9186 25.4127C84.8857 25.6113 84.7953 25.7793 84.6473 25.9167C84.5158 26.0695 84.3185 26.184 84.0555 26.2604C83.7925 26.352 83.4308 26.3978 82.9704 26.3978H76.6081C76.1479 26.3978 75.7861 26.352 75.5231 26.2604C75.2601 26.184 75.0545 26.0695 74.9066 25.9167C74.7751 25.7793 74.6929 25.6113 74.66 25.4127C74.6271 25.2295 74.6107 25.0233 74.6107 24.7942V9.30755C74.6107 9.07846 74.6271 8.86467 74.66 8.6661C74.6929 8.4523 74.7751 8.26134 74.9066 8.09337C75.0545 7.92537 75.2601 7.79555 75.5231 7.70391C75.7861 7.597 76.1479 7.54355 76.6081 7.54355H82.9704ZM88.3957 9.30755C88.3957 8.54394 88.593 8.02464 88.9876 7.74973C89.3989 7.45954 89.8674 7.31445 90.3932 7.31445C90.6565 7.31445 90.9031 7.345 91.133 7.40609C91.3796 7.46718 91.5936 7.57409 91.7742 7.72682C91.9547 7.87955 92.1027 8.08576 92.218 8.34537C92.3334 8.60498 92.3907 8.92571 92.3907 9.30755V14.8058H93.9443C94.4049 14.8058 94.7827 14.8516 95.0786 14.9432C95.3745 15.0349 95.6044 15.157 95.7691 15.3098C95.9338 15.4472 96.0404 15.6152 96.0897 15.8138C96.1557 15.997 96.1883 16.1803 96.1883 16.3636C96.1883 16.5927 96.1557 16.8065 96.0897 17.0051C96.0404 17.1883 95.9338 17.3563 95.7691 17.5091C95.6044 17.6465 95.3745 17.7611 95.0786 17.8527C94.7827 17.929 94.4049 17.9672 93.9443 17.9672H92.3907V24.9545C92.3907 25.3516 92.3334 25.68 92.218 25.9396C92.1027 26.1993 91.9547 26.4054 91.7742 26.5582C91.5936 26.7109 91.3796 26.8178 91.133 26.8789C90.9031 26.94 90.6565 26.9706 90.3932 26.9706C90.1299 26.9706 89.8753 26.94 89.6287 26.8789C89.3989 26.8178 89.1849 26.7109 88.9876 26.5582C88.807 26.4054 88.6591 26.1993 88.5437 25.9396C88.4451 25.68 88.3957 25.3516 88.3957 24.9545V9.30755ZM81.0716 10.705H78.5069V23.2364H81.0716V10.705ZM104.257 7.58936C104.7 7.58936 105.046 7.63518 105.292 7.72682C105.539 7.80318 105.728 7.91773 105.859 8.07046C105.992 8.20791 106.073 8.38358 106.106 8.59737C106.14 8.81116 106.155 9.05555 106.155 9.33046V11.4839H108.621V9.30755C108.621 8.54394 108.778 8.02464 109.09 7.74973C109.403 7.45954 109.822 7.31445 110.348 7.31445C110.858 7.31445 111.269 7.45954 111.581 7.74973C111.91 8.02464 112.074 8.54394 112.074 9.30755V16.1803C112.074 16.9745 111.918 17.5091 111.605 17.784C111.309 18.0589 110.899 18.1963 110.372 18.1963C109.846 18.1963 109.419 18.0589 109.09 17.784C108.778 17.5091 108.621 16.9745 108.621 16.1803V14.737H105.933C105.802 15.3785 105.572 16.0123 105.243 16.6385C104.914 17.2647 104.438 17.8527 103.813 18.4025C103.402 18.7538 102.999 18.937 102.604 18.9523C102.227 18.9523 101.857 18.8607 101.495 18.6774C101.297 18.5858 101.134 18.4559 101.001 18.288C100.87 18.12 100.779 17.9367 100.73 17.7381C100.681 17.5244 100.681 17.3105 100.73 17.0967C100.779 16.8676 100.887 16.6538 101.051 16.4552C101.265 16.1956 101.454 15.9512 101.618 15.7221C101.783 15.493 101.923 15.2563 102.037 15.0119H98.708C98.2483 15.0119 97.8784 14.9814 97.5983 14.9203C97.3191 14.844 97.1051 14.7446 96.9572 14.6225C96.8092 14.485 96.7106 14.3247 96.6613 14.1414C96.6287 13.9581 96.6119 13.7519 96.6119 13.5228C96.6119 13.3396 96.6366 13.1639 96.6859 12.9959C96.7352 12.8127 96.8339 12.6523 96.9818 12.5148C97.1465 12.3774 97.3685 12.2705 97.6477 12.1941C97.9277 12.1178 98.2976 12.0796 98.7574 12.0796H102.407V10.5676H98.9793C98.5196 10.5676 98.1497 10.5294 97.8696 10.453C97.5904 10.3767 97.3764 10.2774 97.2284 10.1552C97.0805 10.0177 96.9818 9.85738 96.9325 9.6741C96.8999 9.49083 96.8832 9.28465 96.8832 9.05555C96.8832 8.87228 96.9079 8.69662 96.9572 8.52864C97.0065 8.34537 97.1051 8.185 97.2531 8.04755C97.4178 7.91009 97.6397 7.80318 97.9189 7.72682C98.199 7.63518 98.5689 7.58936 99.0286 7.58936H104.257ZM109.805 20.4185C109.805 20.953 109.978 21.4265 110.323 21.8389C110.685 22.2513 111.137 22.6025 111.679 22.8927C112.239 23.1829 112.863 23.4196 113.553 23.6029C114.244 23.7862 114.934 23.916 115.625 23.9924C116.266 24.0687 116.743 24.2597 117.055 24.5651C117.368 24.8858 117.483 25.3364 117.4 25.9167C117.351 26.2222 117.252 26.4666 117.104 26.6498C116.973 26.8331 116.809 26.9782 116.611 27.0851C116.414 27.192 116.192 27.2608 115.945 27.2913C115.699 27.3218 115.452 27.3295 115.206 27.3142C113.825 27.2073 112.502 26.8865 111.235 26.352C109.97 25.8175 108.868 25.176 107.931 24.4276C107.471 24.7942 106.937 25.1378 106.328 25.4585C105.736 25.7946 105.104 26.0924 104.429 26.352C103.772 26.6116 103.09 26.8255 102.382 26.9935C101.676 27.1614 100.977 27.2684 100.286 27.3142C100.04 27.3295 99.7931 27.3218 99.5465 27.2913C99.2999 27.2608 99.0779 27.192 98.8807 27.0851C98.6834 26.9782 98.5108 26.8331 98.3628 26.6498C98.2316 26.4666 98.1409 26.2222 98.0915 25.9167C98.0096 25.3364 98.125 24.8858 98.4368 24.5651C98.7494 24.2597 99.2259 24.0687 99.8671 23.9924C100.574 23.916 101.273 23.7938 101.963 23.6258C102.654 23.4731 103.27 23.2517 103.813 22.9614C104.372 22.6712 104.824 22.32 105.169 21.9076C105.514 21.48 105.696 20.976 105.712 20.3956V20.0978C105.712 19.6701 105.893 19.3342 106.254 19.0898C106.616 18.8302 107.117 18.7003 107.758 18.7003C108.399 18.7003 108.901 18.8302 109.263 19.0898C109.625 19.3342 109.805 19.6701 109.805 20.0978V20.4185ZM113.923 9.30755C113.923 8.54394 114.08 8.02464 114.392 7.74973C114.705 7.45954 115.124 7.31445 115.65 7.31445C116.159 7.31445 116.571 7.45954 116.883 7.74973C117.212 8.02464 117.376 8.54394 117.376 9.30755V16.9821C117.376 17.7764 117.22 18.3109 116.907 18.5858C116.611 18.8607 116.201 18.9982 115.674 18.9982C115.148 18.9982 114.721 18.8607 114.392 18.5858C114.08 18.3109 113.923 17.7764 113.923 16.9821V9.30755Z"/>
</mask>
<path d="M33.9119 7.38318C35.7532 7.38318 37.1753 7.78791 38.1781 8.59737C39.1974 9.39158 39.7646 10.5523 39.8797 12.0796C39.8961 12.2781 39.9043 12.5454 39.9043 12.8814C39.9043 13.2021 39.9043 13.5381 39.9043 13.8894C39.9043 14.2254 39.9043 14.5538 39.9043 14.8745C39.9043 15.1952 39.8961 15.4548 39.8797 15.6534C39.8468 16.8905 39.4933 17.8756 38.8193 18.6087C38.1617 19.3265 37.2246 19.8153 36.008 20.0749V23.5342H39.1399C39.6002 23.5342 39.9783 23.5724 40.2742 23.6487C40.5702 23.7404 40.8003 23.8549 40.9647 23.9924C41.1291 24.1451 41.236 24.3131 41.2853 24.4964C41.3511 24.6949 41.3839 24.9087 41.3839 25.1378C41.3839 25.3211 41.3511 25.5044 41.2853 25.6876C41.236 25.8862 41.1291 26.0542 40.9647 26.1916C40.8003 26.3444 40.5702 26.4666 40.2742 26.5582C39.9783 26.6498 39.6002 26.6956 39.1399 26.6956H29.6704C29.21 26.6956 28.832 26.6498 28.536 26.5582C28.2401 26.4666 28.01 26.3444 27.8456 26.1916C27.6811 26.0542 27.5661 25.8862 27.5003 25.6876C27.451 25.5044 27.4263 25.3211 27.4263 25.1378C27.4263 24.9087 27.451 24.6949 27.5003 24.4964C27.5661 24.3131 27.6811 24.1451 27.8456 23.9924C28.01 23.8549 28.2401 23.7404 28.536 23.6487C28.832 23.5724 29.21 23.5342 29.6704 23.5342H32.0131V20.0978C30.7308 19.8687 29.7526 19.38 29.0786 18.6316C28.4045 17.8832 28.0264 16.8905 27.9442 15.6534C27.9277 15.4548 27.9113 15.1952 27.8949 14.8745C27.8949 14.5385 27.8949 14.2025 27.8949 13.8665C27.8949 13.5152 27.8949 13.1792 27.8949 12.8585C27.9113 12.5378 27.9277 12.2781 27.9442 12.0796C28.0264 10.5523 28.5525 9.39158 29.5224 8.59737C30.5088 7.78791 31.972 7.38318 33.9119 7.38318ZM42.5676 9.30755C42.5676 8.54394 42.7649 8.02464 43.1595 7.74973C43.5705 7.45954 44.039 7.31445 44.5651 7.31445C44.8282 7.31445 45.0748 7.345 45.3049 7.40609C45.5515 7.46718 45.7652 7.57409 45.946 7.72682C46.1269 7.87955 46.2748 8.08576 46.3899 8.34537C46.505 8.60498 46.5626 8.92571 46.5626 9.30755V14.8058H47.8202C48.2806 14.8058 48.6587 14.8592 48.9546 14.9661C49.2505 15.0578 49.4806 15.1799 49.6451 15.3327C49.8095 15.4854 49.9163 15.661 49.9656 15.8596C50.0314 16.0429 50.0643 16.2261 50.0643 16.4094C50.0643 16.6385 50.0314 16.8523 49.9656 17.0509C49.9163 17.2494 49.8095 17.425 49.6451 17.5778C49.4806 17.7152 49.2505 17.8298 48.9546 17.9214C48.6587 18.0131 48.2806 18.0589 47.8202 18.0589H46.5626V24.9545C46.5626 25.3516 46.505 25.68 46.3899 25.9396C46.2748 26.1993 46.1269 26.4054 45.946 26.5582C45.7652 26.7109 45.5515 26.8178 45.3049 26.8789C45.0748 26.94 44.8282 26.9706 44.5651 26.9706C44.302 26.9706 44.0472 26.94 43.8006 26.8789C43.5705 26.8178 43.3567 26.7109 43.1595 26.5582C42.9787 26.4054 42.8307 26.1993 42.7156 25.9396C42.6169 25.68 42.5676 25.3516 42.5676 24.9545V9.30755ZM35.8847 11.9879C35.8847 11.6672 35.8026 11.4076 35.6381 11.209C35.4902 11.0104 35.3094 10.8654 35.0956 10.7737C34.8819 10.6668 34.6599 10.5981 34.4298 10.5676C34.216 10.537 34.0434 10.5217 33.9119 10.5217C33.7804 10.5217 33.6078 10.5447 33.3941 10.5905C33.1803 10.621 32.9667 10.6897 32.7529 10.7967C32.5392 10.9036 32.3502 11.064 32.1857 11.2777C32.0378 11.4763 31.9556 11.7359 31.9391 12.0567C31.9227 12.2705 31.9063 12.5454 31.8898 12.8814C31.8898 13.2021 31.8898 13.5381 31.8898 13.8894C31.8898 14.2254 31.8898 14.5538 31.8898 14.8745C31.9063 15.1952 31.9227 15.4548 31.9391 15.6534C31.9391 16.0047 32.0131 16.2796 32.1611 16.4781C32.309 16.6614 32.4898 16.8065 32.7036 16.9134C32.9173 17.0203 33.131 17.0891 33.3448 17.1196C33.5749 17.1349 33.764 17.1425 33.9119 17.1425C34.0434 17.1425 34.216 17.1349 34.4298 17.1196C34.6435 17.0891 34.8572 17.0203 35.071 16.9134C35.2847 16.8065 35.4655 16.6614 35.6135 16.4781C35.7779 16.2796 35.8683 16.0047 35.8847 15.6534C35.9012 15.4396 35.9094 15.1723 35.9094 14.8516C35.9094 14.5156 35.9094 14.1719 35.9094 13.8207C35.9094 13.4541 35.9094 13.1105 35.9094 12.7898C35.9094 12.469 35.9012 12.2017 35.8847 11.9879ZM52.2146 17.5091C51.6391 17.5091 51.2199 17.4174 50.9569 17.2341C50.7103 17.0356 50.587 16.7301 50.587 16.3178C50.587 15.9817 50.7103 15.7068 50.9569 15.493C51.2199 15.2639 51.6391 15.1494 52.2146 15.1494H70.6356C71.211 15.1494 71.622 15.2639 71.8686 15.493C72.1316 15.7068 72.2632 15.9817 72.2632 16.3178C72.2632 16.7301 72.1316 17.0356 71.8686 17.2341C71.622 17.4174 71.211 17.5091 70.6356 17.5091H52.2146ZM56.3328 24.0382V24.9545H68.9587C69.419 24.9545 69.7889 24.9851 70.0684 25.0462C70.3479 25.1073 70.5617 25.1912 70.7096 25.2982C70.8576 25.4051 70.9479 25.5349 70.9809 25.6876C71.0302 25.8404 71.0549 26.0084 71.0549 26.1916C71.0549 26.4054 71.0302 26.5887 70.9809 26.7415C70.9479 26.8942 70.8576 27.024 70.7096 27.1309C70.5617 27.2379 70.3479 27.3142 70.0684 27.36C69.7889 27.4058 69.419 27.4287 68.9587 27.4287H54.3353C53.875 27.4287 53.5133 27.3829 53.2503 27.2913C52.9872 27.2149 52.7817 27.1004 52.6338 26.9476C52.5022 26.8102 52.42 26.6422 52.3872 26.4436C52.3542 26.2604 52.3379 26.0618 52.3379 25.848V22.8469C52.3379 22.6941 52.3542 22.5491 52.3872 22.4116C52.4365 22.2589 52.5269 22.1291 52.6584 22.0222C52.7899 21.9152 52.979 21.8313 53.2256 21.7702C53.4722 21.709 53.801 21.6785 54.212 21.6785H66.5174V20.8767H53.9901C53.2996 20.8767 52.8392 20.7698 52.6091 20.556C52.3789 20.3269 52.2639 20.0215 52.2639 19.6396C52.2639 19.3342 52.3789 19.0593 52.6091 18.8149C52.8392 18.5553 53.2996 18.4254 53.9901 18.4254H68.6628C69.0574 18.4254 69.378 18.4636 69.6246 18.54C69.8712 18.6163 70.0602 18.7156 70.1917 18.8378C70.3232 18.9599 70.4054 19.0974 70.4383 19.2502C70.4877 19.3876 70.5123 19.5327 70.5123 19.6854V22.8927C70.5123 23.2593 70.3972 23.5418 70.1671 23.7404C69.9369 23.9389 69.4273 24.0382 68.6382 24.0382H56.3328ZM51.968 12.9272C51.968 12.4843 52.0994 12.1636 52.3625 11.965C52.6255 11.7512 53.1598 11.6443 53.9654 11.6443H55.2724V10.0865H54.0887C53.2831 10.0865 52.7488 9.97953 52.4858 9.76574C52.2227 9.53665 52.0913 9.23122 52.0913 8.84937C52.0913 8.40649 52.2227 8.08576 52.4858 7.88718C52.7488 7.67336 53.2831 7.56645 54.0887 7.56645H68.7615C69.567 7.56645 70.1013 7.67336 70.3644 7.88718C70.6273 8.08576 70.7589 8.40649 70.7589 8.84937C70.7589 9.23122 70.6273 9.53665 70.3644 9.76574C70.1013 9.97953 69.567 10.0865 68.7615 10.0865H67.5778V11.6443H68.8848C69.6903 11.6443 70.2246 11.7512 70.4877 11.965C70.7506 12.1636 70.8822 12.4843 70.8822 12.9272C70.8822 13.3091 70.7506 13.6145 70.4877 13.8436C70.2246 14.0574 69.6903 14.1643 68.8848 14.1643H53.9654C53.1598 14.1643 52.6255 14.0574 52.3625 13.8436C52.0994 13.6145 51.968 13.3091 51.968 12.9272ZM59.2673 11.6443H63.5828V10.0865H59.2673V11.6443ZM82.9704 7.54355C83.4308 7.54355 83.7925 7.597 84.0555 7.70391C84.3185 7.79555 84.5158 7.92537 84.6473 8.09337C84.7953 8.26134 84.8857 8.4523 84.9186 8.6661C84.9515 8.86467 84.9679 9.07846 84.9679 9.30755V24.7942C84.9679 25.0233 84.9515 25.2295 84.9186 25.4127C84.8857 25.6113 84.7953 25.7793 84.6473 25.9167C84.5158 26.0695 84.3185 26.184 84.0555 26.2604C83.7925 26.352 83.4308 26.3978 82.9704 26.3978H76.6081C76.1479 26.3978 75.7861 26.352 75.5231 26.2604C75.2601 26.184 75.0545 26.0695 74.9066 25.9167C74.7751 25.7793 74.6929 25.6113 74.66 25.4127C74.6271 25.2295 74.6107 25.0233 74.6107 24.7942V9.30755C74.6107 9.07846 74.6271 8.86467 74.66 8.6661C74.6929 8.4523 74.7751 8.26134 74.9066 8.09337C75.0545 7.92537 75.2601 7.79555 75.5231 7.70391C75.7861 7.597 76.1479 7.54355 76.6081 7.54355H82.9704ZM88.3957 9.30755C88.3957 8.54394 88.593 8.02464 88.9876 7.74973C89.3989 7.45954 89.8674 7.31445 90.3932 7.31445C90.6565 7.31445 90.9031 7.345 91.133 7.40609C91.3796 7.46718 91.5936 7.57409 91.7742 7.72682C91.9547 7.87955 92.1027 8.08576 92.218 8.34537C92.3334 8.60498 92.3907 8.92571 92.3907 9.30755V14.8058H93.9443C94.4049 14.8058 94.7827 14.8516 95.0786 14.9432C95.3745 15.0349 95.6044 15.157 95.7691 15.3098C95.9338 15.4472 96.0404 15.6152 96.0897 15.8138C96.1557 15.997 96.1883 16.1803 96.1883 16.3636C96.1883 16.5927 96.1557 16.8065 96.0897 17.0051C96.0404 17.1883 95.9338 17.3563 95.7691 17.5091C95.6044 17.6465 95.3745 17.7611 95.0786 17.8527C94.7827 17.929 94.4049 17.9672 93.9443 17.9672H92.3907V24.9545C92.3907 25.3516 92.3334 25.68 92.218 25.9396C92.1027 26.1993 91.9547 26.4054 91.7742 26.5582C91.5936 26.7109 91.3796 26.8178 91.133 26.8789C90.9031 26.94 90.6565 26.9706 90.3932 26.9706C90.1299 26.9706 89.8753 26.94 89.6287 26.8789C89.3989 26.8178 89.1849 26.7109 88.9876 26.5582C88.807 26.4054 88.6591 26.1993 88.5437 25.9396C88.4451 25.68 88.3957 25.3516 88.3957 24.9545V9.30755ZM81.0716 10.705H78.5069V23.2364H81.0716V10.705ZM104.257 7.58936C104.7 7.58936 105.046 7.63518 105.292 7.72682C105.539 7.80318 105.728 7.91773 105.859 8.07046C105.992 8.20791 106.073 8.38358 106.106 8.59737C106.14 8.81116 106.155 9.05555 106.155 9.33046V11.4839H108.621V9.30755C108.621 8.54394 108.778 8.02464 109.09 7.74973C109.403 7.45954 109.822 7.31445 110.348 7.31445C110.858 7.31445 111.269 7.45954 111.581 7.74973C111.91 8.02464 112.074 8.54394 112.074 9.30755V16.1803C112.074 16.9745 111.918 17.5091 111.605 17.784C111.309 18.0589 110.899 18.1963 110.372 18.1963C109.846 18.1963 109.419 18.0589 109.09 17.784C108.778 17.5091 108.621 16.9745 108.621 16.1803V14.737H105.933C105.802 15.3785 105.572 16.0123 105.243 16.6385C104.914 17.2647 104.438 17.8527 103.813 18.4025C103.402 18.7538 102.999 18.937 102.604 18.9523C102.227 18.9523 101.857 18.8607 101.495 18.6774C101.297 18.5858 101.134 18.4559 101.001 18.288C100.87 18.12 100.779 17.9367 100.73 17.7381C100.681 17.5244 100.681 17.3105 100.73 17.0967C100.779 16.8676 100.887 16.6538 101.051 16.4552C101.265 16.1956 101.454 15.9512 101.618 15.7221C101.783 15.493 101.923 15.2563 102.037 15.0119H98.708C98.2483 15.0119 97.8784 14.9814 97.5983 14.9203C97.3191 14.844 97.1051 14.7446 96.9572 14.6225C96.8092 14.485 96.7106 14.3247 96.6613 14.1414C96.6287 13.9581 96.6119 13.7519 96.6119 13.5228C96.6119 13.3396 96.6366 13.1639 96.6859 12.9959C96.7352 12.8127 96.8339 12.6523 96.9818 12.5148C97.1465 12.3774 97.3685 12.2705 97.6477 12.1941C97.9277 12.1178 98.2976 12.0796 98.7574 12.0796H102.407V10.5676H98.9793C98.5196 10.5676 98.1497 10.5294 97.8696 10.453C97.5904 10.3767 97.3764 10.2774 97.2284 10.1552C97.0805 10.0177 96.9818 9.85738 96.9325 9.6741C96.8999 9.49083 96.8832 9.28465 96.8832 9.05555C96.8832 8.87228 96.9079 8.69662 96.9572 8.52864C97.0065 8.34537 97.1051 8.185 97.2531 8.04755C97.4178 7.91009 97.6397 7.80318 97.9189 7.72682C98.199 7.63518 98.5689 7.58936 99.0286 7.58936H104.257ZM109.805 20.4185C109.805 20.953 109.978 21.4265 110.323 21.8389C110.685 22.2513 111.137 22.6025 111.679 22.8927C112.239 23.1829 112.863 23.4196 113.553 23.6029C114.244 23.7862 114.934 23.916 115.625 23.9924C116.266 24.0687 116.743 24.2597 117.055 24.5651C117.368 24.8858 117.483 25.3364 117.4 25.9167C117.351 26.2222 117.252 26.4666 117.104 26.6498C116.973 26.8331 116.809 26.9782 116.611 27.0851C116.414 27.192 116.192 27.2608 115.945 27.2913C115.699 27.3218 115.452 27.3295 115.206 27.3142C113.825 27.2073 112.502 26.8865 111.235 26.352C109.97 25.8175 108.868 25.176 107.931 24.4276C107.471 24.7942 106.937 25.1378 106.328 25.4585C105.736 25.7946 105.104 26.0924 104.429 26.352C103.772 26.6116 103.09 26.8255 102.382 26.9935C101.676 27.1614 100.977 27.2684 100.286 27.3142C100.04 27.3295 99.7931 27.3218 99.5465 27.2913C99.2999 27.2608 99.0779 27.192 98.8807 27.0851C98.6834 26.9782 98.5108 26.8331 98.3628 26.6498C98.2316 26.4666 98.1409 26.2222 98.0915 25.9167C98.0096 25.3364 98.125 24.8858 98.4368 24.5651C98.7494 24.2597 99.2259 24.0687 99.8671 23.9924C100.574 23.916 101.273 23.7938 101.963 23.6258C102.654 23.4731 103.27 23.2517 103.813 22.9614C104.372 22.6712 104.824 22.32 105.169 21.9076C105.514 21.48 105.696 20.976 105.712 20.3956V20.0978C105.712 19.6701 105.893 19.3342 106.254 19.0898C106.616 18.8302 107.117 18.7003 107.758 18.7003C108.399 18.7003 108.901 18.8302 109.263 19.0898C109.625 19.3342 109.805 19.6701 109.805 20.0978V20.4185ZM113.923 9.30755C113.923 8.54394 114.08 8.02464 114.392 7.74973C114.705 7.45954 115.124 7.31445 115.65 7.31445C116.159 7.31445 116.571 7.45954 116.883 7.74973C117.212 8.02464 117.376 8.54394 117.376 9.30755V16.9821C117.376 17.7764 117.22 18.3109 116.907 18.5858C116.611 18.8607 116.201 18.9982 115.674 18.9982C115.148 18.9982 114.721 18.8607 114.392 18.5858C114.08 18.3109 113.923 17.7764 113.923 16.9821V9.30755Z" fill="#FF7E36" stroke="#FF7E36" stroke-width="3" mask="url(#path-3-inside-1_45_5274)"/>
</svg>
