<svg width="136" height="38" viewBox="0 0 136 38" fill="none" xmlns="http://www.w3.org/2000/svg">
<path d="M13.0222 6.47218C10.5833 6.46903 8.19263 7.16599 6.12319 8.48351C4.05376 9.80098 2.38894 11.686 1.31881 13.9232C0.248673 16.1604 -0.183646 18.6597 0.0712059 21.1357C0.326059 23.6118 1.25781 25.9648 2.76009 27.9261L3.16459 28.4377C3.36685 28.6802 3.57789 28.9225 3.79773 29.1469C6.31298 31.8855 9.48739 33.9035 13.0046 34.9996C16.5194 33.9035 19.691 31.8855 22.2027 29.1469C22.4226 28.9225 22.6336 28.6802 22.8359 28.4377L23.2492 27.9261C24.7479 25.9638 25.6767 23.6113 25.9297 21.1366C26.1827 18.6617 25.7498 16.1642 24.6803 13.9282C23.6108 11.6924 21.9477 9.80798 19.8803 8.48975C17.813 7.17154 15.4245 6.47247 12.987 6.47218H13.0222ZM13.0222 24.8471C12.0378 24.8471 11.0755 24.5492 10.257 23.9909C9.43855 23.4327 8.80061 22.6391 8.4239 21.7107C8.04719 20.7823 7.94863 19.7608 8.14067 18.7753C8.33272 17.7896 8.80675 16.8843 9.50282 16.1738C10.1989 15.4632 11.0857 14.9794 12.0512 14.7833C13.0167 14.5873 14.0174 14.6879 14.9269 15.0724C15.8363 15.457 16.6137 16.1082 17.1606 16.9437C17.7075 17.7792 17.9994 18.7615 17.9994 19.7664C17.9994 21.1139 17.475 22.4062 16.5416 23.3591C15.6082 24.3119 14.3422 24.8471 13.0222 24.8471Z" fill="white" fill-opacity="0.7"/>
<path d="M17.2609 6.19429C17.7149 6.08354 18.1137 5.8075 18.3826 5.41794C18.6514 5.02837 18.7717 4.55206 18.721 4.07837C18.6703 3.60467 18.452 3.16615 18.1071 2.84507C17.7622 2.52398 17.3143 2.34239 16.8476 2.33438C16.562 2.33614 16.2801 2.40042 16.021 2.52289C15.8845 1.81222 15.5104 1.17203 14.9626 0.711825C14.4148 0.251621 13.7274 0 13.018 0C12.3085 0 11.6211 0.251621 11.0734 0.711825C10.5256 1.17203 10.1514 1.81222 10.015 2.52289C9.7558 2.40042 9.47392 2.33614 9.18835 2.33438C8.71024 2.32359 8.24559 2.49644 7.88638 2.81872C7.52718 3.141 7.29962 3.58921 7.24875 4.07462C7.19788 4.56002 7.32742 5.04723 7.61171 5.43978C7.896 5.83234 8.31432 6.10161 8.78384 6.19429C11.5278 5.21314 14.5169 5.21314 17.2609 6.19429Z" fill="white" fill-opacity="0.7"/>
<path d="M38.372 8.74386C40.4627 8.74386 42.0773 9.2138 43.216 10.1537C44.3733 11.0758 45.0173 12.4235 45.148 14.1969C45.1667 14.4274 45.176 14.7377 45.176 15.1279C45.176 15.5003 45.176 15.8904 45.176 16.2983C45.176 16.6884 45.176 17.0697 45.176 17.4421C45.176 17.8145 45.1667 18.1159 45.148 18.3465C45.1107 19.7829 44.7093 20.9267 43.944 21.7779C43.1973 22.6113 42.1333 23.1788 40.752 23.4803V27.4969H44.308C44.8307 27.4969 45.26 27.5412 45.596 27.6299C45.932 27.7363 46.1933 27.8693 46.38 28.0289C46.5667 28.2062 46.688 28.4013 46.744 28.6141C46.8187 28.8446 46.856 29.0929 46.856 29.3589C46.856 29.5717 46.8187 29.7845 46.744 29.9973C46.688 30.2278 46.5667 30.4229 46.38 30.5825C46.1933 30.7598 45.932 30.9017 45.596 31.0081C45.26 31.1145 44.8307 31.1677 44.308 31.1677H33.556C33.0333 31.1677 32.604 31.1145 32.268 31.0081C31.932 30.9017 31.6707 30.7598 31.484 30.5825C31.2973 30.4229 31.1667 30.2278 31.092 29.9973C31.036 29.7845 31.008 29.5717 31.008 29.3589C31.008 29.0929 31.036 28.8446 31.092 28.6141C31.1667 28.4013 31.2973 28.2062 31.484 28.0289C31.6707 27.8693 31.932 27.7363 32.268 27.6299C32.604 27.5412 33.0333 27.4969 33.556 27.4969H36.216V23.5069C34.76 23.2409 33.6493 22.6734 32.884 21.8045C32.1187 20.9355 31.6893 19.7829 31.596 18.3465C31.5773 18.1159 31.5587 17.8145 31.54 17.4421C31.54 17.0519 31.54 16.6618 31.54 16.2717C31.54 15.8638 31.54 15.4737 31.54 15.1013C31.5587 14.7289 31.5773 14.4274 31.596 14.1969C31.6893 12.4235 32.2867 11.0758 33.388 10.1537C34.508 9.2138 36.1693 8.74386 38.372 8.74386ZM48.2 10.9783C48.2 10.0916 48.424 9.48866 48.872 9.16946C49.3387 8.83253 49.8707 8.66406 50.468 8.66406C50.7667 8.66406 51.0467 8.69953 51.308 8.77046C51.588 8.8414 51.8307 8.96553 52.036 9.14286C52.2413 9.3202 52.4093 9.55963 52.54 9.86106C52.6707 10.1625 52.736 10.5349 52.736 10.9783V17.3623H54.164C54.6867 17.3623 55.116 17.4243 55.452 17.5485C55.788 17.6549 56.0493 17.7967 56.236 17.9741C56.4227 18.1514 56.544 18.3553 56.6 18.5859C56.6747 18.7987 56.712 19.0115 56.712 19.2243C56.712 19.4903 56.6747 19.7385 56.6 19.9691C56.544 20.1996 56.4227 20.4035 56.236 20.5809C56.0493 20.7405 55.788 20.8735 55.452 20.9799C55.116 21.0863 54.6867 21.1395 54.164 21.1395H52.736V29.1461C52.736 29.6071 52.6707 29.9884 52.54 30.2899C52.4093 30.5913 52.2413 30.8307 52.036 31.0081C51.8307 31.1854 51.588 31.3095 51.308 31.3805C51.0467 31.4514 50.7667 31.4869 50.468 31.4869C50.1693 31.4869 49.88 31.4514 49.6 31.3805C49.3387 31.3095 49.096 31.1854 48.872 31.0081C48.6667 30.8307 48.4987 30.5913 48.368 30.2899C48.256 29.9884 48.2 29.6071 48.2 29.1461V10.9783ZM40.612 14.0905C40.612 13.7181 40.5187 13.4166 40.332 13.1861C40.164 12.9555 39.9587 12.7871 39.716 12.6807C39.4733 12.5565 39.2213 12.4767 38.96 12.4413C38.7173 12.4058 38.5213 12.3881 38.372 12.3881C38.2227 12.3881 38.0267 12.4147 37.784 12.4679C37.5413 12.5033 37.2987 12.5831 37.056 12.7073C36.8133 12.8314 36.5987 13.0176 36.412 13.2659C36.244 13.4964 36.1507 13.7979 36.132 14.1703C36.1133 14.4185 36.0947 14.7377 36.076 15.1279C36.076 15.5003 36.076 15.8904 36.076 16.2983C36.076 16.6884 36.076 17.0697 36.076 17.4421C36.0947 17.8145 36.1133 18.1159 36.132 18.3465C36.132 18.7543 36.216 19.0735 36.384 19.3041C36.552 19.5169 36.7573 19.6853 37 19.8095C37.2427 19.9336 37.4853 20.0134 37.728 20.0489C37.9893 20.0666 38.204 20.0755 38.372 20.0755C38.5213 20.0755 38.7173 20.0666 38.96 20.0489C39.2027 20.0134 39.4453 19.9336 39.688 19.8095C39.9307 19.6853 40.136 19.5169 40.304 19.3041C40.4907 19.0735 40.5933 18.7543 40.612 18.3465C40.6307 18.0982 40.64 17.7879 40.64 17.4155C40.64 17.0253 40.64 16.6263 40.64 16.2185C40.64 15.7929 40.64 15.3939 40.64 15.0215C40.64 14.6491 40.6307 14.3387 40.612 14.0905ZM59.1535 20.5011C58.5001 20.5011 58.0241 20.3947 57.7255 20.1819C57.4455 19.9513 57.3055 19.5967 57.3055 19.1179C57.3055 18.7277 57.4455 18.4085 57.7255 18.1603C58.0241 17.8943 58.5001 17.7613 59.1535 17.7613H80.0695C80.7228 17.7613 81.1895 17.8943 81.4695 18.1603C81.7681 18.4085 81.9175 18.7277 81.9175 19.1179C81.9175 19.5967 81.7681 19.9513 81.4695 20.1819C81.1895 20.3947 80.7228 20.5011 80.0695 20.5011H59.1535ZM63.8295 28.0821V29.1461H78.1655C78.6881 29.1461 79.1081 29.1815 79.4255 29.2525C79.7428 29.3234 79.9855 29.4209 80.1535 29.5451C80.3215 29.6692 80.4241 29.8199 80.4615 29.9973C80.5175 30.1746 80.5455 30.3697 80.5455 30.5825C80.5455 30.8307 80.5175 31.0435 80.4615 31.2209C80.4241 31.3982 80.3215 31.5489 80.1535 31.6731C79.9855 31.7972 79.7428 31.8859 79.4255 31.9391C79.1081 31.9923 78.6881 32.0189 78.1655 32.0189H61.5615C61.0388 32.0189 60.6281 31.9657 60.3295 31.8593C60.0308 31.7706 59.7975 31.6376 59.6295 31.4603C59.4801 31.3007 59.3868 31.1056 59.3495 30.8751C59.3121 30.6623 59.2935 30.4317 59.2935 30.1835V26.6989C59.2935 26.5215 59.3121 26.3531 59.3495 26.1935C59.4055 26.0161 59.5081 25.8654 59.6575 25.7413C59.8068 25.6171 60.0215 25.5196 60.3015 25.4487C60.5815 25.3777 60.9548 25.3423 61.4215 25.3423H75.3935V24.4113H61.1695C60.3855 24.4113 59.8628 24.2871 59.6015 24.0389C59.3401 23.7729 59.2095 23.4182 59.2095 22.9749C59.2095 22.6202 59.3401 22.301 59.6015 22.0173C59.8628 21.7158 60.3855 21.5651 61.1695 21.5651H77.8295C78.2775 21.5651 78.6415 21.6094 78.9215 21.6981C79.2015 21.7867 79.4161 21.902 79.5655 22.0439C79.7148 22.1857 79.8081 22.3453 79.8455 22.5227C79.9015 22.6823 79.9295 22.8507 79.9295 23.0281V26.7521C79.9295 27.1777 79.7988 27.5057 79.5375 27.7363C79.2761 27.9668 78.6975 28.0821 77.8015 28.0821H63.8295ZM58.8735 15.1811C58.8735 14.6668 59.0228 14.2944 59.3215 14.0639C59.6201 13.8156 60.2268 13.6915 61.1415 13.6915H62.6255V11.8827H61.2815C60.3668 11.8827 59.7601 11.7585 59.4615 11.5103C59.1628 11.2443 59.0135 10.8896 59.0135 10.4463C59.0135 9.93203 59.1628 9.55963 59.4615 9.32906C59.7601 9.08079 60.3668 8.95666 61.2815 8.95666H77.9415C78.8561 8.95666 79.4628 9.08079 79.7615 9.32906C80.0601 9.55963 80.2095 9.93203 80.2095 10.4463C80.2095 10.8896 80.0601 11.2443 79.7615 11.5103C79.4628 11.7585 78.8561 11.8827 77.9415 11.8827H76.5975V13.6915H78.0815C78.9961 13.6915 79.6028 13.8156 79.9015 14.0639C80.2001 14.2944 80.3495 14.6668 80.3495 15.1811C80.3495 15.6244 80.2001 15.9791 79.9015 16.2451C79.6028 16.4933 78.9961 16.6175 78.0815 16.6175H61.1415C60.2268 16.6175 59.6201 16.4933 59.3215 16.2451C59.0228 15.9791 58.8735 15.6244 58.8735 15.1811ZM67.1615 13.6915H72.0615V11.8827H67.1615V13.6915ZM94.0749 8.93006C94.5976 8.93006 95.0083 8.99213 95.3069 9.11626C95.6056 9.22266 95.8296 9.3734 95.9789 9.56846C96.1469 9.7635 96.2496 9.98523 96.2869 10.2335C96.3243 10.464 96.3429 10.7123 96.3429 10.9783V28.9599C96.3429 29.2259 96.3243 29.4653 96.2869 29.6781C96.2496 29.9086 96.1469 30.1037 95.9789 30.2633C95.8296 30.4406 95.6056 30.5736 95.3069 30.6623C95.0083 30.7687 94.5976 30.8219 94.0749 30.8219H86.8509C86.3283 30.8219 85.9176 30.7687 85.6189 30.6623C85.3203 30.5736 85.0869 30.4406 84.9189 30.2633C84.7696 30.1037 84.6763 29.9086 84.6389 29.6781C84.6016 29.4653 84.5829 29.2259 84.5829 28.9599V10.9783C84.5829 10.7123 84.6016 10.464 84.6389 10.2335C84.6763 9.98523 84.7696 9.7635 84.9189 9.56846C85.0869 9.3734 85.3203 9.22266 85.6189 9.11626C85.9176 8.99213 86.3283 8.93006 86.8509 8.93006H94.0749ZM100.235 10.9783C100.235 10.0916 100.459 9.48866 100.907 9.16946C101.374 8.83253 101.906 8.66406 102.503 8.66406C102.802 8.66406 103.082 8.69953 103.343 8.77046C103.623 8.8414 103.866 8.96553 104.071 9.14286C104.276 9.3202 104.444 9.55963 104.575 9.86106C104.706 10.1625 104.771 10.5349 104.771 10.9783V17.3623H106.535C107.058 17.3623 107.487 17.4155 107.823 17.5219C108.159 17.6283 108.42 17.7701 108.607 17.9475C108.794 18.1071 108.915 18.3021 108.971 18.5327C109.046 18.7455 109.083 18.9583 109.083 19.1711C109.083 19.4371 109.046 19.6853 108.971 19.9159C108.915 20.1287 108.794 20.3237 108.607 20.5011C108.42 20.6607 108.159 20.7937 107.823 20.9001C107.487 20.9887 107.058 21.0331 106.535 21.0331H104.771V29.1461C104.771 29.6071 104.706 29.9884 104.575 30.2899C104.444 30.5913 104.276 30.8307 104.071 31.0081C103.866 31.1854 103.623 31.3095 103.343 31.3805C103.082 31.4514 102.802 31.4869 102.503 31.4869C102.204 31.4869 101.915 31.4514 101.635 31.3805C101.374 31.3095 101.131 31.1854 100.907 31.0081C100.702 30.8307 100.534 30.5913 100.403 30.2899C100.291 29.9884 100.235 29.6071 100.235 29.1461V10.9783ZM91.9189 12.6009H89.0069V27.1511H91.9189V12.6009ZM118.244 8.98326C118.748 8.98326 119.14 9.03646 119.42 9.14286C119.7 9.23153 119.915 9.36453 120.064 9.54186C120.214 9.70146 120.307 9.90543 120.344 10.1537C120.382 10.4019 120.4 10.6857 120.4 11.0049V13.5053H123.2V10.9783C123.2 10.0916 123.378 9.48866 123.732 9.16946C124.087 8.83253 124.563 8.66406 125.16 8.66406C125.739 8.66406 126.206 8.83253 126.56 9.16946C126.934 9.48866 127.12 10.0916 127.12 10.9783V18.9583C127.12 19.8804 126.943 20.5011 126.588 20.8203C126.252 21.1395 125.786 21.2991 125.188 21.2991C124.591 21.2991 124.106 21.1395 123.732 20.8203C123.378 20.5011 123.2 19.8804 123.2 18.9583V17.2825H120.148C119.999 18.0273 119.738 18.7632 119.364 19.4903C118.991 20.2173 118.45 20.9001 117.74 21.5385C117.274 21.9463 116.816 22.1591 116.368 22.1769C115.939 22.1769 115.519 22.0705 115.108 21.8577C114.884 21.7513 114.698 21.6005 114.548 21.4055C114.399 21.2104 114.296 20.9976 114.24 20.7671C114.184 20.5188 114.184 20.2705 114.24 20.0223C114.296 19.7563 114.418 19.508 114.604 19.2775C114.847 18.976 115.062 18.6923 115.248 18.4263C115.435 18.1603 115.594 17.8854 115.724 17.6017H111.944C111.422 17.6017 111.002 17.5662 110.684 17.4953C110.367 17.4066 110.124 17.2913 109.956 17.1495C109.788 16.9899 109.676 16.8037 109.62 16.5909C109.583 16.3781 109.564 16.1387 109.564 15.8727C109.564 15.6599 109.592 15.4559 109.648 15.2609C109.704 15.0481 109.816 14.8619 109.984 14.7023C110.171 14.5427 110.423 14.4185 110.74 14.3299C111.058 14.2412 111.478 14.1969 112 14.1969H116.144V12.4413H112.252C111.73 12.4413 111.31 12.3969 110.992 12.3083C110.675 12.2196 110.432 12.1043 110.264 11.9625C110.096 11.8029 109.984 11.6167 109.928 11.4039C109.891 11.1911 109.872 10.9517 109.872 10.6857C109.872 10.4729 109.9 10.2689 109.956 10.0739C110.012 9.86106 110.124 9.67486 110.292 9.51526C110.479 9.35566 110.731 9.23153 111.048 9.14286C111.366 9.03646 111.786 8.98326 112.308 8.98326H118.244ZM124.544 23.8793C124.544 24.4999 124.74 25.0497 125.132 25.5285C125.543 26.0073 126.056 26.4151 126.672 26.7521C127.307 27.089 128.016 27.3639 128.8 27.5767C129.584 27.7895 130.368 27.9402 131.152 28.0289C131.88 28.1175 132.422 28.3392 132.776 28.6939C133.131 29.0663 133.262 29.5894 133.168 30.2633C133.112 30.6179 133 30.9017 132.832 31.1145C132.683 31.3273 132.496 31.4957 132.272 31.6199C132.048 31.744 131.796 31.8238 131.516 31.8593C131.236 31.8947 130.956 31.9036 130.676 31.8859C129.108 31.7617 127.606 31.3893 126.168 30.7687C124.731 30.148 123.48 29.4032 122.416 28.5343C121.894 28.9599 121.287 29.3589 120.596 29.7313C119.924 30.1214 119.206 30.4672 118.44 30.7687C117.694 31.0701 116.919 31.3184 116.116 31.5135C115.314 31.7085 114.52 31.8327 113.736 31.8859C113.456 31.9036 113.176 31.8947 112.896 31.8593C112.616 31.8238 112.364 31.744 112.14 31.6199C111.916 31.4957 111.72 31.3273 111.552 31.1145C111.403 30.9017 111.3 30.6179 111.244 30.2633C111.151 29.5894 111.282 29.0663 111.636 28.6939C111.991 28.3392 112.532 28.1175 113.26 28.0289C114.063 27.9402 114.856 27.7983 115.64 27.6033C116.424 27.4259 117.124 27.1688 117.74 26.8319C118.375 26.4949 118.888 26.0871 119.28 25.6083C119.672 25.1117 119.878 24.5265 119.896 23.8527V23.5069C119.896 23.0103 120.102 22.6202 120.512 22.3365C120.923 22.035 121.492 21.8843 122.22 21.8843C122.948 21.8843 123.518 22.035 123.928 22.3365C124.339 22.6202 124.544 23.0103 124.544 23.5069V23.8793ZM129.22 10.9783C129.22 10.0916 129.398 9.48866 129.752 9.16946C130.107 8.83253 130.583 8.66406 131.18 8.66406C131.759 8.66406 132.226 8.83253 132.58 9.16946C132.954 9.48866 133.14 10.0916 133.14 10.9783V19.8893C133.14 20.8114 132.963 21.4321 132.608 21.7513C132.272 22.0705 131.806 22.2301 131.208 22.2301C130.611 22.2301 130.126 22.0705 129.752 21.7513C129.398 21.4321 129.22 20.8114 129.22 19.8893V10.9783Z" fill="white" fill-opacity="0.7"/>
</svg>
