<svg width="23" height="24" viewBox="0 0 23 24" fill="none" xmlns="http://www.w3.org/2000/svg">
<path fill-rule="evenodd" clip-rule="evenodd" d="M5.2151 8.09659C3.72873 9.3699 2.24118 11.0629 2.03577 13.6994C2.01987 13.8462 2.01172 13.9952 2.01172 14.1461L2.01558 14.3256C2.11316 16.5895 4.04778 18.3961 6.42005 18.3961C8.85471 18.3961 10.8284 16.4933 10.8284 14.1461C10.8284 11.7989 8.85471 9.89606 6.42005 9.89606C6.13385 9.89606 5.85401 9.92236 5.58301 9.97258C7.09382 8.1636 9.05367 6.83908 10.3443 6.17195C10.512 6.08531 10.5977 5.88747 10.5451 5.70017C10.487 5.49327 10.2799 5.37341 10.0825 5.43721C8.47606 5.95644 6.69934 6.82511 5.2151 8.09659ZM3.57247 13.7881C3.55434 13.9065 3.54505 14.0261 3.54505 14.1461C3.54505 15.4928 4.71572 16.7961 6.42005 16.7961C8.12438 16.7961 9.29505 15.4928 9.29505 14.1461C9.29505 12.7994 8.12438 11.4961 6.42005 11.4961C5.10865 11.4961 4.11321 12.2677 3.72392 13.237C3.66663 13.4182 3.61596 13.602 3.57247 13.7881ZM15.3734 8.27603C13.8871 9.54934 12.3995 11.2423 12.1941 13.8788C12.1782 14.0256 12.1701 14.1747 12.1701 14.3255L12.1739 14.505C12.2715 16.769 14.2061 18.5755 16.5784 18.5755C19.013 18.5755 20.9867 16.6727 20.9867 14.3255C20.9867 11.9783 19.013 10.0755 16.5784 10.0755C16.2922 10.0755 16.0123 10.1018 15.7413 10.152C17.2522 8.34304 19.212 7.01852 20.5027 6.35139C20.6703 6.26475 20.756 6.06692 20.7034 5.87961C20.6453 5.67271 20.4382 5.55286 20.2408 5.61665C18.6344 6.13589 16.8577 7.00455 15.3734 8.27603ZM13.7308 13.9675C13.7127 14.0859 13.7034 14.2055 13.7034 14.3255C13.7034 15.6722 14.8741 16.9755 16.5784 16.9755C18.2827 16.9755 19.4534 15.6722 19.4534 14.3255C19.4534 12.9788 18.2827 11.6755 16.5784 11.6755C15.267 11.6755 14.2715 12.4471 13.8823 13.4164C13.825 13.5977 13.7743 13.7814 13.7308 13.9675Z" fill="#212124"/>
</svg>
