<svg width="100" height="100" viewBox="0 0 100 100" fill="none" xmlns="http://www.w3.org/2000/svg">
<path d="M68.7506 23.75C69.6568 23.75 70.5323 24.0782 71.2153 24.6738C71.8982 25.2695 72.3424 26.0922 72.4656 26.99L72.5006 27.5V72.5C72.5003 73.4501 72.1394 74.3647 71.4907 75.059C70.8421 75.7532 69.9541 76.1754 69.0062 76.2401C68.0583 76.3049 67.1211 76.0074 66.3841 75.4078C65.6471 74.8083 65.1651 73.9513 65.0356 73.01L65.0006 72.5V27.5C65.0006 26.5054 65.3957 25.5516 66.099 24.8483C66.8022 24.1451 67.756 23.75 68.7506 23.75ZM27.3506 24.85C27.9855 24.2149 28.8273 23.8288 29.7229 23.7618C30.6184 23.6948 31.5083 23.9514 32.2306 24.485L32.6506 24.85L55.1506 47.35C55.7857 47.9849 56.1718 48.8267 56.2388 49.7223C56.3058 50.6178 56.0492 51.5076 55.5156 52.23L55.1506 52.65L32.6506 75.15C31.9806 75.8148 31.0846 76.2025 30.1413 76.2357C29.198 76.2689 28.277 75.9452 27.5618 75.3292C26.8467 74.7132 26.3902 73.8502 26.2834 72.9124C26.1766 71.9746 26.4274 71.031 26.9856 70.27L27.3506 69.85L47.2006 50L27.3506 30.15C26.6484 29.4469 26.2539 28.4938 26.2539 27.5C26.2539 26.5062 26.6484 25.5531 27.3506 24.85Z" fill="#858585"/>
</svg>
