<svg width="40" height="40" viewBox="0 0 40 40" fill="none" xmlns="http://www.w3.org/2000/svg">
<path d="M6.8973 7.01405C8.19459 8.02442 8.67954 7.94738 11.1166 7.79034L34.0757 6.46887C34.5637 6.46887 34.1591 6.00369 33.9954 5.92665L30.1807 3.28075C29.4517 2.73556 28.4788 2.11335 26.6131 2.27038L4.37992 3.82593C3.57066 3.90296 3.40695 4.29111 3.73127 4.60222L6.8973 7.01405ZM8.2749 12.1459V35.3191C8.2749 36.5635 8.92355 37.0316 10.3846 36.9546L35.6201 35.5531C37.078 35.4761 37.2417 34.6198 37.2417 33.6094V10.5903C37.2417 9.58292 36.8371 9.03478 35.9444 9.11182L9.5722 10.5903C8.59923 10.6674 8.2749 11.1355 8.2749 12.1459ZM33.1861 13.3903C33.3467 14.0896 33.1861 14.7888 32.4541 14.8688L31.2371 15.0999V32.208C30.1838 32.7531 29.2077 33.0672 28.3954 33.0672C27.0981 33.0672 26.7737 32.6761 25.8008 31.5087L17.8471 19.5325V31.1206L20.3645 31.6657C20.3645 31.6657 20.3645 33.0643 18.3351 33.0643L12.7382 33.3754C12.5745 33.0643 12.7382 32.288 13.3066 32.1309L14.7645 31.7457V16.4214L12.7413 16.2673C12.5776 15.5681 12.9822 14.5577 14.1189 14.4777L20.1235 14.0925L28.4015 26.2228V15.491L26.2919 15.257C26.1282 14.4007 26.7768 13.7785 27.5892 13.7014L33.1892 13.3903H33.1861ZM2.51429 1.7252L25.6402 0.0926181C28.4788 -0.144417 29.2077 0.0155814 30.993 1.26002L38.3753 6.23776C39.5954 7.09109 40 7.32516 40 8.25849V35.5531C40 37.2657 39.3513 38.279 37.078 38.4301L10.2239 39.9857C8.51892 40.0657 7.70656 39.8316 6.8139 38.7412L1.37761 31.9768C0.404633 30.7324 0 29.7991 0 28.7087V4.44518C0 3.04667 0.648649 1.87927 2.51429 1.7252Z" fill="white" fill-opacity="0.6"/>
</svg>
