<svg width="100" height="100" viewBox="0 0 100 100" fill="none" xmlns="http://www.w3.org/2000/svg">
<path d="M31.2494 76.25C30.3432 76.25 29.4677 75.9218 28.7847 75.3262C28.1018 74.7305 27.6576 73.9078 27.5344 73.01L27.4994 72.5L27.4994 27.5C27.4997 26.5499 27.8606 25.6353 28.5093 24.941C29.1579 24.2468 30.0459 23.8246 30.9938 23.7599C31.9417 23.6951 32.8789 23.9926 33.6159 24.5922C34.3529 25.1917 34.8349 26.0487 34.9644 26.99L34.9994 27.5L34.9994 72.5C34.9994 73.4946 34.6043 74.4484 33.901 75.1517C33.1978 75.8549 32.244 76.25 31.2494 76.25ZM72.6494 75.15C72.0145 75.7851 71.1727 76.1712 70.2771 76.2382C69.3816 76.3052 68.4917 76.0486 67.7694 75.515L67.3494 75.15L44.8494 52.65C44.2143 52.0151 43.8282 51.1733 43.7612 50.2777C43.6942 49.3822 43.9508 48.4924 44.4844 47.77L44.8494 47.35L67.3494 24.85C68.0194 24.1852 68.9154 23.7975 69.8587 23.7643C70.802 23.7311 71.723 24.0548 72.4382 24.6708C73.1533 25.2868 73.6098 26.1498 73.7166 27.0876C73.8234 28.0254 73.5726 28.969 73.0144 29.73L72.6494 30.15L52.7994 50L72.6494 69.85C73.3516 70.5531 73.7461 71.5062 73.7461 72.5C73.7461 73.4938 73.3516 74.4469 72.6494 75.15Z" fill="#858585"/>
</svg>
