<svg width="20" height="14" viewBox="0 0 20 14" fill="none" xmlns="http://www.w3.org/2000/svg">
<path fill-rule="evenodd" clip-rule="evenodd" d="M3.25332 0.730856C3.10472 0.314768 2.64694 0.0979287 2.23086 0.246531C1.81477 0.395134 1.59793 0.852906 1.74653 1.26899L3.15044 5.19995H1.5002C1.05837 5.19995 0.700195 5.55812 0.700195 5.99995C0.700195 6.44178 1.05837 6.79995 1.5002 6.79995H3.72187L6.03225 13.269C6.14998 13.5987 6.46838 13.8135 6.81815 13.7993C7.16793 13.785 7.46782 13.5451 7.5584 13.2069L9.27455 6.79995H10.7253L12.4415 13.2069C12.532 13.5451 12.8319 13.785 13.1817 13.7993C13.5315 13.8135 13.8499 13.5987 13.9676 13.269L16.278 6.79995H18.5002C18.942 6.79995 19.3002 6.44178 19.3002 5.99995C19.3002 5.55812 18.942 5.19995 18.5002 5.19995H16.8494L18.2533 1.26899C18.4019 0.852906 18.1851 0.395134 17.769 0.246531C17.3529 0.0979287 16.8951 0.314768 16.7465 0.730856L15.1504 5.19995H11.9531L10.7727 0.792936C10.679 0.443157 10.362 0.199925 9.99992 0.199925C9.63781 0.199925 9.32086 0.443157 9.22717 0.792936L8.04672 5.19995H4.84942L3.25332 0.730856ZM5.42085 6.79995L6.67645 10.3156L7.61814 6.79995H5.42085ZM9.70312 5.19995H10.2967L9.99992 4.09188L9.70312 5.19995ZM12.3817 6.79995L13.3234 10.3156L14.579 6.79995H12.3817Z" fill="#BBBBBB"/>
</svg>
