<svg width="23" height="24" viewBox="0 0 23 24" fill="none" xmlns="http://www.w3.org/2000/svg">
<path fill-rule="evenodd" clip-rule="evenodd" d="M11.5003 3.79995C16.1802 3.79995 19.8378 7.35812 19.8378 11.5806C19.8378 14.0038 18.6475 16.1907 16.7407 17.6313C16.5416 17.7817 16.4237 18.0227 16.4237 18.2793V20.5712C16.3163 20.503 16.2055 20.4329 16.0933 20.3622C15.3343 19.8835 14.4304 19.3227 14.094 19.1628C13.9401 19.0897 13.7674 19.0717 13.6027 19.1117C12.932 19.2744 12.2276 19.3612 11.5003 19.3612C6.82031 19.3612 3.16276 15.8031 3.16276 11.5806C3.16276 7.35812 6.82031 3.79995 11.5003 3.79995ZM16.7867 22.6801C17.0231 22.8329 17.3204 22.8401 17.5634 22.6989C17.8064 22.5577 17.957 22.2902 17.957 22V18.6773C20.0332 16.9699 21.3711 14.4342 21.3711 11.5806C21.3711 6.32515 16.8765 2.19995 11.5003 2.19995C6.12403 2.19995 1.62943 6.32515 1.62943 11.5806C1.62943 16.836 6.12403 20.9612 11.5003 20.9612C12.2453 20.9612 12.972 20.8827 13.6713 20.7336C14.0238 20.9345 14.6611 21.3284 15.3001 21.7315C15.6893 21.9769 16.0611 22.2142 16.3358 22.3902C16.473 22.4781 16.5859 22.5507 16.6644 22.6012L16.7867 22.6801Z" fill="#212124"/>
</svg>
