<svg width="23" height="24" viewBox="0 0 23 24" fill="none" xmlns="http://www.w3.org/2000/svg">
<path fill-rule="evenodd" clip-rule="evenodd" d="M4.79076 3.40005C4.15563 3.40005 3.64076 3.93731 3.64076 4.60005V20.8969L5.14592 19.5939C5.62214 19.1816 6.31617 19.1965 6.7757 19.6289L8.64558 21.3884C8.71972 21.4582 8.83277 21.4569 8.90542 21.3854L10.6445 19.6746C11.1244 19.2025 11.8738 19.2025 12.3537 19.6746L14.0928 21.3854C14.1654 21.4569 14.2785 21.4582 14.3526 21.3884L16.2225 19.6289C16.682 19.1965 17.376 19.1816 17.8523 19.5939L19.3574 20.8969V4.60005C19.3574 3.93731 18.8425 3.40005 18.2074 3.40005H4.79076ZM2.10742 4.60005C2.10742 3.05365 3.30879 1.80005 4.79076 1.80005H18.2074C19.6894 1.80005 20.8908 3.05365 20.8908 4.60005V21.5356C20.8908 22.6364 19.6614 23.239 18.8495 22.5361L17.0646 20.9909L15.3795 22.5767C14.7122 23.2046 13.6947 23.1928 13.0409 22.5496L11.4991 21.0329L9.95725 22.5496C9.30345 23.1928 8.28601 23.2046 7.61872 22.5767L5.93354 20.9909L4.14872 22.5361C3.33678 23.239 2.10742 22.6364 2.10742 21.5356V4.60005Z" fill="#212124"/>
<path fill-rule="evenodd" clip-rule="evenodd" d="M6.89909 7.60005C6.89909 7.15822 7.24234 6.80005 7.66576 6.80005H15.3324C15.7558 6.80005 16.0991 7.15822 16.0991 7.60005C16.0991 8.04188 15.7558 8.40005 15.3324 8.40005H7.66576C7.24234 8.40005 6.89909 8.04188 6.89909 7.60005Z" fill="#212124"/>
<path fill-rule="evenodd" clip-rule="evenodd" d="M6.89909 11.6C6.89909 11.1582 7.24234 10.8 7.66576 10.8H15.3324C15.7558 10.8 16.0991 11.1582 16.0991 11.6C16.0991 12.0419 15.7558 12.4 15.3324 12.4H7.66576C7.24234 12.4 6.89909 12.0419 6.89909 11.6Z" fill="#212124"/>
<path fill-rule="evenodd" clip-rule="evenodd" d="M6.89909 15.6C6.89909 15.1582 7.24234 14.8 7.66576 14.8H11.4991C11.9225 14.8 12.2658 15.1582 12.2658 15.6C12.2658 16.0419 11.9225 16.4 11.4991 16.4H7.66576C7.24234 16.4 6.89909 16.0419 6.89909 15.6Z" fill="#212124"/>
</svg>
