<svg width="42" height="42" viewBox="0 0 42 42" fill="none" xmlns="http://www.w3.org/2000/svg">
<g clip-path="url(#clip0_852_5234)">
<path d="M21 0C9.42025 0 0 9.42025 0 21C0 32.5798 9.42025 42 21 42C32.578 42 42 32.5798 42 21C42 9.42025 32.578 0 21 0ZM21 2.002C31.4912 2.002 39.998 10.507 39.998 21C39.998 31.4912 31.493 39.998 21 39.998C10.507 39.998 2.002 31.493 2.002 21C2.002 10.507 10.507 2.002 21 2.002ZM14.6475 10.269C14.4007 10.2641 14.1538 10.2671 13.9073 10.2778C12.187 10.3758 11.1545 11.1825 10.871 12.8537C10.6697 14.0175 10.703 15.2128 10.6207 16.3835C10.598 16.996 10.5332 17.6032 10.4195 18.2C10.185 19.2657 9.72475 19.5965 8.6415 19.6525C8.4981 19.6703 8.35561 19.6949 8.2145 19.726V22.2862C10.185 22.3825 10.451 23.0773 10.612 25.137C10.6698 25.8878 10.5892 26.6385 10.6382 27.3893C10.6697 28.0998 10.766 28.8032 10.9113 29.4892C11.3645 31.3705 13.1985 32.0005 15.4175 31.6208V29.3755C15.0623 29.3755 14.7472 29.3842 14.441 29.3755C13.6885 29.3527 13.4067 29.1655 13.335 28.4392C13.237 27.503 13.2615 26.5492 13.2038 25.6042C13.0918 23.8525 12.8975 22.1252 11.186 21.0105C12.0663 20.363 12.705 19.5895 12.9062 18.564C13.0515 17.8465 13.1407 17.1273 13.1967 16.3993C13.2457 15.673 13.1565 14.9293 13.2212 14.2118C13.3262 13.048 13.3997 12.572 14.7962 12.6192C15.0062 12.6192 15.2075 12.5895 15.442 12.572V10.2795C15.162 10.2795 14.8995 10.2725 14.6475 10.269ZM27.9353 10.2847C27.4587 10.274 26.9823 10.3092 26.5125 10.3897V12.6192C26.9412 12.6192 27.272 12.6193 27.6027 12.628C28.1767 12.635 28.6125 12.8555 28.6702 13.4925C28.7262 14.0735 28.7245 14.6632 28.7823 15.253C28.896 16.4237 28.959 17.6102 29.162 18.7652C29.3405 19.7172 29.9932 20.4277 30.8087 21.0105C29.379 21.9712 28.959 23.3432 28.8872 24.8867C28.847 25.9437 28.8225 27.0095 28.7665 28.0752C28.7175 29.0447 28.378 29.3598 27.4015 29.3843C27.1267 29.3913 26.859 29.4158 26.5545 29.4333V31.717C27.1267 31.717 27.6517 31.7503 28.1767 31.717C29.8077 31.6208 30.793 30.8297 31.1168 29.246C31.2533 28.3745 31.3338 27.496 31.3583 26.614C31.4143 25.8073 31.4073 24.9918 31.4878 24.192C31.6085 22.9408 32.1825 22.4245 33.4337 22.3423C33.5523 22.3277 33.6691 22.3007 33.782 22.2617V19.7015C33.572 19.677 33.425 19.6542 33.2728 19.6455C32.3348 19.6052 31.8658 19.2902 31.633 18.403C31.4879 17.8338 31.3988 17.2518 31.367 16.6652C31.3022 15.5837 31.3093 14.4935 31.2375 13.4103C31.0975 11.3243 29.848 10.3425 27.9353 10.2847ZM15.8777 19.5247C15.4983 19.5243 15.1333 19.6699 14.8583 19.9314C14.5834 20.1928 14.4196 20.5501 14.4009 20.929C14.3822 21.308 14.5101 21.6796 14.758 21.9668C15.0059 22.2541 15.3549 22.4349 15.7325 22.4717H15.8288C16.2133 22.4942 16.591 22.363 16.8788 22.1071C17.1666 21.8511 17.341 21.4913 17.3635 21.1067V21.0263C17.3696 20.6346 17.2201 20.2566 16.9478 19.9751C16.6755 19.6936 16.3026 19.5317 15.911 19.5247H15.8777ZM20.972 19.5247C20.5975 19.5125 20.2335 19.6493 19.9598 19.9053C19.6862 20.1612 19.5253 20.5153 19.5125 20.8898C19.5125 20.937 19.5125 20.9773 19.5195 21.0263C19.5195 21.9065 20.118 22.4717 21.0227 22.4717C21.91 22.4717 22.4682 21.8907 22.4682 20.979C22.4595 20.0987 21.8698 19.516 20.972 19.5247ZM26.1572 19.5247C25.7609 19.5177 25.3777 19.6671 25.0907 19.9406C24.8038 20.2141 24.6362 20.5897 24.6243 20.986C24.6243 21.8085 25.2858 22.4717 26.11 22.4717H26.1257C26.8695 22.6012 27.6185 21.882 27.6675 21.0192C27.7078 20.2195 26.9815 19.5247 26.1572 19.5247Z" fill="white" fill-opacity="0.6"/>
</g>
<defs>
<clipPath id="clip0_852_5234">
<rect width="42" height="42" fill="white"/>
</clipPath>
</defs>
</svg>
