<svg width="22" height="22" viewBox="0 0 22 22" fill="none" xmlns="http://www.w3.org/2000/svg">
<path d="M11 0C8.82441 0 6.69767 0.645139 4.88873 1.85383C3.07979 3.06253 1.66989 4.78049 0.83733 6.79048C0.00476613 8.80047 -0.213071 11.0122 0.211367 13.146C0.635804 15.2798 1.68345 17.2398 3.22183 18.7782C4.76021 20.3165 6.72022 21.3642 8.85401 21.7886C10.9878 22.2131 13.1995 21.9952 15.2095 21.1627C17.2195 20.3301 18.9375 18.9202 20.1462 17.1113C21.3549 15.3023 22 13.1756 22 11C21.9944 8.08433 20.8337 5.28969 18.772 3.228C16.7103 1.16631 13.9157 0.00559093 11 0V0ZM7.19231 7.61538C7.44334 7.61538 7.68873 7.68982 7.89746 7.82929C8.10618 7.96875 8.26886 8.16698 8.36493 8.3989C8.46099 8.63082 8.48613 8.88602 8.43715 9.13223C8.38818 9.37844 8.2673 9.60459 8.08979 9.7821C7.91229 9.9596 7.68613 10.0805 7.43993 10.1295C7.19372 10.1784 6.93852 10.1533 6.7066 10.0572C6.47468 9.96116 6.27645 9.79848 6.13698 9.58976C5.99752 9.38104 5.92308 9.13564 5.92308 8.88461C5.92308 8.54799 6.0568 8.22516 6.29483 7.98713C6.53286 7.74911 6.85569 7.61538 7.19231 7.61538ZM15.2308 15.2308H6.76923C6.54482 15.2308 6.3296 15.1416 6.17091 14.9829C6.01223 14.8242 5.92308 14.609 5.92308 14.3846C5.92308 14.1602 6.01223 13.945 6.17091 13.7863C6.3296 13.6276 6.54482 13.5385 6.76923 13.5385H15.2308C15.4552 13.5385 15.6704 13.6276 15.8291 13.7863C15.9878 13.945 16.0769 14.1602 16.0769 14.3846C16.0769 14.609 15.9878 14.8242 15.8291 14.9829C15.6704 15.1416 15.4552 15.2308 15.2308 15.2308ZM14.8077 10.1538C14.5567 10.1538 14.3113 10.0794 14.1025 9.93994C13.8938 9.80048 13.7311 9.60225 13.6351 9.37033C13.539 9.13841 13.5139 8.88321 13.5629 8.637C13.6118 8.39079 13.7327 8.16464 13.9102 7.98713C14.0877 7.80963 14.3139 7.68874 14.5601 7.63977C14.8063 7.5908 15.0615 7.61593 15.2934 7.712C15.5253 7.80806 15.7236 7.97074 15.863 8.17947C16.0025 8.38819 16.0769 8.63358 16.0769 8.88461C16.0769 9.22123 15.9432 9.54407 15.7052 9.7821C15.4671 10.0201 15.1443 10.1538 14.8077 10.1538Z" fill="#FFC700"/>
</svg>
