<svg width="23" height="22" viewBox="0 0 23 22" fill="none" xmlns="http://www.w3.org/2000/svg">
<g clip-path="url(#clip0_223_6515)">
<path d="M11.1094 22C17.1852 22 22.1094 17.0758 22.1094 11C22.1094 4.92422 17.1852 0 11.1094 0C5.03359 0 0.109375 4.92422 0.109375 11C0.109375 17.0758 5.03359 22 11.1094 22ZM7.16055 13.9863C7.92969 14.8758 9.24453 15.8125 11.1094 15.8125C12.9742 15.8125 14.2891 14.8758 15.0582 13.9863C15.3074 13.6984 15.7414 13.6684 16.0293 13.9176C16.3172 14.1668 16.3473 14.6008 16.098 14.8887C15.1398 15.9887 13.477 17.1875 11.1094 17.1875C8.7418 17.1875 7.07891 15.9887 6.1207 14.8887C5.87148 14.6008 5.90156 14.1668 6.18945 13.9176C6.47734 13.6684 6.91133 13.6984 7.16055 13.9863ZM9.06406 8.9375C9.06406 9.69805 8.44961 10.3125 7.68906 10.3125C6.92852 10.3125 6.31406 9.69805 6.31406 8.9375C6.31406 8.17695 6.92852 7.5625 7.68906 7.5625C8.44961 7.5625 9.06406 8.17695 9.06406 8.9375ZM14.5641 10.3125C13.8035 10.3125 13.1891 9.69805 13.1891 8.9375C13.1891 8.17695 13.8035 7.5625 14.5641 7.5625C15.3246 7.5625 15.9391 8.17695 15.9391 8.9375C15.9391 9.69805 15.3246 10.3125 14.5641 10.3125Z" fill="#FFC700"/>
</g>
<defs>
<clipPath id="clip0_223_6515">
<rect width="22" height="22" fill="white" transform="translate(0.109375)"/>
</clipPath>
</defs>
</svg>
