<svg width="22" height="22" viewBox="0 0 22 22" fill="none" xmlns="http://www.w3.org/2000/svg">
<g clip-path="url(#clip0_223_6517)">
<path d="M11 22C17.0758 22 22 17.0758 22 11C22 4.92422 17.0758 0 11 0C4.92422 0 0 4.92422 0 11C0 17.0758 4.92422 22 11 22ZM7.05117 13.9863C7.82031 14.8758 9.13516 15.8125 11 15.8125C12.8648 15.8125 14.1797 14.8758 14.9488 13.9863C15.198 13.6984 15.632 13.6684 15.9199 13.9176C16.2078 14.1668 16.2379 14.6008 15.9887 14.8887C15.0305 15.9887 13.3676 17.1875 11 17.1875C8.63242 17.1875 6.96953 15.9887 6.01133 14.8887C5.76211 14.6008 5.79219 14.1668 6.08008 13.9176C6.36797 13.6684 6.80195 13.6984 7.05117 13.9863ZM8.95469 8.9375C8.95469 9.69805 8.34023 10.3125 7.57969 10.3125C6.81914 10.3125 6.20469 9.69805 6.20469 8.9375C6.20469 8.17695 6.81914 7.5625 7.57969 7.5625C8.34023 7.5625 8.95469 8.17695 8.95469 8.9375ZM12.925 10.0375C12.6973 10.3426 12.2676 10.4027 11.9625 10.175C11.6574 9.94727 11.5973 9.51758 11.825 9.2125C13.1313 7.47227 15.7437 7.47227 17.05 9.2125C17.2777 9.51758 17.2176 9.94727 16.9125 10.175C16.6074 10.4027 16.1777 10.3426 15.95 10.0375C15.1938 9.02773 13.6812 9.02773 12.925 10.0375V10.0375Z" fill="#FFC700"/>
</g>
<defs>
<clipPath id="clip0_223_6517">
<rect width="22" height="22" fill="white"/>
</clipPath>
</defs>
</svg>
