<svg width="22" height="22" viewBox="0 0 22 22" fill="none" xmlns="http://www.w3.org/2000/svg">
<g clip-path="url(#clip0_223_6518)">
<path d="M11 22C17.0758 22 22 17.0758 22 11C22 4.92422 17.0758 0 11 0C4.92422 0 0 4.92422 0 11C0 17.0758 4.92422 22 11 22ZM7.05117 13.9863C7.82031 14.8758 9.13516 15.8125 11 15.8125C12.8648 15.8125 14.1797 14.8758 14.9488 13.9863C15.198 13.6984 15.632 13.6684 15.9199 13.9176C16.2078 14.1668 16.2379 14.6008 15.9887 14.8887C15.0305 15.9887 13.3676 17.1875 11 17.1875C8.63242 17.1875 6.96953 15.9887 6.01133 14.8887C5.76211 14.6008 5.79219 14.1668 6.08008 13.9176C6.36797 13.6684 6.80195 13.6984 7.05117 13.9863ZM9.35 9.83125L9.34141 9.82266C9.33281 9.81406 9.32422 9.80117 9.31133 9.78398C9.28555 9.74961 9.24258 9.69805 9.19102 9.63789C9.08359 9.51758 8.9332 9.3543 8.75273 9.19531C8.37461 8.86016 7.94492 8.59375 7.5625 8.59375C7.18008 8.59375 6.75039 8.86016 6.37227 9.19531C6.1918 9.3543 6.04141 9.51758 5.93398 9.63789C5.88242 9.69805 5.83945 9.74961 5.81367 9.78398C5.80078 9.80117 5.78789 9.81406 5.78359 9.82266L5.775 9.83125C5.68477 9.95156 5.53008 9.99883 5.39258 9.95156C5.25508 9.9043 5.15625 9.77539 5.15625 9.625C5.15625 8.85586 5.44414 8.09531 5.86953 7.52812C6.29063 6.96953 6.89648 6.53125 7.5625 6.53125C8.22852 6.53125 8.83437 6.96953 9.25547 7.52812C9.68086 8.09531 9.96875 8.85586 9.96875 9.625C9.96875 9.77109 9.87422 9.9043 9.73242 9.95156C9.59063 9.99883 9.43594 9.95156 9.35 9.83125V9.83125ZM16.225 9.83125L16.2164 9.82266C16.2078 9.81406 16.1992 9.80117 16.1863 9.78398C16.1605 9.74961 16.1176 9.69805 16.066 9.63789C15.9586 9.51758 15.8082 9.3543 15.6277 9.19531C15.2496 8.86016 14.8199 8.59375 14.4375 8.59375C14.0551 8.59375 13.6254 8.86016 13.2473 9.19531C13.0668 9.3543 12.9164 9.51758 12.809 9.63789C12.7574 9.69805 12.7145 9.74961 12.6887 9.78398C12.6758 9.80117 12.6629 9.81406 12.6586 9.82266L12.65 9.83125C12.5598 9.95156 12.4051 9.99883 12.2676 9.95156C12.1301 9.9043 12.0312 9.77539 12.0312 9.625C12.0312 8.85586 12.3191 8.09531 12.7445 7.52812C13.1656 6.96953 13.7715 6.53125 14.4375 6.53125C15.1035 6.53125 15.7094 6.96953 16.1305 7.52812C16.5559 8.09531 16.8438 8.85586 16.8438 9.625C16.8438 9.77109 16.7492 9.9043 16.6074 9.95156C16.4656 9.99883 16.3109 9.95156 16.225 9.83125V9.83125Z" fill="#FFC700"/>
</g>
<defs>
<clipPath id="clip0_223_6518">
<rect width="22" height="22" fill="white"/>
</clipPath>
</defs>
</svg>
