<svg width="20" height="20" viewBox="0 0 20 20" fill="none" xmlns="http://www.w3.org/2000/svg">
<g clip-path="url(#clip0_179_5301)">
<path d="M10 20C15.5234 20 20 15.5234 20 10C20 4.47656 15.5234 0 10 0C4.47656 0 0 4.47656 0 10C0 15.5234 4.47656 20 10 20ZM6.41016 12.7148C7.10938 13.5234 8.30469 14.375 10 14.375C11.6953 14.375 12.8906 13.5234 13.5898 12.7148C13.8164 12.4531 14.2109 12.4258 14.4727 12.6523C14.7344 12.8789 14.7617 13.2734 14.5352 13.5352C13.6641 14.5352 12.1523 15.625 10 15.625C7.84766 15.625 6.33594 14.5352 5.46484 13.5352C5.23828 13.2734 5.26563 12.8789 5.52734 12.6523C5.78906 12.4258 6.18359 12.4531 6.41016 12.7148ZM8.14062 8.125C8.14062 8.81641 7.58203 9.375 6.89062 9.375C6.19922 9.375 5.64062 8.81641 5.64062 8.125C5.64062 7.43359 6.19922 6.875 6.89062 6.875C7.58203 6.875 8.14062 7.43359 8.14062 8.125ZM13.1406 9.375C12.4492 9.375 11.8906 8.81641 11.8906 8.125C11.8906 7.43359 12.4492 6.875 13.1406 6.875C13.832 6.875 14.3906 7.43359 14.3906 8.125C14.3906 8.81641 13.832 9.375 13.1406 9.375Z" fill="#ACACAC"/>
</g>
<defs>
<clipPath id="clip0_179_5301">
<rect width="20" height="20" fill="white"/>
</clipPath>
</defs>
</svg>
