<svg width="16" height="16" viewBox="0 0 16 16" fill="none" xmlns="http://www.w3.org/2000/svg">
<path d="M1.2 16C0.88 16 0.6 15.8737 0.36 15.6211C0.12 15.3684 0 15.0737 0 14.7368V4.63158C0 4.29474 0.12 4 0.36 3.74737C0.6 3.49474 0.88 3.36842 1.2 3.36842H4.8V1.26316C4.8 0.926316 4.92 0.631579 5.16 0.378947C5.4 0.126316 5.68 0 6 0H10C10.32 0 10.6 0.126316 10.84 0.378947C11.08 0.631579 11.2 0.926316 11.2 1.26316V3.36842H14.8C15.12 3.36842 15.4 3.49474 15.64 3.74737C15.88 4 16 4.29474 16 4.63158V14.7368C16 15.0737 15.88 15.3684 15.64 15.6211C15.4 15.8737 15.12 16 14.8 16H1.2ZM6 3.36842H10V1.26316H6V3.36842Z" fill="#ACACAC"/>
</svg>
