<svg width="286" height="31" viewBox="0 0 286 31" fill="none" xmlns="http://www.w3.org/2000/svg">
<mask id="path-1-inside-1_1234_5249" fill="white">
<path d="M9.58428 0.0981781C12.3053 0.0981781 14.4067 0.676337 15.8888 1.83264C17.395 2.96718 18.2332 4.62521 18.4033 6.80697C18.4276 7.09063 18.4397 7.47235 18.4397 7.95237C18.4397 8.41053 18.4397 8.89055 18.4397 9.3923C18.4397 9.87232 18.4397 10.3414 18.4397 10.7995C18.4397 11.2577 18.4276 11.6285 18.4033 11.9122C18.3547 13.6794 17.8323 15.0866 16.8363 16.1338C15.8644 17.1592 14.4796 17.8574 12.6819 18.2283V23.1699H17.31C17.9903 23.1699 18.549 23.2244 18.9863 23.3335C19.4236 23.4644 19.7637 23.628 20.0067 23.8244C20.2497 24.0426 20.4076 24.2825 20.4805 24.5443C20.5777 24.828 20.6262 25.1334 20.6262 25.4607C20.6262 25.7225 20.5777 25.9843 20.4805 26.2461C20.4076 26.5298 20.2497 26.7697 20.0067 26.9661C19.7637 27.1843 19.4236 27.3588 18.9863 27.4897C18.549 27.6206 17.9903 27.686 17.31 27.686H3.31623C2.63594 27.686 2.0772 27.6206 1.6399 27.4897C1.20259 27.3588 0.862507 27.1843 0.619516 26.9661C0.376525 26.7697 0.206548 26.5298 0.109326 26.2461C0.0364416 25.9843 0 25.7225 0 25.4607C0 25.1334 0.0364416 24.828 0.109326 24.5443C0.206548 24.2825 0.376525 24.0426 0.619516 23.8244C0.862507 23.628 1.20259 23.4644 1.6399 23.3335C2.0772 23.2244 2.63594 23.1699 3.31623 23.1699H6.77823V18.261C4.88324 17.9337 3.43766 17.2356 2.44162 16.1665C1.44558 15.0975 0.886716 13.6794 0.765286 11.9122C0.740948 11.6285 0.71674 11.2577 0.692402 10.7995C0.692402 10.3195 0.692402 9.8396 0.692402 9.35958C0.692402 8.85782 0.692402 8.3778 0.692402 7.91964C0.71674 7.46148 0.740948 7.09063 0.765286 6.80697C0.886716 4.62521 1.66423 2.96718 3.09758 1.83264C4.55527 0.676337 6.71746 0.0981781 9.58428 0.0981781ZM22.3755 2.84714C22.3755 1.75632 22.667 1.0145 23.2501 0.621791C23.8575 0.20726 24.5499 0 25.3273 0C25.716 0 26.0805 0.043631 26.4205 0.130904C26.785 0.218176 27.1008 0.370888 27.368 0.589064C27.6352 0.80724 27.8539 1.10181 28.024 1.47266C28.1941 1.84351 28.2791 2.30168 28.2791 2.84714V10.7013H30.1376C30.8179 10.7013 31.3767 10.7777 31.814 10.9304C32.2513 11.0613 32.5914 11.2358 32.8343 11.454C33.0773 11.6722 33.2352 11.9231 33.3081 12.2067C33.4053 12.4685 33.4539 12.7303 33.4539 12.9921C33.4539 13.3194 33.4053 13.6248 33.3081 13.9085C33.2352 14.1921 33.0773 14.4429 32.8343 14.6612C32.5914 14.8575 32.2513 15.0211 31.814 15.152C31.3767 15.2829 30.8179 15.3484 30.1376 15.3484H28.2791V25.1989C28.2791 25.7661 28.1941 26.2352 28.024 26.6061C27.8539 26.9769 27.6352 27.2715 27.368 27.4897C27.1008 27.7079 26.785 27.8605 26.4205 27.9478C26.0805 28.0351 25.716 28.0787 25.3273 28.0787C24.9385 28.0787 24.562 28.0351 24.1976 27.9478C23.8575 27.8605 23.5416 27.7079 23.2501 27.4897C22.9829 27.2715 22.7642 26.9769 22.5941 26.6061C22.4483 26.2352 22.3755 25.7661 22.3755 25.1989V2.84714ZM12.4996 6.67606C12.4996 6.2179 12.3782 5.84705 12.1352 5.56339C11.9166 5.27972 11.6494 5.0725 11.3335 4.9416C11.0176 4.78884 10.6896 4.69066 10.3496 4.64706C10.0337 4.60347 9.77859 4.58161 9.58428 4.58161C9.38997 4.58161 9.13487 4.61434 8.81899 4.67979C8.50312 4.72338 8.18737 4.82156 7.8715 4.97432C7.55562 5.12708 7.27632 5.35616 7.03333 5.66156C6.81467 5.94523 6.69325 6.31608 6.66891 6.77424C6.64457 7.07964 6.62036 7.47235 6.59602 7.95237C6.59602 8.41053 6.59602 8.89055 6.59602 9.3923C6.59602 9.87232 6.59602 10.3414 6.59602 10.7995C6.62036 11.2577 6.64457 11.6285 6.66891 11.9122C6.66891 12.4139 6.77823 12.8067 6.99689 13.0903C7.21554 13.3521 7.48274 13.5594 7.79861 13.7121C8.11449 13.8649 8.43023 13.963 8.74611 14.0066C9.08619 14.0285 9.36563 14.0394 9.58428 14.0394C9.77859 14.0394 10.0337 14.0285 10.3496 14.0066C10.6654 13.963 10.9812 13.8649 11.2971 13.7121C11.6129 13.5594 11.8801 13.3521 12.0988 13.0903C12.3418 12.8067 12.4753 12.4139 12.4996 11.9122C12.524 11.6068 12.5361 11.2249 12.5361 10.7668C12.5361 10.2868 12.5361 9.79588 12.5361 9.29413C12.5361 8.77051 12.5361 8.27963 12.5361 7.82147C12.5361 7.36331 12.524 6.98146 12.4996 6.67606ZM36.6315 14.563C35.7811 14.563 35.1616 14.4321 34.7729 14.1703C34.4085 13.8866 34.2263 13.4503 34.2263 12.8612C34.2263 12.3812 34.4085 11.9885 34.7729 11.6831C35.1616 11.3559 35.7811 11.1922 36.6315 11.1922H63.8538C64.704 11.1922 65.3114 11.3559 65.6758 11.6831C66.0645 11.9885 66.2589 12.3812 66.2589 12.8612C66.2589 13.4503 66.0645 13.8866 65.6758 14.1703C65.3114 14.4321 64.704 14.563 63.8538 14.563H36.6315ZM42.7173 23.8898V25.1989H61.3757C62.0558 25.1989 62.6025 25.2425 63.0156 25.3298C63.4285 25.4171 63.7444 25.537 63.9631 25.6898C64.1817 25.8425 64.3153 26.0279 64.3639 26.2461C64.4368 26.4643 64.4733 26.7043 64.4733 26.9661C64.4733 27.2715 64.4368 27.5333 64.3639 27.7515C64.3153 27.9697 64.1817 28.1551 63.9631 28.3078C63.7444 28.4606 63.4285 28.5696 63.0156 28.6351C62.6025 28.7005 62.0558 28.7333 61.3757 28.7333H39.7655C39.0852 28.7333 38.5507 28.6678 38.1621 28.5369C37.7733 28.4279 37.4697 28.2642 37.251 28.046C37.0566 27.8497 36.9351 27.6097 36.8866 27.326C36.8379 27.0642 36.8137 26.7806 36.8137 26.4752V22.1881C36.8137 21.9699 36.8379 21.7627 36.8866 21.5663C36.9595 21.3481 37.093 21.1627 37.2874 21.01C37.4818 20.8572 37.7612 20.7373 38.1256 20.65C38.49 20.5627 38.9759 20.5191 39.5833 20.5191H57.7679V19.3737H39.2553C38.2349 19.3737 37.5546 19.2209 37.2146 18.9155C36.8743 18.5883 36.7044 18.1519 36.7044 17.6065C36.7044 17.1702 36.8743 16.7775 37.2146 16.4284C37.5546 16.0575 38.2349 15.872 39.2553 15.872H60.9384C61.5215 15.872 61.9952 15.9266 62.3596 16.0356C62.724 16.1447 63.0033 16.2866 63.1978 16.4611C63.3921 16.6356 63.5135 16.8319 63.5622 17.0501C63.6351 17.2465 63.6715 17.4537 63.6715 17.6719V22.2535C63.6715 22.7772 63.5014 23.1807 63.1613 23.4644C62.8211 23.7481 62.0681 23.8898 60.9019 23.8898H42.7173ZM36.2671 8.01782C36.2671 7.38516 36.4614 6.927 36.8501 6.64334C37.2388 6.33794 38.0284 6.18518 39.2189 6.18518H41.1503V3.95982H39.4011C38.2106 3.95982 37.421 3.80706 37.0323 3.50166C36.6436 3.1744 36.4493 2.7381 36.4493 2.19263C36.4493 1.55997 36.6436 1.10181 37.0323 0.818145C37.421 0.512696 38.2106 0.359984 39.4011 0.359984H61.0841C62.2745 0.359984 63.0641 0.512696 63.4529 0.818145C63.8415 1.10181 64.036 1.55997 64.036 2.19263C64.036 2.7381 63.8415 3.1744 63.4529 3.50166C63.0641 3.80706 62.2745 3.95982 61.0841 3.95982H59.3349V6.18518H61.2664C62.4567 6.18518 63.2463 6.33794 63.6351 6.64334C64.0237 6.927 64.2182 7.38516 64.2182 8.01782C64.2182 8.56329 64.0237 8.9996 63.6351 9.32685C63.2463 9.63226 62.4567 9.78502 61.2664 9.78502H39.2189C38.0284 9.78502 37.2388 9.63226 36.8501 9.32685C36.4614 8.9996 36.2671 8.56329 36.2671 8.01782ZM47.0539 6.18518H53.4313V3.95982H47.0539V6.18518ZM82.0818 0.327258C82.7621 0.327258 83.2967 0.403614 83.6853 0.556338C84.0741 0.687242 84.3656 0.872691 84.5599 1.11268C84.7785 1.35263 84.9122 1.62542 84.9608 1.93082C85.0094 2.21449 85.0336 2.51989 85.0336 2.84714V24.9698C85.0336 25.297 85.0094 25.5916 84.9608 25.8534C84.9122 26.137 84.7785 26.377 84.5599 26.5733C84.3656 26.7916 84.0741 26.9552 83.6853 27.0642C83.2967 27.1951 82.7621 27.2606 82.0818 27.2606H72.6798C71.9996 27.2606 71.4651 27.1951 71.0763 27.0642C70.6877 26.9552 70.3839 26.7916 70.1653 26.5733C69.9709 26.377 69.8495 26.137 69.8008 25.8534C69.7523 25.5916 69.728 25.297 69.728 24.9698V2.84714C69.728 2.51989 69.7523 2.21449 69.8008 1.93082C69.8495 1.62542 69.9709 1.35263 70.1653 1.11268C70.3839 0.872691 70.6877 0.687242 71.0763 0.556338C71.4651 0.403614 71.9996 0.327258 72.6798 0.327258H82.0818ZM90.0992 2.84714C90.0992 1.75632 90.3908 1.0145 90.9738 0.621791C91.5816 0.20726 92.274 0 93.051 0C93.4402 0 93.8046 0.043631 94.1443 0.130904C94.5087 0.218176 94.825 0.370888 95.0918 0.589064C95.3586 0.80724 95.5773 1.10181 95.7478 1.47266C95.9183 1.84351 96.0029 2.30168 96.0029 2.84714V10.7013H98.2987C98.9794 10.7013 99.5377 10.7668 99.975 10.8977C100.412 11.0286 100.752 11.2031 100.995 11.4213C101.239 11.6177 101.396 11.8576 101.469 12.1413C101.567 12.4031 101.615 12.6649 101.615 12.9267C101.615 13.2539 101.567 13.5594 101.469 13.843C101.396 14.1048 101.239 14.3448 100.995 14.563C100.752 14.7593 100.412 14.923 99.975 15.0539C99.5377 15.1629 98.9794 15.2175 98.2987 15.2175H96.0029V25.1989C96.0029 25.7661 95.9183 26.2352 95.7478 26.6061C95.5773 26.9769 95.3586 27.2715 95.0918 27.4897C94.825 27.7079 94.5087 27.8605 94.1443 27.9478C93.8046 28.0351 93.4402 28.0787 93.051 28.0787C92.6619 28.0787 92.2858 28.0351 91.9213 27.9478C91.5816 27.8605 91.2654 27.7079 90.9738 27.4897C90.707 27.2715 90.4884 26.9769 90.3179 26.6061C90.1721 26.2352 90.0992 25.7661 90.0992 25.1989V2.84714ZM79.2758 4.84342H75.4858V22.7444H79.2758V4.84342ZM113.538 0.39271C114.194 0.39271 114.704 0.458161 115.069 0.589064C115.433 0.698146 115.713 0.861775 115.907 1.07995C116.102 1.27631 116.223 1.52724 116.271 1.83264C116.321 2.13805 116.344 2.48716 116.344 2.87987V5.9561H119.988V2.84714C119.988 1.75632 120.22 1.0145 120.681 0.621791C121.143 0.20726 121.762 0 122.539 0C123.293 0 123.901 0.20726 124.361 0.621791C124.848 1.0145 125.09 1.75632 125.09 2.84714V12.6649C125.09 13.7994 124.86 14.563 124.398 14.9557C123.96 15.3484 123.354 15.5448 122.576 15.5448C121.799 15.5448 121.167 15.3484 120.681 14.9557C120.22 14.563 119.988 13.7994 119.988 12.6649V10.6032H116.016C115.822 11.5195 115.482 12.4249 114.996 13.3194C114.51 14.2139 113.806 15.0539 112.882 15.8393C112.276 16.341 111.679 16.6028 111.096 16.6247C110.538 16.6247 109.991 16.4938 109.457 16.232C109.165 16.1011 108.923 15.9156 108.728 15.6757C108.534 15.4357 108.4 15.1739 108.327 14.8902C108.254 14.5848 108.254 14.2793 108.327 13.9739C108.4 13.6467 108.558 13.3413 108.801 13.0576C109.117 12.6867 109.397 12.3376 109.639 12.0104C109.882 11.6831 110.089 11.345 110.258 10.9959H105.339C104.659 10.9959 104.113 10.9523 103.699 10.865C103.286 10.7559 102.97 10.614 102.751 10.4395C102.532 10.2432 102.387 10.0141 102.314 9.75229C102.266 9.49048 102.241 9.19595 102.241 8.86869C102.241 8.60689 102.277 8.35595 102.35 8.116C102.423 7.85419 102.569 7.62511 102.788 7.42876C103.031 7.2324 103.359 7.07964 103.772 6.97059C104.185 6.86155 104.732 6.80697 105.411 6.80697H110.805V4.64706H105.739C105.06 4.64706 104.513 4.59248 104.099 4.48344C103.687 4.37439 103.371 4.2325 103.152 4.058C102.933 3.86164 102.788 3.63256 102.715 3.37076C102.667 3.10895 102.642 2.81442 102.642 2.48716C102.642 2.22535 102.678 1.97442 102.751 1.73447C102.824 1.47266 102.97 1.24358 103.188 1.04723C103.432 0.850871 103.76 0.698146 104.172 0.589064C104.586 0.458161 105.133 0.39271 105.812 0.39271H113.538ZM121.737 18.7192C121.737 19.4827 121.993 20.1591 122.503 20.7482C123.038 21.3372 123.705 21.839 124.507 22.2535C125.334 22.6681 126.256 23.0062 127.277 23.268C128.297 23.5299 129.317 23.7153 130.338 23.8244C131.285 23.9334 131.991 24.2062 132.451 24.6425C132.914 25.1007 133.084 25.7443 132.962 26.5733C132.889 27.0097 132.743 27.3588 132.524 27.6206C132.33 27.8824 132.087 28.0896 131.796 28.2424C131.504 28.3951 131.176 28.4933 130.812 28.5369C130.447 28.5805 130.083 28.5915 129.718 28.5696C127.678 28.4169 125.723 27.9587 123.851 27.1951C121.981 26.4316 120.353 25.5153 118.968 24.4462C118.289 24.9698 117.498 25.4607 116.599 25.9188C115.725 26.3988 114.79 26.8243 113.793 27.1951C112.822 27.566 111.814 27.8715 110.768 28.1115C109.725 28.3514 108.691 28.5042 107.671 28.5696C107.306 28.5915 106.942 28.5805 106.578 28.5369C106.213 28.4933 105.885 28.3951 105.594 28.2424C105.302 28.0896 105.047 27.8824 104.828 27.6206C104.634 27.3588 104.5 27.0097 104.427 26.5733C104.306 25.7443 104.477 25.1007 104.938 24.6425C105.4 24.2062 106.104 23.9334 107.051 23.8244C108.096 23.7153 109.129 23.5407 110.149 23.3008C111.169 23.0826 112.08 22.7663 112.882 22.3517C113.709 21.9372 114.376 21.4354 114.886 20.8463C115.397 20.2354 115.665 19.5154 115.688 18.6864V18.261C115.688 17.6501 115.956 17.1702 116.49 16.8211C117.025 16.4502 117.765 16.2647 118.713 16.2647C119.66 16.2647 120.402 16.4502 120.936 16.8211C121.471 17.1702 121.737 17.6501 121.737 18.261V18.7192ZM127.823 2.84714C127.823 1.75632 128.055 1.0145 128.516 0.621791C128.978 0.20726 129.597 0 130.374 0C131.128 0 131.736 0.20726 132.196 0.621791C132.683 1.0145 132.925 1.75632 132.925 2.84714V13.8103C132.925 14.9448 132.695 15.7084 132.233 16.1011C131.796 16.4938 131.189 16.6902 130.411 16.6902C129.634 16.6902 129.002 16.4938 128.516 16.1011C128.055 15.7084 127.823 14.9448 127.823 13.8103V2.84714Z"/>
</mask>
<path d="M9.58428 0.0981781C12.3053 0.0981781 14.4067 0.676337 15.8888 1.83264C17.395 2.96718 18.2332 4.62521 18.4033 6.80697C18.4276 7.09063 18.4397 7.47235 18.4397 7.95237C18.4397 8.41053 18.4397 8.89055 18.4397 9.3923C18.4397 9.87232 18.4397 10.3414 18.4397 10.7995C18.4397 11.2577 18.4276 11.6285 18.4033 11.9122C18.3547 13.6794 17.8323 15.0866 16.8363 16.1338C15.8644 17.1592 14.4796 17.8574 12.6819 18.2283V23.1699H17.31C17.9903 23.1699 18.549 23.2244 18.9863 23.3335C19.4236 23.4644 19.7637 23.628 20.0067 23.8244C20.2497 24.0426 20.4076 24.2825 20.4805 24.5443C20.5777 24.828 20.6262 25.1334 20.6262 25.4607C20.6262 25.7225 20.5777 25.9843 20.4805 26.2461C20.4076 26.5298 20.2497 26.7697 20.0067 26.9661C19.7637 27.1843 19.4236 27.3588 18.9863 27.4897C18.549 27.6206 17.9903 27.686 17.31 27.686H3.31623C2.63594 27.686 2.0772 27.6206 1.6399 27.4897C1.20259 27.3588 0.862507 27.1843 0.619516 26.9661C0.376525 26.7697 0.206548 26.5298 0.109326 26.2461C0.0364416 25.9843 0 25.7225 0 25.4607C0 25.1334 0.0364416 24.828 0.109326 24.5443C0.206548 24.2825 0.376525 24.0426 0.619516 23.8244C0.862507 23.628 1.20259 23.4644 1.6399 23.3335C2.0772 23.2244 2.63594 23.1699 3.31623 23.1699H6.77823V18.261C4.88324 17.9337 3.43766 17.2356 2.44162 16.1665C1.44558 15.0975 0.886716 13.6794 0.765286 11.9122C0.740948 11.6285 0.71674 11.2577 0.692402 10.7995C0.692402 10.3195 0.692402 9.8396 0.692402 9.35958C0.692402 8.85782 0.692402 8.3778 0.692402 7.91964C0.71674 7.46148 0.740948 7.09063 0.765286 6.80697C0.886716 4.62521 1.66423 2.96718 3.09758 1.83264C4.55527 0.676337 6.71746 0.0981781 9.58428 0.0981781ZM22.3755 2.84714C22.3755 1.75632 22.667 1.0145 23.2501 0.621791C23.8575 0.20726 24.5499 0 25.3273 0C25.716 0 26.0805 0.043631 26.4205 0.130904C26.785 0.218176 27.1008 0.370888 27.368 0.589064C27.6352 0.80724 27.8539 1.10181 28.024 1.47266C28.1941 1.84351 28.2791 2.30168 28.2791 2.84714V10.7013H30.1376C30.8179 10.7013 31.3767 10.7777 31.814 10.9304C32.2513 11.0613 32.5914 11.2358 32.8343 11.454C33.0773 11.6722 33.2352 11.9231 33.3081 12.2067C33.4053 12.4685 33.4539 12.7303 33.4539 12.9921C33.4539 13.3194 33.4053 13.6248 33.3081 13.9085C33.2352 14.1921 33.0773 14.4429 32.8343 14.6612C32.5914 14.8575 32.2513 15.0211 31.814 15.152C31.3767 15.2829 30.8179 15.3484 30.1376 15.3484H28.2791V25.1989C28.2791 25.7661 28.1941 26.2352 28.024 26.6061C27.8539 26.9769 27.6352 27.2715 27.368 27.4897C27.1008 27.7079 26.785 27.8605 26.4205 27.9478C26.0805 28.0351 25.716 28.0787 25.3273 28.0787C24.9385 28.0787 24.562 28.0351 24.1976 27.9478C23.8575 27.8605 23.5416 27.7079 23.2501 27.4897C22.9829 27.2715 22.7642 26.9769 22.5941 26.6061C22.4483 26.2352 22.3755 25.7661 22.3755 25.1989V2.84714ZM12.4996 6.67606C12.4996 6.2179 12.3782 5.84705 12.1352 5.56339C11.9166 5.27972 11.6494 5.0725 11.3335 4.9416C11.0176 4.78884 10.6896 4.69066 10.3496 4.64706C10.0337 4.60347 9.77859 4.58161 9.58428 4.58161C9.38997 4.58161 9.13487 4.61434 8.81899 4.67979C8.50312 4.72338 8.18737 4.82156 7.8715 4.97432C7.55562 5.12708 7.27632 5.35616 7.03333 5.66156C6.81467 5.94523 6.69325 6.31608 6.66891 6.77424C6.64457 7.07964 6.62036 7.47235 6.59602 7.95237C6.59602 8.41053 6.59602 8.89055 6.59602 9.3923C6.59602 9.87232 6.59602 10.3414 6.59602 10.7995C6.62036 11.2577 6.64457 11.6285 6.66891 11.9122C6.66891 12.4139 6.77823 12.8067 6.99689 13.0903C7.21554 13.3521 7.48274 13.5594 7.79861 13.7121C8.11449 13.8649 8.43023 13.963 8.74611 14.0066C9.08619 14.0285 9.36563 14.0394 9.58428 14.0394C9.77859 14.0394 10.0337 14.0285 10.3496 14.0066C10.6654 13.963 10.9812 13.8649 11.2971 13.7121C11.6129 13.5594 11.8801 13.3521 12.0988 13.0903C12.3418 12.8067 12.4753 12.4139 12.4996 11.9122C12.524 11.6068 12.5361 11.2249 12.5361 10.7668C12.5361 10.2868 12.5361 9.79588 12.5361 9.29413C12.5361 8.77051 12.5361 8.27963 12.5361 7.82147C12.5361 7.36331 12.524 6.98146 12.4996 6.67606ZM36.6315 14.563C35.7811 14.563 35.1616 14.4321 34.7729 14.1703C34.4085 13.8866 34.2263 13.4503 34.2263 12.8612C34.2263 12.3812 34.4085 11.9885 34.7729 11.6831C35.1616 11.3559 35.7811 11.1922 36.6315 11.1922H63.8538C64.704 11.1922 65.3114 11.3559 65.6758 11.6831C66.0645 11.9885 66.2589 12.3812 66.2589 12.8612C66.2589 13.4503 66.0645 13.8866 65.6758 14.1703C65.3114 14.4321 64.704 14.563 63.8538 14.563H36.6315ZM42.7173 23.8898V25.1989H61.3757C62.0558 25.1989 62.6025 25.2425 63.0156 25.3298C63.4285 25.4171 63.7444 25.537 63.9631 25.6898C64.1817 25.8425 64.3153 26.0279 64.3639 26.2461C64.4368 26.4643 64.4733 26.7043 64.4733 26.9661C64.4733 27.2715 64.4368 27.5333 64.3639 27.7515C64.3153 27.9697 64.1817 28.1551 63.9631 28.3078C63.7444 28.4606 63.4285 28.5696 63.0156 28.6351C62.6025 28.7005 62.0558 28.7333 61.3757 28.7333H39.7655C39.0852 28.7333 38.5507 28.6678 38.1621 28.5369C37.7733 28.4279 37.4697 28.2642 37.251 28.046C37.0566 27.8497 36.9351 27.6097 36.8866 27.326C36.8379 27.0642 36.8137 26.7806 36.8137 26.4752V22.1881C36.8137 21.9699 36.8379 21.7627 36.8866 21.5663C36.9595 21.3481 37.093 21.1627 37.2874 21.01C37.4818 20.8572 37.7612 20.7373 38.1256 20.65C38.49 20.5627 38.9759 20.5191 39.5833 20.5191H57.7679V19.3737H39.2553C38.2349 19.3737 37.5546 19.2209 37.2146 18.9155C36.8743 18.5883 36.7044 18.1519 36.7044 17.6065C36.7044 17.1702 36.8743 16.7775 37.2146 16.4284C37.5546 16.0575 38.2349 15.872 39.2553 15.872H60.9384C61.5215 15.872 61.9952 15.9266 62.3596 16.0356C62.724 16.1447 63.0033 16.2866 63.1978 16.4611C63.3921 16.6356 63.5135 16.8319 63.5622 17.0501C63.6351 17.2465 63.6715 17.4537 63.6715 17.6719V22.2535C63.6715 22.7772 63.5014 23.1807 63.1613 23.4644C62.8211 23.7481 62.0681 23.8898 60.9019 23.8898H42.7173ZM36.2671 8.01782C36.2671 7.38516 36.4614 6.927 36.8501 6.64334C37.2388 6.33794 38.0284 6.18518 39.2189 6.18518H41.1503V3.95982H39.4011C38.2106 3.95982 37.421 3.80706 37.0323 3.50166C36.6436 3.1744 36.4493 2.7381 36.4493 2.19263C36.4493 1.55997 36.6436 1.10181 37.0323 0.818145C37.421 0.512696 38.2106 0.359984 39.4011 0.359984H61.0841C62.2745 0.359984 63.0641 0.512696 63.4529 0.818145C63.8415 1.10181 64.036 1.55997 64.036 2.19263C64.036 2.7381 63.8415 3.1744 63.4529 3.50166C63.0641 3.80706 62.2745 3.95982 61.0841 3.95982H59.3349V6.18518H61.2664C62.4567 6.18518 63.2463 6.33794 63.6351 6.64334C64.0237 6.927 64.2182 7.38516 64.2182 8.01782C64.2182 8.56329 64.0237 8.9996 63.6351 9.32685C63.2463 9.63226 62.4567 9.78502 61.2664 9.78502H39.2189C38.0284 9.78502 37.2388 9.63226 36.8501 9.32685C36.4614 8.9996 36.2671 8.56329 36.2671 8.01782ZM47.0539 6.18518H53.4313V3.95982H47.0539V6.18518ZM82.0818 0.327258C82.7621 0.327258 83.2967 0.403614 83.6853 0.556338C84.0741 0.687242 84.3656 0.872691 84.5599 1.11268C84.7785 1.35263 84.9122 1.62542 84.9608 1.93082C85.0094 2.21449 85.0336 2.51989 85.0336 2.84714V24.9698C85.0336 25.297 85.0094 25.5916 84.9608 25.8534C84.9122 26.137 84.7785 26.377 84.5599 26.5733C84.3656 26.7916 84.0741 26.9552 83.6853 27.0642C83.2967 27.1951 82.7621 27.2606 82.0818 27.2606H72.6798C71.9996 27.2606 71.4651 27.1951 71.0763 27.0642C70.6877 26.9552 70.3839 26.7916 70.1653 26.5733C69.9709 26.377 69.8495 26.137 69.8008 25.8534C69.7523 25.5916 69.728 25.297 69.728 24.9698V2.84714C69.728 2.51989 69.7523 2.21449 69.8008 1.93082C69.8495 1.62542 69.9709 1.35263 70.1653 1.11268C70.3839 0.872691 70.6877 0.687242 71.0763 0.556338C71.4651 0.403614 71.9996 0.327258 72.6798 0.327258H82.0818ZM90.0992 2.84714C90.0992 1.75632 90.3908 1.0145 90.9738 0.621791C91.5816 0.20726 92.274 0 93.051 0C93.4402 0 93.8046 0.043631 94.1443 0.130904C94.5087 0.218176 94.825 0.370888 95.0918 0.589064C95.3586 0.80724 95.5773 1.10181 95.7478 1.47266C95.9183 1.84351 96.0029 2.30168 96.0029 2.84714V10.7013H98.2987C98.9794 10.7013 99.5377 10.7668 99.975 10.8977C100.412 11.0286 100.752 11.2031 100.995 11.4213C101.239 11.6177 101.396 11.8576 101.469 12.1413C101.567 12.4031 101.615 12.6649 101.615 12.9267C101.615 13.2539 101.567 13.5594 101.469 13.843C101.396 14.1048 101.239 14.3448 100.995 14.563C100.752 14.7593 100.412 14.923 99.975 15.0539C99.5377 15.1629 98.9794 15.2175 98.2987 15.2175H96.0029V25.1989C96.0029 25.7661 95.9183 26.2352 95.7478 26.6061C95.5773 26.9769 95.3586 27.2715 95.0918 27.4897C94.825 27.7079 94.5087 27.8605 94.1443 27.9478C93.8046 28.0351 93.4402 28.0787 93.051 28.0787C92.6619 28.0787 92.2858 28.0351 91.9213 27.9478C91.5816 27.8605 91.2654 27.7079 90.9738 27.4897C90.707 27.2715 90.4884 26.9769 90.3179 26.6061C90.1721 26.2352 90.0992 25.7661 90.0992 25.1989V2.84714ZM79.2758 4.84342H75.4858V22.7444H79.2758V4.84342ZM113.538 0.39271C114.194 0.39271 114.704 0.458161 115.069 0.589064C115.433 0.698146 115.713 0.861775 115.907 1.07995C116.102 1.27631 116.223 1.52724 116.271 1.83264C116.321 2.13805 116.344 2.48716 116.344 2.87987V5.9561H119.988V2.84714C119.988 1.75632 120.22 1.0145 120.681 0.621791C121.143 0.20726 121.762 0 122.539 0C123.293 0 123.901 0.20726 124.361 0.621791C124.848 1.0145 125.09 1.75632 125.09 2.84714V12.6649C125.09 13.7994 124.86 14.563 124.398 14.9557C123.96 15.3484 123.354 15.5448 122.576 15.5448C121.799 15.5448 121.167 15.3484 120.681 14.9557C120.22 14.563 119.988 13.7994 119.988 12.6649V10.6032H116.016C115.822 11.5195 115.482 12.4249 114.996 13.3194C114.51 14.2139 113.806 15.0539 112.882 15.8393C112.276 16.341 111.679 16.6028 111.096 16.6247C110.538 16.6247 109.991 16.4938 109.457 16.232C109.165 16.1011 108.923 15.9156 108.728 15.6757C108.534 15.4357 108.4 15.1739 108.327 14.8902C108.254 14.5848 108.254 14.2793 108.327 13.9739C108.4 13.6467 108.558 13.3413 108.801 13.0576C109.117 12.6867 109.397 12.3376 109.639 12.0104C109.882 11.6831 110.089 11.345 110.258 10.9959H105.339C104.659 10.9959 104.113 10.9523 103.699 10.865C103.286 10.7559 102.97 10.614 102.751 10.4395C102.532 10.2432 102.387 10.0141 102.314 9.75229C102.266 9.49048 102.241 9.19595 102.241 8.86869C102.241 8.60689 102.277 8.35595 102.35 8.116C102.423 7.85419 102.569 7.62511 102.788 7.42876C103.031 7.2324 103.359 7.07964 103.772 6.97059C104.185 6.86155 104.732 6.80697 105.411 6.80697H110.805V4.64706H105.739C105.06 4.64706 104.513 4.59248 104.099 4.48344C103.687 4.37439 103.371 4.2325 103.152 4.058C102.933 3.86164 102.788 3.63256 102.715 3.37076C102.667 3.10895 102.642 2.81442 102.642 2.48716C102.642 2.22535 102.678 1.97442 102.751 1.73447C102.824 1.47266 102.97 1.24358 103.188 1.04723C103.432 0.850871 103.76 0.698146 104.172 0.589064C104.586 0.458161 105.133 0.39271 105.812 0.39271H113.538ZM121.737 18.7192C121.737 19.4827 121.993 20.1591 122.503 20.7482C123.038 21.3372 123.705 21.839 124.507 22.2535C125.334 22.6681 126.256 23.0062 127.277 23.268C128.297 23.5299 129.317 23.7153 130.338 23.8244C131.285 23.9334 131.991 24.2062 132.451 24.6425C132.914 25.1007 133.084 25.7443 132.962 26.5733C132.889 27.0097 132.743 27.3588 132.524 27.6206C132.33 27.8824 132.087 28.0896 131.796 28.2424C131.504 28.3951 131.176 28.4933 130.812 28.5369C130.447 28.5805 130.083 28.5915 129.718 28.5696C127.678 28.4169 125.723 27.9587 123.851 27.1951C121.981 26.4316 120.353 25.5153 118.968 24.4462C118.289 24.9698 117.498 25.4607 116.599 25.9188C115.725 26.3988 114.79 26.8243 113.793 27.1951C112.822 27.566 111.814 27.8715 110.768 28.1115C109.725 28.3514 108.691 28.5042 107.671 28.5696C107.306 28.5915 106.942 28.5805 106.578 28.5369C106.213 28.4933 105.885 28.3951 105.594 28.2424C105.302 28.0896 105.047 27.8824 104.828 27.6206C104.634 27.3588 104.5 27.0097 104.427 26.5733C104.306 25.7443 104.477 25.1007 104.938 24.6425C105.4 24.2062 106.104 23.9334 107.051 23.8244C108.096 23.7153 109.129 23.5407 110.149 23.3008C111.169 23.0826 112.08 22.7663 112.882 22.3517C113.709 21.9372 114.376 21.4354 114.886 20.8463C115.397 20.2354 115.665 19.5154 115.688 18.6864V18.261C115.688 17.6501 115.956 17.1702 116.49 16.8211C117.025 16.4502 117.765 16.2647 118.713 16.2647C119.66 16.2647 120.402 16.4502 120.936 16.8211C121.471 17.1702 121.737 17.6501 121.737 18.261V18.7192ZM127.823 2.84714C127.823 1.75632 128.055 1.0145 128.516 0.621791C128.978 0.20726 129.597 0 130.374 0C131.128 0 131.736 0.20726 132.196 0.621791C132.683 1.0145 132.925 1.75632 132.925 2.84714V13.8103C132.925 14.9448 132.695 15.7084 132.233 16.1011C131.796 16.4938 131.189 16.6902 130.411 16.6902C129.634 16.6902 129.002 16.4938 128.516 16.1011C128.055 15.7084 127.823 14.9448 127.823 13.8103V2.84714Z" fill="white" stroke="white" stroke-width="3" mask="url(#path-1-inside-1_1234_5249)"/>
<path d="M150.556 5.92V23.47H163.006V5.92H150.556ZM160.576 7.93V21.46H152.986V7.93H160.576ZM167.836 3.22V30.34H170.356V3.22H167.836ZM169.756 14.05V16.15H174.796V14.05H169.756ZM196.784 3.19V30.37H199.274V3.19H196.784ZM184.964 5.29C180.974 5.29 178.094 8.98 178.094 14.74C178.094 20.53 180.974 24.22 184.964 24.22C188.984 24.22 191.864 20.53 191.864 14.74C191.864 8.98 188.984 5.29 184.964 5.29ZM184.964 7.54C187.634 7.54 189.464 10.36 189.464 14.74C189.464 19.15 187.634 22.03 184.964 22.03C182.324 22.03 180.464 19.15 180.464 14.74C180.464 10.36 182.324 7.54 184.964 7.54ZM225.461 3.22V30.34H227.861V3.22H225.461ZM216.521 13.54V15.73H221.021V13.54H216.521ZM220.211 3.88V28.93H222.581V3.88H220.211ZM204.941 6.64V8.68H217.331V6.64H204.941ZM204.701 23.68C208.181 23.68 213.851 23.56 218.081 22.75L217.901 20.92C213.791 21.46 207.911 21.58 204.401 21.58L204.701 23.68ZM207.161 7.96V22.15H209.441V7.96H207.161ZM212.801 7.96V22.15H215.081V7.96H212.801ZM251.979 3.19V30.37H254.469V3.19H251.979ZM240.159 5.29C236.169 5.29 233.289 8.98 233.289 14.74C233.289 20.53 236.169 24.22 240.159 24.22C244.179 24.22 247.059 20.53 247.059 14.74C247.059 8.98 244.179 5.29 240.159 5.29ZM240.159 7.54C242.829 7.54 244.659 10.36 244.659 14.74C244.659 19.15 242.829 22.03 240.159 22.03C237.519 22.03 235.659 19.15 235.659 14.74C235.659 10.36 237.519 7.54 240.159 7.54ZM267.066 7.09V11.5C267.066 16.18 263.796 21.28 259.866 23.14L261.306 25.12C265.626 22.99 269.076 17.23 269.076 11.5V7.09H267.066ZM267.546 7.09V11.5C267.546 17.14 271.026 22.42 275.406 24.46L276.816 22.48C272.826 20.77 269.556 16.09 269.556 11.5V7.09H267.546ZM260.766 5.98V8.08H275.916V5.98H260.766ZM279.576 3.22V30.34H282.066V3.22H279.576Z" fill="white"/>
</svg>
