<svg width="259" height="30" viewBox="0 0 259 30" fill="none" xmlns="http://www.w3.org/2000/svg">
<mask id="path-1-inside-1_1234_5250" fill="white">
<path d="M9.58428 0.102506C12.3053 0.102506 14.4067 0.706154 15.8888 1.91344C17.395 3.09799 18.2332 4.82912 18.4033 7.10706C18.4276 7.40323 18.4397 7.80178 18.4397 8.30296C18.4397 8.78132 18.4397 9.2825 18.4397 9.80638C18.4397 10.3076 18.4397 10.7973 18.4397 11.2756C18.4397 11.754 18.4276 12.1412 18.4033 12.4374C18.3547 14.2825 17.8323 15.7517 16.8363 16.8451C15.8644 17.9157 14.4796 18.6447 12.6819 19.0319V24.1913H17.31C17.9903 24.1913 18.549 24.2483 18.9863 24.3622C19.4236 24.4989 19.7637 24.6697 20.0067 24.8747C20.2497 25.1025 20.4076 25.3531 20.4805 25.6264C20.5777 25.9226 20.6262 26.2415 20.6262 26.5831C20.6262 26.8565 20.5777 27.1298 20.4805 27.4032C20.4076 27.6994 20.2497 27.9499 20.0067 28.1549C19.7637 28.3827 19.4236 28.5649 18.9863 28.7016C18.549 28.8383 17.9903 28.9066 17.31 28.9066H3.31623C2.63594 28.9066 2.0772 28.8383 1.6399 28.7016C1.20259 28.5649 0.862507 28.3827 0.619516 28.1549C0.376525 27.9499 0.206548 27.6994 0.109326 27.4032C0.0364416 27.1298 0 26.8565 0 26.5831C0 26.2415 0.0364416 25.9226 0.109326 25.6264C0.206548 25.3531 0.376525 25.1025 0.619516 24.8747C0.862507 24.6697 1.20259 24.4989 1.6399 24.3622C2.0772 24.2483 2.63594 24.1913 3.31623 24.1913H6.77823V19.0661C4.88324 18.7244 3.43766 17.9955 2.44162 16.8793C1.44558 15.7631 0.886716 14.2825 0.765286 12.4374C0.740948 12.1412 0.71674 11.754 0.692402 11.2756C0.692402 10.7744 0.692402 10.2734 0.692402 9.77221C0.692402 9.24833 0.692402 8.74715 0.692402 8.26879C0.71674 7.79043 0.740948 7.40323 0.765286 7.10706C0.886716 4.82912 1.66423 3.09799 3.09758 1.91344C4.55527 0.706154 6.71746 0.102506 9.58428 0.102506ZM22.3755 2.97267C22.3755 1.83375 22.667 1.05923 23.2501 0.649203C23.8575 0.216398 24.5499 0 25.3273 0C25.716 0 26.0804 0.0455546 26.4205 0.136675C26.785 0.227795 27.1008 0.387239 27.368 0.615034C27.6352 0.842828 27.8539 1.15038 28.024 1.53759C28.1941 1.92479 28.2791 2.40315 28.2791 2.97267V11.1731H30.1376C30.8179 11.1731 31.3767 11.2528 31.814 11.4123C32.2513 11.549 32.5914 11.7312 32.8343 11.959C33.0773 12.1868 33.2352 12.4487 33.3081 12.7449C33.4053 13.0182 33.4539 13.2916 33.4539 13.5649C33.4539 13.9066 33.4053 14.2255 33.3081 14.5216C33.2352 14.8178 33.0773 15.0797 32.8343 15.3075C32.5914 15.5125 32.2513 15.6834 31.814 15.82C31.3767 15.9567 30.8179 16.0251 30.1376 16.0251H28.2791V26.3098C28.2791 26.902 28.1941 27.3918 28.024 27.779C27.8539 28.1662 27.6352 28.4738 27.368 28.7016C27.1008 28.9294 26.785 29.0888 26.4205 29.18C26.0804 29.2711 25.716 29.3166 25.3273 29.3166C24.9385 29.3166 24.562 29.2711 24.1976 29.18C23.8575 29.0888 23.5416 28.9294 23.2501 28.7016C22.9829 28.4738 22.7642 28.1662 22.5941 27.779C22.4483 27.3918 22.3755 26.902 22.3755 26.3098V2.97267ZM12.4996 6.97039C12.4996 6.49203 12.3782 6.10482 12.1352 5.80866C11.9166 5.51249 11.6494 5.29613 11.3335 5.15945C11.0176 4.99996 10.6896 4.89745 10.3496 4.85194C10.0337 4.80642 9.77859 4.7836 9.58428 4.7836C9.38996 4.7836 9.13487 4.81777 8.81899 4.8861C8.50312 4.93162 8.18737 5.03413 7.8715 5.19362C7.55562 5.35312 7.27632 5.5923 7.03333 5.91116C6.81467 6.20733 6.69325 6.59453 6.66891 7.07289C6.64457 7.39176 6.62036 7.80178 6.59602 8.30296C6.59602 8.78132 6.59602 9.2825 6.59602 9.80638C6.59602 10.3076 6.59602 10.7973 6.59602 11.2756C6.62036 11.754 6.64457 12.1412 6.66891 12.4374C6.66891 12.9612 6.77823 13.3713 6.99689 13.6674C7.21554 13.9408 7.48274 14.1571 7.79861 14.3166C8.11449 14.4761 8.43023 14.5786 8.74611 14.6241C9.08619 14.647 9.36563 14.6583 9.58428 14.6583C9.77859 14.6583 10.0337 14.647 10.3496 14.6241C10.6654 14.5786 10.9812 14.4761 11.2971 14.3166C11.6129 14.1571 11.8801 13.9408 12.0988 13.6674C12.3418 13.3713 12.4753 12.9612 12.4996 12.4374C12.524 12.1185 12.5361 11.7198 12.5361 11.2415C12.5361 10.7403 12.5361 10.2278 12.5361 9.70387C12.5361 9.15718 12.5361 8.64465 12.5361 8.16629C12.5361 7.68793 12.524 7.28925 12.4996 6.97039ZM36.6315 15.205C35.7811 15.205 35.1616 15.0683 34.7729 14.795C34.4085 14.4988 34.2263 14.0433 34.2263 13.4282C34.2263 12.9271 34.4085 12.517 34.7729 12.1982C35.1616 11.8565 35.7811 11.6856 36.6315 11.6856H63.8538C64.704 11.6856 65.3114 11.8565 65.6758 12.1982C66.0645 12.517 66.2589 12.9271 66.2589 13.4282C66.2589 14.0433 66.0645 14.4988 65.6758 14.795C65.3114 15.0683 64.704 15.205 63.8538 15.205H36.6315ZM42.7173 24.9431V26.3098H61.3757C62.0558 26.3098 62.6025 26.3553 63.0156 26.4465C63.4285 26.5376 63.7444 26.6628 63.9631 26.8223C64.1817 26.9818 64.3153 27.1754 64.3639 27.4032C64.4368 27.631 64.4733 27.8816 64.4733 28.1549C64.4733 28.4738 64.4368 28.7471 64.3639 28.9749C64.3153 29.2028 64.1817 29.3963 63.9631 29.5558C63.7444 29.7153 63.4285 29.8292 63.0156 29.8975C62.6025 29.9658 62.0558 30 61.3757 30H39.7655C39.0852 30 38.5507 29.9317 38.1621 29.795C37.7733 29.6811 37.4697 29.5103 37.251 29.2825C37.0566 29.0775 36.9351 28.8269 36.8866 28.5308C36.8379 28.2574 36.8137 27.9612 36.8137 27.6424V23.1663C36.8137 22.9385 36.8379 22.7221 36.8866 22.5171C36.9595 22.2893 37.093 22.0957 37.2874 21.9362C37.4818 21.7767 37.7612 21.6515 38.1256 21.5604C38.49 21.4692 38.9759 21.4237 39.5833 21.4237H57.7679V20.2278H39.2553C38.2349 20.2278 37.5546 20.0683 37.2146 19.7494C36.8743 19.4077 36.7044 18.9522 36.7044 18.3827C36.7044 17.9271 36.8743 17.5171 37.2146 17.1526C37.5546 16.7654 38.2349 16.5718 39.2553 16.5718H60.9384C61.5214 16.5718 61.9952 16.6287 62.3596 16.7426C62.724 16.8565 63.0033 17.0046 63.1978 17.1868C63.3921 17.369 63.5135 17.574 63.5622 17.8018C63.6351 18.0068 63.6715 18.2232 63.6715 18.451V23.2346C63.6715 23.7813 63.5014 24.2027 63.1613 24.4989C62.8211 24.795 62.0681 24.9431 60.9019 24.9431H42.7173ZM36.2671 8.3713C36.2671 7.71075 36.4614 7.23239 36.8501 6.93622C37.2388 6.61735 38.0284 6.45786 39.2189 6.45786H41.1503V4.1344H39.4011C38.2106 4.1344 37.421 3.9749 37.0323 3.65604C36.6436 3.31435 36.4493 2.85881 36.4493 2.28929C36.4493 1.62874 36.6436 1.15038 37.0323 0.854214C37.421 0.535299 38.2106 0.375855 39.4011 0.375855H61.0841C62.2745 0.375855 63.0641 0.535299 63.4529 0.854214C63.8415 1.15038 64.036 1.62874 64.036 2.28929C64.036 2.85881 63.8415 3.31435 63.4529 3.65604C63.0641 3.9749 62.2745 4.1344 61.0841 4.1344H59.3349V6.45786H61.2664C62.4567 6.45786 63.2463 6.61735 63.6351 6.93622C64.0237 7.23239 64.2182 7.71075 64.2182 8.3713C64.2182 8.94081 64.0237 9.39636 63.6351 9.73804C63.2463 10.0569 62.4567 10.2164 61.2664 10.2164H39.2189C38.0284 10.2164 37.2388 10.0569 36.8501 9.73804C36.4614 9.39636 36.2671 8.94081 36.2671 8.3713ZM47.0539 6.45786H53.4313V4.1344H47.0539V6.45786ZM82.0818 0.341685C82.7621 0.341685 83.2967 0.421408 83.6853 0.580865C84.074 0.71754 84.3656 0.911165 84.5599 1.16173C84.7785 1.41226 84.9122 1.69708 84.9608 2.01595C85.0094 2.31211 85.0336 2.63098 85.0336 2.97267V26.0706C85.0336 26.4123 85.0094 26.7198 84.9608 26.9932C84.9122 27.2893 84.7785 27.5399 84.5599 27.7449C84.3656 27.9727 84.074 28.1436 83.6853 28.2574C83.2967 28.3941 82.7621 28.4624 82.0818 28.4624H72.6798C71.9996 28.4624 71.4651 28.3941 71.0763 28.2574C70.6877 28.1436 70.3839 27.9727 70.1653 27.7449C69.9709 27.5399 69.8495 27.2893 69.8008 26.9932C69.7523 26.7198 69.728 26.4123 69.728 26.0706V2.97267C69.728 2.63098 69.7523 2.31211 69.8008 2.01595C69.8495 1.69708 69.9709 1.41226 70.1653 1.16173C70.3839 0.911165 70.6877 0.71754 71.0763 0.580865C71.4651 0.421408 71.9996 0.341685 72.6798 0.341685H82.0818ZM90.0992 2.97267C90.0992 1.83375 90.3908 1.05923 90.9738 0.649203C91.5816 0.216398 92.274 0 93.051 0C93.4402 0 93.8046 0.0455546 94.1443 0.136675C94.5087 0.227795 94.825 0.387239 95.0918 0.615034C95.3586 0.842828 95.5773 1.15038 95.7478 1.53759C95.9183 1.92479 96.0029 2.40315 96.0029 2.97267V11.1731H98.2987C98.9794 11.1731 99.5377 11.2415 99.975 11.3781C100.412 11.5148 100.752 11.697 100.995 11.9248C101.239 12.1298 101.396 12.3804 101.469 12.6765C101.567 12.9499 101.615 13.2232 101.615 13.4966C101.615 13.8383 101.567 14.1571 101.469 14.4533C101.396 14.7267 101.239 14.9772 100.995 15.205C100.752 15.41 100.412 15.5809 99.975 15.7175C99.5377 15.8314 98.9794 15.8884 98.2987 15.8884H96.0029V26.3098C96.0029 26.902 95.9183 27.3918 95.7478 27.779C95.5773 28.1662 95.3586 28.4738 95.0918 28.7016C94.825 28.9294 94.5087 29.0888 94.1443 29.18C93.8046 29.2711 93.4402 29.3166 93.051 29.3166C92.6619 29.3166 92.2858 29.2711 91.9213 29.18C91.5816 29.0888 91.2654 28.9294 90.9738 28.7016C90.707 28.4738 90.4884 28.1662 90.3179 27.779C90.1721 27.3918 90.0992 26.902 90.0992 26.3098V2.97267ZM79.2758 5.05695H75.4858V23.7472H79.2758V5.05695ZM113.538 0.410023C114.194 0.410023 114.704 0.47836 115.069 0.615034C115.433 0.728925 115.713 0.899768 115.907 1.12756C116.102 1.33257 116.223 1.59457 116.271 1.91344C116.321 2.23231 116.344 2.59681 116.344 3.00683V6.21868H119.988V2.97267C119.988 1.83375 120.22 1.05923 120.681 0.649203C121.143 0.216398 121.762 0 122.539 0C123.293 0 123.901 0.216398 124.361 0.649203C124.848 1.05923 125.09 1.83375 125.09 2.97267V13.2232C125.09 14.4078 124.86 15.205 124.398 15.615C123.96 16.0251 123.354 16.2301 122.576 16.2301C121.799 16.2301 121.167 16.0251 120.681 15.615C120.22 15.205 119.988 14.4078 119.988 13.2232V11.0706H116.016C115.822 12.0273 115.482 12.9727 114.996 13.9066C114.51 14.8405 113.806 15.7175 112.882 16.5376C112.276 17.0615 111.679 17.3348 111.096 17.3576C110.538 17.3576 109.991 17.221 109.457 16.9476C109.165 16.8109 108.923 16.6173 108.728 16.3667C108.534 16.1162 108.4 15.8429 108.327 15.5467C108.254 15.2278 108.254 14.9088 108.327 14.59C108.4 14.2483 108.558 13.9294 108.801 13.6333C109.117 13.2461 109.397 12.8815 109.639 12.5399C109.882 12.1982 110.089 11.8451 110.258 11.4806H105.339C104.659 11.4806 104.113 11.4351 103.699 11.344C103.286 11.2301 102.97 11.082 102.751 10.8998C102.532 10.6948 102.387 10.4556 102.314 10.1822C102.266 9.90889 102.241 9.60137 102.241 9.25968C102.241 8.98633 102.277 8.72433 102.35 8.4738C102.423 8.20045 102.569 7.96128 102.788 7.75626C103.031 7.55125 103.359 7.39176 103.772 7.2779C104.185 7.16405 104.732 7.10706 105.411 7.10706H110.805V4.85194H105.739C105.06 4.85194 104.513 4.79495 104.099 4.68109C103.687 4.56724 103.371 4.41909 103.152 4.2369C102.933 4.03189 102.788 3.79271 102.715 3.51936C102.667 3.24601 102.642 2.9385 102.642 2.59681C102.642 2.32346 102.678 2.06146 102.751 1.81093C102.824 1.53759 102.97 1.29841 103.188 1.09339C103.432 0.888383 103.76 0.728925 104.172 0.615034C104.586 0.47836 105.133 0.410023 105.812 0.410023H113.538ZM121.737 19.5444C121.737 20.3416 121.993 21.0478 122.503 21.6629C123.038 22.2779 123.705 22.8018 124.507 23.2346C125.334 23.6675 126.256 24.0205 127.277 24.2939C128.297 24.5672 129.317 24.7609 130.338 24.8747C131.285 24.9886 131.991 25.2734 132.451 25.7289C132.914 26.2073 133.084 26.8793 132.962 27.7449C132.889 28.2004 132.743 28.5649 132.524 28.8383C132.33 29.1116 132.087 29.328 131.796 29.4875C131.504 29.647 131.176 29.7495 130.812 29.795C130.447 29.8405 130.083 29.852 129.718 29.8292C127.678 29.6697 125.723 29.1913 123.851 28.3941C121.981 27.5969 120.353 26.6401 118.968 25.5239C118.289 26.0706 117.498 26.5831 116.599 27.0615C115.725 27.5627 114.79 28.0069 113.793 28.3941C112.822 28.7813 111.814 29.1003 110.768 29.3508C109.725 29.6013 108.691 29.7608 107.671 29.8292C107.306 29.852 106.942 29.8405 106.578 29.795C106.213 29.7495 105.885 29.647 105.594 29.4875C105.302 29.328 105.047 29.1116 104.828 28.8383C104.634 28.5649 104.5 28.2004 104.427 27.7449C104.306 26.8793 104.477 26.2073 104.938 25.7289C105.4 25.2734 106.104 24.9886 107.051 24.8747C108.096 24.7609 109.129 24.5785 110.149 24.328C111.169 24.1002 112.08 23.77 112.882 23.3371C113.709 22.9043 114.376 22.3804 114.886 21.7654C115.397 21.1275 115.665 20.3758 115.688 19.5103V19.0661C115.688 18.4282 115.956 17.9271 116.49 17.5626C117.025 17.1754 117.765 16.9818 118.713 16.9818C119.66 16.9818 120.402 17.1754 120.936 17.5626C121.471 17.9271 121.737 18.4282 121.737 19.0661V19.5444ZM127.823 2.97267C127.823 1.83375 128.055 1.05923 128.516 0.649203C128.978 0.216398 129.597 0 130.374 0C131.128 0 131.736 0.216398 132.196 0.649203C132.683 1.05923 132.925 1.83375 132.925 2.97267V14.4191C132.925 15.6037 132.695 16.4009 132.233 16.8109C131.796 17.221 131.189 17.426 130.411 17.426C129.634 17.426 129.002 17.221 128.516 16.8109C128.055 16.4009 127.823 15.6037 127.823 14.4191V2.97267Z"/>
</mask>
<path d="M9.58428 0.102506C12.3053 0.102506 14.4067 0.706154 15.8888 1.91344C17.395 3.09799 18.2332 4.82912 18.4033 7.10706C18.4276 7.40323 18.4397 7.80178 18.4397 8.30296C18.4397 8.78132 18.4397 9.2825 18.4397 9.80638C18.4397 10.3076 18.4397 10.7973 18.4397 11.2756C18.4397 11.754 18.4276 12.1412 18.4033 12.4374C18.3547 14.2825 17.8323 15.7517 16.8363 16.8451C15.8644 17.9157 14.4796 18.6447 12.6819 19.0319V24.1913H17.31C17.9903 24.1913 18.549 24.2483 18.9863 24.3622C19.4236 24.4989 19.7637 24.6697 20.0067 24.8747C20.2497 25.1025 20.4076 25.3531 20.4805 25.6264C20.5777 25.9226 20.6262 26.2415 20.6262 26.5831C20.6262 26.8565 20.5777 27.1298 20.4805 27.4032C20.4076 27.6994 20.2497 27.9499 20.0067 28.1549C19.7637 28.3827 19.4236 28.5649 18.9863 28.7016C18.549 28.8383 17.9903 28.9066 17.31 28.9066H3.31623C2.63594 28.9066 2.0772 28.8383 1.6399 28.7016C1.20259 28.5649 0.862507 28.3827 0.619516 28.1549C0.376525 27.9499 0.206548 27.6994 0.109326 27.4032C0.0364416 27.1298 0 26.8565 0 26.5831C0 26.2415 0.0364416 25.9226 0.109326 25.6264C0.206548 25.3531 0.376525 25.1025 0.619516 24.8747C0.862507 24.6697 1.20259 24.4989 1.6399 24.3622C2.0772 24.2483 2.63594 24.1913 3.31623 24.1913H6.77823V19.0661C4.88324 18.7244 3.43766 17.9955 2.44162 16.8793C1.44558 15.7631 0.886716 14.2825 0.765286 12.4374C0.740948 12.1412 0.71674 11.754 0.692402 11.2756C0.692402 10.7744 0.692402 10.2734 0.692402 9.77221C0.692402 9.24833 0.692402 8.74715 0.692402 8.26879C0.71674 7.79043 0.740948 7.40323 0.765286 7.10706C0.886716 4.82912 1.66423 3.09799 3.09758 1.91344C4.55527 0.706154 6.71746 0.102506 9.58428 0.102506ZM22.3755 2.97267C22.3755 1.83375 22.667 1.05923 23.2501 0.649203C23.8575 0.216398 24.5499 0 25.3273 0C25.716 0 26.0804 0.0455546 26.4205 0.136675C26.785 0.227795 27.1008 0.387239 27.368 0.615034C27.6352 0.842828 27.8539 1.15038 28.024 1.53759C28.1941 1.92479 28.2791 2.40315 28.2791 2.97267V11.1731H30.1376C30.8179 11.1731 31.3767 11.2528 31.814 11.4123C32.2513 11.549 32.5914 11.7312 32.8343 11.959C33.0773 12.1868 33.2352 12.4487 33.3081 12.7449C33.4053 13.0182 33.4539 13.2916 33.4539 13.5649C33.4539 13.9066 33.4053 14.2255 33.3081 14.5216C33.2352 14.8178 33.0773 15.0797 32.8343 15.3075C32.5914 15.5125 32.2513 15.6834 31.814 15.82C31.3767 15.9567 30.8179 16.0251 30.1376 16.0251H28.2791V26.3098C28.2791 26.902 28.1941 27.3918 28.024 27.779C27.8539 28.1662 27.6352 28.4738 27.368 28.7016C27.1008 28.9294 26.785 29.0888 26.4205 29.18C26.0804 29.2711 25.716 29.3166 25.3273 29.3166C24.9385 29.3166 24.562 29.2711 24.1976 29.18C23.8575 29.0888 23.5416 28.9294 23.2501 28.7016C22.9829 28.4738 22.7642 28.1662 22.5941 27.779C22.4483 27.3918 22.3755 26.902 22.3755 26.3098V2.97267ZM12.4996 6.97039C12.4996 6.49203 12.3782 6.10482 12.1352 5.80866C11.9166 5.51249 11.6494 5.29613 11.3335 5.15945C11.0176 4.99996 10.6896 4.89745 10.3496 4.85194C10.0337 4.80642 9.77859 4.7836 9.58428 4.7836C9.38996 4.7836 9.13487 4.81777 8.81899 4.8861C8.50312 4.93162 8.18737 5.03413 7.8715 5.19362C7.55562 5.35312 7.27632 5.5923 7.03333 5.91116C6.81467 6.20733 6.69325 6.59453 6.66891 7.07289C6.64457 7.39176 6.62036 7.80178 6.59602 8.30296C6.59602 8.78132 6.59602 9.2825 6.59602 9.80638C6.59602 10.3076 6.59602 10.7973 6.59602 11.2756C6.62036 11.754 6.64457 12.1412 6.66891 12.4374C6.66891 12.9612 6.77823 13.3713 6.99689 13.6674C7.21554 13.9408 7.48274 14.1571 7.79861 14.3166C8.11449 14.4761 8.43023 14.5786 8.74611 14.6241C9.08619 14.647 9.36563 14.6583 9.58428 14.6583C9.77859 14.6583 10.0337 14.647 10.3496 14.6241C10.6654 14.5786 10.9812 14.4761 11.2971 14.3166C11.6129 14.1571 11.8801 13.9408 12.0988 13.6674C12.3418 13.3713 12.4753 12.9612 12.4996 12.4374C12.524 12.1185 12.5361 11.7198 12.5361 11.2415C12.5361 10.7403 12.5361 10.2278 12.5361 9.70387C12.5361 9.15718 12.5361 8.64465 12.5361 8.16629C12.5361 7.68793 12.524 7.28925 12.4996 6.97039ZM36.6315 15.205C35.7811 15.205 35.1616 15.0683 34.7729 14.795C34.4085 14.4988 34.2263 14.0433 34.2263 13.4282C34.2263 12.9271 34.4085 12.517 34.7729 12.1982C35.1616 11.8565 35.7811 11.6856 36.6315 11.6856H63.8538C64.704 11.6856 65.3114 11.8565 65.6758 12.1982C66.0645 12.517 66.2589 12.9271 66.2589 13.4282C66.2589 14.0433 66.0645 14.4988 65.6758 14.795C65.3114 15.0683 64.704 15.205 63.8538 15.205H36.6315ZM42.7173 24.9431V26.3098H61.3757C62.0558 26.3098 62.6025 26.3553 63.0156 26.4465C63.4285 26.5376 63.7444 26.6628 63.9631 26.8223C64.1817 26.9818 64.3153 27.1754 64.3639 27.4032C64.4368 27.631 64.4733 27.8816 64.4733 28.1549C64.4733 28.4738 64.4368 28.7471 64.3639 28.9749C64.3153 29.2028 64.1817 29.3963 63.9631 29.5558C63.7444 29.7153 63.4285 29.8292 63.0156 29.8975C62.6025 29.9658 62.0558 30 61.3757 30H39.7655C39.0852 30 38.5507 29.9317 38.1621 29.795C37.7733 29.6811 37.4697 29.5103 37.251 29.2825C37.0566 29.0775 36.9351 28.8269 36.8866 28.5308C36.8379 28.2574 36.8137 27.9612 36.8137 27.6424V23.1663C36.8137 22.9385 36.8379 22.7221 36.8866 22.5171C36.9595 22.2893 37.093 22.0957 37.2874 21.9362C37.4818 21.7767 37.7612 21.6515 38.1256 21.5604C38.49 21.4692 38.9759 21.4237 39.5833 21.4237H57.7679V20.2278H39.2553C38.2349 20.2278 37.5546 20.0683 37.2146 19.7494C36.8743 19.4077 36.7044 18.9522 36.7044 18.3827C36.7044 17.9271 36.8743 17.5171 37.2146 17.1526C37.5546 16.7654 38.2349 16.5718 39.2553 16.5718H60.9384C61.5214 16.5718 61.9952 16.6287 62.3596 16.7426C62.724 16.8565 63.0033 17.0046 63.1978 17.1868C63.3921 17.369 63.5135 17.574 63.5622 17.8018C63.6351 18.0068 63.6715 18.2232 63.6715 18.451V23.2346C63.6715 23.7813 63.5014 24.2027 63.1613 24.4989C62.8211 24.795 62.0681 24.9431 60.9019 24.9431H42.7173ZM36.2671 8.3713C36.2671 7.71075 36.4614 7.23239 36.8501 6.93622C37.2388 6.61735 38.0284 6.45786 39.2189 6.45786H41.1503V4.1344H39.4011C38.2106 4.1344 37.421 3.9749 37.0323 3.65604C36.6436 3.31435 36.4493 2.85881 36.4493 2.28929C36.4493 1.62874 36.6436 1.15038 37.0323 0.854214C37.421 0.535299 38.2106 0.375855 39.4011 0.375855H61.0841C62.2745 0.375855 63.0641 0.535299 63.4529 0.854214C63.8415 1.15038 64.036 1.62874 64.036 2.28929C64.036 2.85881 63.8415 3.31435 63.4529 3.65604C63.0641 3.9749 62.2745 4.1344 61.0841 4.1344H59.3349V6.45786H61.2664C62.4567 6.45786 63.2463 6.61735 63.6351 6.93622C64.0237 7.23239 64.2182 7.71075 64.2182 8.3713C64.2182 8.94081 64.0237 9.39636 63.6351 9.73804C63.2463 10.0569 62.4567 10.2164 61.2664 10.2164H39.2189C38.0284 10.2164 37.2388 10.0569 36.8501 9.73804C36.4614 9.39636 36.2671 8.94081 36.2671 8.3713ZM47.0539 6.45786H53.4313V4.1344H47.0539V6.45786ZM82.0818 0.341685C82.7621 0.341685 83.2967 0.421408 83.6853 0.580865C84.074 0.71754 84.3656 0.911165 84.5599 1.16173C84.7785 1.41226 84.9122 1.69708 84.9608 2.01595C85.0094 2.31211 85.0336 2.63098 85.0336 2.97267V26.0706C85.0336 26.4123 85.0094 26.7198 84.9608 26.9932C84.9122 27.2893 84.7785 27.5399 84.5599 27.7449C84.3656 27.9727 84.074 28.1436 83.6853 28.2574C83.2967 28.3941 82.7621 28.4624 82.0818 28.4624H72.6798C71.9996 28.4624 71.4651 28.3941 71.0763 28.2574C70.6877 28.1436 70.3839 27.9727 70.1653 27.7449C69.9709 27.5399 69.8495 27.2893 69.8008 26.9932C69.7523 26.7198 69.728 26.4123 69.728 26.0706V2.97267C69.728 2.63098 69.7523 2.31211 69.8008 2.01595C69.8495 1.69708 69.9709 1.41226 70.1653 1.16173C70.3839 0.911165 70.6877 0.71754 71.0763 0.580865C71.4651 0.421408 71.9996 0.341685 72.6798 0.341685H82.0818ZM90.0992 2.97267C90.0992 1.83375 90.3908 1.05923 90.9738 0.649203C91.5816 0.216398 92.274 0 93.051 0C93.4402 0 93.8046 0.0455546 94.1443 0.136675C94.5087 0.227795 94.825 0.387239 95.0918 0.615034C95.3586 0.842828 95.5773 1.15038 95.7478 1.53759C95.9183 1.92479 96.0029 2.40315 96.0029 2.97267V11.1731H98.2987C98.9794 11.1731 99.5377 11.2415 99.975 11.3781C100.412 11.5148 100.752 11.697 100.995 11.9248C101.239 12.1298 101.396 12.3804 101.469 12.6765C101.567 12.9499 101.615 13.2232 101.615 13.4966C101.615 13.8383 101.567 14.1571 101.469 14.4533C101.396 14.7267 101.239 14.9772 100.995 15.205C100.752 15.41 100.412 15.5809 99.975 15.7175C99.5377 15.8314 98.9794 15.8884 98.2987 15.8884H96.0029V26.3098C96.0029 26.902 95.9183 27.3918 95.7478 27.779C95.5773 28.1662 95.3586 28.4738 95.0918 28.7016C94.825 28.9294 94.5087 29.0888 94.1443 29.18C93.8046 29.2711 93.4402 29.3166 93.051 29.3166C92.6619 29.3166 92.2858 29.2711 91.9213 29.18C91.5816 29.0888 91.2654 28.9294 90.9738 28.7016C90.707 28.4738 90.4884 28.1662 90.3179 27.779C90.1721 27.3918 90.0992 26.902 90.0992 26.3098V2.97267ZM79.2758 5.05695H75.4858V23.7472H79.2758V5.05695ZM113.538 0.410023C114.194 0.410023 114.704 0.47836 115.069 0.615034C115.433 0.728925 115.713 0.899768 115.907 1.12756C116.102 1.33257 116.223 1.59457 116.271 1.91344C116.321 2.23231 116.344 2.59681 116.344 3.00683V6.21868H119.988V2.97267C119.988 1.83375 120.22 1.05923 120.681 0.649203C121.143 0.216398 121.762 0 122.539 0C123.293 0 123.901 0.216398 124.361 0.649203C124.848 1.05923 125.09 1.83375 125.09 2.97267V13.2232C125.09 14.4078 124.86 15.205 124.398 15.615C123.96 16.0251 123.354 16.2301 122.576 16.2301C121.799 16.2301 121.167 16.0251 120.681 15.615C120.22 15.205 119.988 14.4078 119.988 13.2232V11.0706H116.016C115.822 12.0273 115.482 12.9727 114.996 13.9066C114.51 14.8405 113.806 15.7175 112.882 16.5376C112.276 17.0615 111.679 17.3348 111.096 17.3576C110.538 17.3576 109.991 17.221 109.457 16.9476C109.165 16.8109 108.923 16.6173 108.728 16.3667C108.534 16.1162 108.4 15.8429 108.327 15.5467C108.254 15.2278 108.254 14.9088 108.327 14.59C108.4 14.2483 108.558 13.9294 108.801 13.6333C109.117 13.2461 109.397 12.8815 109.639 12.5399C109.882 12.1982 110.089 11.8451 110.258 11.4806H105.339C104.659 11.4806 104.113 11.4351 103.699 11.344C103.286 11.2301 102.97 11.082 102.751 10.8998C102.532 10.6948 102.387 10.4556 102.314 10.1822C102.266 9.90889 102.241 9.60137 102.241 9.25968C102.241 8.98633 102.277 8.72433 102.35 8.4738C102.423 8.20045 102.569 7.96128 102.788 7.75626C103.031 7.55125 103.359 7.39176 103.772 7.2779C104.185 7.16405 104.732 7.10706 105.411 7.10706H110.805V4.85194H105.739C105.06 4.85194 104.513 4.79495 104.099 4.68109C103.687 4.56724 103.371 4.41909 103.152 4.2369C102.933 4.03189 102.788 3.79271 102.715 3.51936C102.667 3.24601 102.642 2.9385 102.642 2.59681C102.642 2.32346 102.678 2.06146 102.751 1.81093C102.824 1.53759 102.97 1.29841 103.188 1.09339C103.432 0.888383 103.76 0.728925 104.172 0.615034C104.586 0.47836 105.133 0.410023 105.812 0.410023H113.538ZM121.737 19.5444C121.737 20.3416 121.993 21.0478 122.503 21.6629C123.038 22.2779 123.705 22.8018 124.507 23.2346C125.334 23.6675 126.256 24.0205 127.277 24.2939C128.297 24.5672 129.317 24.7609 130.338 24.8747C131.285 24.9886 131.991 25.2734 132.451 25.7289C132.914 26.2073 133.084 26.8793 132.962 27.7449C132.889 28.2004 132.743 28.5649 132.524 28.8383C132.33 29.1116 132.087 29.328 131.796 29.4875C131.504 29.647 131.176 29.7495 130.812 29.795C130.447 29.8405 130.083 29.852 129.718 29.8292C127.678 29.6697 125.723 29.1913 123.851 28.3941C121.981 27.5969 120.353 26.6401 118.968 25.5239C118.289 26.0706 117.498 26.5831 116.599 27.0615C115.725 27.5627 114.79 28.0069 113.793 28.3941C112.822 28.7813 111.814 29.1003 110.768 29.3508C109.725 29.6013 108.691 29.7608 107.671 29.8292C107.306 29.852 106.942 29.8405 106.578 29.795C106.213 29.7495 105.885 29.647 105.594 29.4875C105.302 29.328 105.047 29.1116 104.828 28.8383C104.634 28.5649 104.5 28.2004 104.427 27.7449C104.306 26.8793 104.477 26.2073 104.938 25.7289C105.4 25.2734 106.104 24.9886 107.051 24.8747C108.096 24.7609 109.129 24.5785 110.149 24.328C111.169 24.1002 112.08 23.77 112.882 23.3371C113.709 22.9043 114.376 22.3804 114.886 21.7654C115.397 21.1275 115.665 20.3758 115.688 19.5103V19.0661C115.688 18.4282 115.956 17.9271 116.49 17.5626C117.025 17.1754 117.765 16.9818 118.713 16.9818C119.66 16.9818 120.402 17.1754 120.936 17.5626C121.471 17.9271 121.737 18.4282 121.737 19.0661V19.5444ZM127.823 2.97267C127.823 1.83375 128.055 1.05923 128.516 0.649203C128.978 0.216398 129.597 0 130.374 0C131.128 0 131.736 0.216398 132.196 0.649203C132.683 1.05923 132.925 1.83375 132.925 2.97267V14.4191C132.925 15.6037 132.695 16.4009 132.233 16.8109C131.796 17.221 131.189 17.426 130.411 17.426C129.634 17.426 129.002 17.221 128.516 16.8109C128.055 16.4009 127.823 15.6037 127.823 14.4191V2.97267Z" fill="#FF7E36" stroke="#FF7E36" stroke-width="3" mask="url(#path-1-inside-1_1234_5250)"/>
<path d="M149.805 15.57V17.61H174.315V15.57H149.805ZM160.815 11.22V16.41H163.275V11.22H160.815ZM152.895 10.44V12.48H171.465V10.44H152.895ZM152.895 3.45V11.64H155.355V5.46H171.255V3.45H152.895ZM162.015 19.56C156.225 19.56 152.715 21.33 152.715 24.42C152.715 27.57 156.225 29.31 162.015 29.31C167.805 29.31 171.315 27.57 171.315 24.42C171.315 21.33 167.805 19.56 162.015 19.56ZM162.015 21.48C166.275 21.48 168.795 22.56 168.795 24.42C168.795 26.31 166.275 27.36 162.015 27.36C157.785 27.36 155.235 26.31 155.235 24.42C155.235 22.56 157.785 21.48 162.015 21.48ZM178.692 5.13V21.03H181.152V5.13H178.692ZM178.692 20.31V22.47H180.432C183.702 22.47 186.732 22.32 190.272 21.6L189.942 19.47C186.522 20.16 183.582 20.31 180.432 20.31H178.692ZM198.042 2.22V29.34H200.442V2.22H198.042ZM186.222 11.31V13.38H193.002V11.31H186.222ZM192.312 2.85V27.96H194.652V2.85H192.312ZM210.67 3.9V7.53C210.67 10.59 208.54 14.1 204.97 15.66L206.32 17.61C210.31 15.84 212.65 11.58 212.65 7.53V3.9H210.67ZM211.06 3.9V7.53C211.06 11.52 213.31 15.27 217.21 16.83L218.56 14.94C215.08 13.59 213.04 10.53 213.04 7.53V3.9H211.06ZM225.46 2.25V18.96H227.83V2.25H225.46ZM221.14 9.48V11.52H226.27V9.48H221.14ZM219.64 2.76V18.09H222.01V2.76H219.64ZM218.92 19.56C213.31 19.56 209.89 21.36 209.89 24.45C209.89 27.51 213.31 29.28 218.92 29.28C224.5 29.28 227.98 27.51 227.98 24.45C227.98 21.36 224.5 19.56 218.92 19.56ZM218.92 21.51C223 21.51 225.49 22.59 225.49 24.45C225.49 26.28 223 27.36 218.92 27.36C214.84 27.36 212.32 26.28 212.32 24.45C212.32 22.59 214.84 21.51 218.92 21.51ZM251.108 2.22V18.21H253.598V2.22H251.108ZM252.548 9.15V11.22H257.558V9.15H252.548ZM236.048 19.44V21.21H251.168V23.28H236.108V27.81H238.538V24.93H253.598V19.44H236.048ZM236.108 27.27V29.04H254.648V27.27H236.108ZM239.678 13.35V16.8H242.168V13.35H239.678ZM232.718 17.61C237.458 17.61 243.908 17.58 249.698 16.56L249.488 14.97C243.908 15.75 237.248 15.78 232.418 15.78L232.718 17.61ZM233.108 4.29V6.06H248.678V4.29H233.108ZM240.908 6.9C237.038 6.9 234.578 8.22 234.578 10.47C234.578 12.72 237.038 14.04 240.908 14.04C244.748 14.04 247.208 12.72 247.208 10.47C247.208 8.22 244.748 6.9 240.908 6.9ZM240.908 8.55C243.338 8.55 244.868 9.27 244.868 10.47C244.868 11.67 243.338 12.42 240.908 12.42C238.478 12.42 236.918 11.67 236.918 10.47C236.918 9.27 238.478 8.55 240.908 8.55ZM239.678 1.95V5.22H242.168V1.95H239.678Z" fill="#FF7E36"/>
</svg>
