<svg width="24" height="24" viewBox="0 0 24 24" fill="none" xmlns="http://www.w3.org/2000/svg">
<path d="M12 5L12.53 4.47C12.3894 4.32955 12.1988 4.25066 12 4.25066C11.8012 4.25066 11.6106 4.32955 11.47 4.47L12 5ZM12 13L11.47 13.53C11.6106 13.6705 11.8012 13.7493 12 13.7493C12.1988 13.7493 12.3894 13.6705 12.53 13.53L12 13ZM9.47 6.47C9.33752 6.61217 9.2654 6.80022 9.26882 6.99452C9.27225 7.18882 9.35097 7.37421 9.48838 7.51162C9.62579 7.64903 9.81118 7.72775 10.0055 7.73117C10.1998 7.7346 10.3878 7.66248 10.53 7.53L9.47 6.47ZM13.47 7.53C13.5387 7.60369 13.6215 7.66279 13.7135 7.70378C13.8055 7.74477 13.9048 7.76681 14.0055 7.76859C14.1062 7.77037 14.2062 7.75184 14.2996 7.71412C14.393 7.6764 14.4778 7.62026 14.549 7.54904C14.6203 7.47782 14.6764 7.39299 14.7141 7.2996C14.7518 7.20621 14.7704 7.10618 14.7686 7.00548C14.7668 6.90477 14.7448 6.80546 14.7038 6.71346C14.6628 6.62146 14.6037 6.53866 14.53 6.47L13.47 7.53ZM10.53 10.47C10.4613 10.3963 10.3785 10.3372 10.2865 10.2962C10.1945 10.2552 10.0952 10.2332 9.99452 10.2314C9.89382 10.2296 9.79379 10.2482 9.7004 10.2859C9.60701 10.3236 9.52218 10.3797 9.45096 10.451C9.37974 10.5222 9.3236 10.607 9.28588 10.7004C9.24816 10.7938 9.22963 10.8938 9.23141 10.9945C9.23318 11.0952 9.25523 11.1945 9.29622 11.2865C9.33721 11.3785 9.39631 11.4613 9.47 11.53L10.53 10.47ZM14.53 11.53C14.6037 11.4613 14.6628 11.3785 14.7038 11.2865C14.7448 11.1945 14.7668 11.0952 14.7686 10.9945C14.7704 10.8938 14.7518 10.7938 14.7141 10.7004C14.6764 10.607 14.6203 10.5222 14.549 10.451C14.4778 10.3797 14.393 10.3236 14.2996 10.2859C14.2062 10.2482 14.1062 10.2296 14.0055 10.2314C13.9048 10.2332 13.8055 10.2552 13.7135 10.2962C13.6215 10.3372 13.5387 10.3963 13.47 10.47L14.53 11.53ZM3.25 10V14H4.75V10H3.25ZM20.75 14V10H19.25V14H20.75ZM11.25 5V13H12.75V5H11.25ZM11.47 4.47L9.47 6.47L10.53 7.53L12.53 5.53L11.47 4.47ZM11.47 5.53L13.47 7.53L14.53 6.47L12.53 4.47L11.47 5.53ZM12.53 12.47L10.53 10.47L9.47 11.53L11.47 13.53L12.53 12.47ZM12.53 13.53L14.53 11.53L13.47 10.47L11.47 12.47L12.53 13.53ZM20.75 10C20.75 7.67936 19.8281 5.45376 18.1872 3.81282C16.5462 2.17187 14.3206 1.25 12 1.25V2.75C13.9228 2.75 15.7669 3.51384 17.1265 4.87348C18.4862 6.23311 19.25 8.07718 19.25 10H20.75ZM12 22.75C13.1491 22.75 14.2869 22.5237 15.3485 22.0839C16.4101 21.6442 17.3747 20.9997 18.1872 20.1872C18.9997 19.3747 19.6442 18.4101 20.0839 17.3485C20.5237 16.2869 20.75 15.1491 20.75 14H19.25C19.25 15.9228 18.4862 17.7669 17.1265 19.1265C15.7669 20.4862 13.9228 21.25 12 21.25V22.75ZM3.25 14C3.25 16.3206 4.17187 18.5462 5.81282 20.1872C7.45376 21.8281 9.67936 22.75 12 22.75V21.25C10.0772 21.25 8.23311 20.4862 6.87348 19.1265C5.51384 17.7669 4.75 15.9228 4.75 14H3.25ZM4.75 10C4.75 8.07718 5.51384 6.23311 6.87348 4.87348C8.23311 3.51384 10.0772 2.75 12 2.75V1.25C9.67936 1.25 7.45376 2.17187 5.81282 3.81282C4.17187 5.45376 3.25 7.67936 3.25 10H4.75Z" fill="#82868A"/>
</svg>
